<svg id="aadhar-icon" xmlns="http://www.w3.org/2000/svg" width="30.221" height="19" viewBox="0 0 30.221 19">
  <g id="g10">
    <g id="g12">
      <path id="path14" d="M392.348,107.959h0a2.033,2.033,0,0,0-.277.85,5.825,5.825,0,0,1-.263,1.084,2.881,2.881,0,0,1-.918,1.267,11.946,11.946,0,0,0-2.119-3.561,3,3,0,0,1,1.583-.146,5.867,5.867,0,0,1,1.1.317,2.186,2.186,0,0,0,.893.19Z" transform="translate(-364.147 -100.604)" fill="#8f8f8f"/>
      <path id="path16" d="M309.293,31.19h0a2.05,2.05,0,0,0,.19.875,5.446,5.446,0,0,1,.326,1.068,2.814,2.814,0,0,1-.149,1.547A12.469,12.469,0,0,0,306,32.618a2.936,2.936,0,0,1,1.3-.9,5.757,5.757,0,0,1,1.117-.257,2.228,2.228,0,0,0,.868-.273Z" transform="translate(-286.62 -29.215)" fill="#8f8f8f"/>
      <path id="path18" d="M431.48,199.74a2.968,2.968,0,0,1,1.439.633,5.56,5.56,0,0,1,.8.834,2.1,2.1,0,0,0,.651.6H431.65A11.849,11.849,0,0,0,431.48,199.74Z" transform="translate(-404.152 -187.089)" fill="#8f8f8f"/>
      <path id="path20" d="M110.807,31.181h0a2.217,2.217,0,0,0,.872.272,5.712,5.712,0,0,1,1.117.257,2.927,2.927,0,0,1,1.3.9,12.443,12.443,0,0,0-3.662,2.06,2.78,2.78,0,0,1-.15-1.547,5.453,5.453,0,0,1,.326-1.069,2.05,2.05,0,0,0,.2-.871Z" transform="translate(-103.256 -29.205)" fill="#8f8f8f"/>
      <path id="path22" d="M31.92,107.95h0a2.176,2.176,0,0,0,.893-.19,5.894,5.894,0,0,1,1.1-.317,3,3,0,0,1,1.583.146,11.946,11.946,0,0,0-2.115,3.561,2.88,2.88,0,0,1-.918-1.267A5.828,5.828,0,0,1,32.2,108.8a2.051,2.051,0,0,0-.277-.85Z" transform="translate(-29.898 -100.595)" fill="#8f8f8f"/>
      <path id="path24" d="M0,202.134a2.14,2.14,0,0,0,.674-.6,5.52,5.52,0,0,1,.788-.812A2.966,2.966,0,0,1,2.9,200.09a11.922,11.922,0,0,0-.177,2.057Z" transform="translate(0 -187.417)" fill="#8f8f8f"/>
      <path id="path26" d="M207.3,0h0a2.123,2.123,0,0,0,.615.659,5.388,5.388,0,0,1,.85.764,2.837,2.837,0,0,1,.652,1.43,12.926,12.926,0,0,0-4.231,0,2.838,2.838,0,0,1,.666-1.414,5.4,5.4,0,0,1,.833-.764A2.126,2.126,0,0,0,207.3,0Z" transform="translate(-192.194 0)" fill="#8f8f8f"/>
    </g>
    <g id="g28" transform="translate(3.9 3.983)">
      <path id="path30" d="M172.013,214.349h.934c.123-.767-.117-1.36-.915-1.22a4.076,4.076,0,0,0-1.833,1.22h1.23c.137-.086.407-.187.517-.111A.139.139,0,0,1,172.013,214.349Z" transform="translate(-163.321 -203.593)" fill="#8f8f8f"/>
      <path id="path32" d="M89.022,144.079h1.165a7.7,7.7,0,0,0-.8-3.927,3.717,3.717,0,0,0-2.793-2.01A7.529,7.529,0,0,0,81.38,139.7a19.224,19.224,0,0,0-4.29,4.37h1.54c1.386-1.9,4.577-4.82,6.924-4.839a3.077,3.077,0,0,1,2.07.653,2.412,2.412,0,0,1,.876,1.583c0,.333-.326.434-.605.317a1.287,1.287,0,0,1-.537-.488,2.284,2.284,0,0,0-2.181-.9,7.088,7.088,0,0,0-3.167,1.643,19.6,19.6,0,0,0-2,2.007h1.638a8.486,8.486,0,0,1,2.074-1.823,4.784,4.784,0,0,1,.918-.438c.853-.285,1.7-.212,2.077.823a3.2,3.2,0,0,1,.127,1.414v.027H87.97v-.032c0-.358,0-.6.023-.95.03-.317.127-.633.42-.66.619-.127.586,1.215.6,1.647Z" transform="translate(-76.108 -133.327)" fill="#8f8f8f"/>
      <path id="path34" d="M76.888,106.569h1.175a11.768,11.768,0,0,0-.466-4,7.522,7.522,0,0,0-.282-.738,6.263,6.263,0,0,0-.977-1.526,6.789,6.789,0,0,0-1.575-1.347c-.179-.108-.362-.206-.55-.3h0a6.2,6.2,0,0,0-.583-.238h0a8.2,8.2,0,0,0-6.549.8q-.57.3-1.091.65c-.348.231-.677.469-.977.713h0a13.368,13.368,0,0,0-1.3,1.163c-.091.092-.179.19-.263.282-.231.253-.589.612-.482.983.081.292.472.206.605.1a3.805,3.805,0,0,0,.619-.443c.263-.219.514-.453.778-.676a13.066,13.066,0,0,1,3.255-2.048c.237-.1.475-.19.709-.276s.472-.149.7-.209h0a5.51,5.51,0,0,1,5.629,1.427c1.358,1.547,1.6,3.621,1.628,5.679ZM62.3,104.817a3.592,3.592,0,0,0,.39-.431.587.587,0,0,0,.13-.633.42.42,0,0,0-.118-.153.458.458,0,0,0-.169-.082.5.5,0,0,0-.491.2,2.056,2.056,0,0,0-.452.9.578.578,0,0,0,0,.168.388.388,0,0,0,.046.149h0a.212.212,0,0,0,.2.115h.127a.85.85,0,0,0,.342-.232Z" transform="translate(-61.583 -95.816)" fill="#8f8f8f"/>
      <path id="path36" d="M110.145,73.634h0a.523.523,0,0,0,.459-.253.717.717,0,0,0,.063-.139.921.921,0,0,0,.033-.181h0a10.445,10.445,0,0,0-2.6-7.61,8.508,8.508,0,0,0-1.068-.95,8.2,8.2,0,0,0-1.21-.74h0a9.129,9.129,0,0,0-5.556-.729c-.306.057-.609.127-.909.212h0a10.482,10.482,0,0,0-4.378,2.615c-.241.241-.472.488-.69.749-.108.13-.212.26-.326.393a15.7,15.7,0,0,1,2.779-1.88c.221-.114.439-.222.65-.317s.443-.194.671-.279h0a10.456,10.456,0,0,1,2.559-.633,9.69,9.69,0,0,1,2.565.063,8.106,8.106,0,0,1,1.751.472c.108.041.208.089.326.137a2.541,2.541,0,0,1,.3.149h0a8.313,8.313,0,0,1,3.805,5.447A11.174,11.174,0,0,1,109.707,73h0v.025a.676.676,0,0,0,.253.562.386.386,0,0,0,.094.041h0a.383.383,0,0,0,.108,0Z" transform="translate(-91.909 -62.882)" fill="#8f8f8f"/>
      <path id="path38" d="M295.133,65.29a11.247,11.247,0,0,1,7.9,10.6h-2.262a11.654,11.654,0,0,0-5.637-10.6Z" transform="translate(-280.338 -65.137)" fill="#8f8f8f"/>
    </g>
    <path id="path40" d="M58.736,254.1h-.913l-.224.776H56.87l.975-2.977h.922l.975,2.977h-.76Zm-.812-.5h.7c-.182-.583-.3-.98-.357-1.2h0l-.143.57-.19.633Zm4.164.5h-.913l-.224.776H60.22l.975-2.977h.922l.975,2.977h-.754Zm-.809-.5h.7c-.186-.583-.3-.98-.357-1.2h0l-.143.57-.19.633Zm2.514,1.267v-2.922a6.605,6.605,0,0,1,.975-.067,2.015,2.015,0,0,1,1.4.4,1.372,1.372,0,0,1,.429,1.049,1.466,1.466,0,0,1-.484,1.173,2.233,2.233,0,0,1-1.5.412,6.807,6.807,0,0,1-.818-.044Zm.7-2.435v1.937a1.411,1.411,0,0,0,.253,0,1.132,1.132,0,0,0,.807-.267,1,1,0,0,0,.284-.767.9.9,0,0,0-.26-.7,1.077,1.077,0,0,0-.751-.241,1.542,1.542,0,0,0-.324.028Zm2.839-.526h.7v1.144h1.2V251.9h.7v2.977h-.7v-1.238h-1.2v1.236h-.7Zm5.138,2.2h-.913l-.227.776H70.6l.974-2.977H72.5l.991,2.977h-.76l-.25-.776Zm-.809-.5h.7c-.186-.584-.306-.98-.357-1.2h0l-.146.57-.19.633Zm4.164.5h-.912l-.227.776h-.729l.975-2.977h.922l.991,2.977h-.76l-.246-.776Zm-.808-.5h.7c-.182-.584-.3-.98-.357-1.2h0l-.146.57-.19.633Zm2.511,1.267v-2.924a5.616,5.616,0,0,1,.946-.067,1.727,1.727,0,0,1,1,.222.744.744,0,0,1,.3.633.72.72,0,0,1-.153.447.8.8,0,0,1-.4.282h0a.741.741,0,0,1,.412.55q.235.8.253.847h-.716a3.448,3.448,0,0,1-.218-.691.74.74,0,0,0-.172-.371.482.482,0,0,0-.348-.108h-.217v1.189Zm.693-2.473v.818h.289a.659.659,0,0,0,.425-.111.369.369,0,0,0,.149-.317.362.362,0,0,0-.136-.317.623.623,0,0,0-.386-.108,1.742,1.742,0,0,0-.325.023Z" transform="translate(-53.268 -235.914)" fill="#8f8f8f"/>
  </g>
</svg>
