<?xml version="1.0" encoding="utf-8"?>
<!-- Generator: Adobe Illustrator 16.0.0, SVG Export Plug-In . SVG Version: 6.00 Build 0)  -->
<!DOCTYPE svg PUBLIC "-//W3C//DTD SVG 1.1//EN" "http://www.w3.org/Graphics/SVG/1.1/DTD/svg11.dtd">
<svg version="1.1" id="Layer_1" xmlns="http://www.w3.org/2000/svg" xmlns:xlink="http://www.w3.org/1999/xlink" x="0px" y="0px"
	 width="51.5px" height="44.084px" viewBox="0 0 51.5 44.084" enable-background="new 0 0 51.5 44.084" xml:space="preserve">
<g>
	<path fill-rule="evenodd" clip-rule="evenodd" fill="#5E5E5E" d="M51.564,29.047c0,5.013,0,10.025,0,15.037
		c-16.996,0-33.992,0-50.987,0c0-5.012,0-10.024,0-15.037c1.354,0,2.708,0,4.104,0c-0.038-0.15-0.063-0.276-0.1-0.398
		c-1.026-3.32-1.312-6.705-0.709-10.127C5.14,11.324,9.033,5.973,15.463,2.542c4.961-2.648,10.283-3.083,15.716-1.97
		c11.93,2.445,19.613,14.525,16.837,26.348c-0.165,0.704-0.362,1.402-0.55,2.127C48.855,29.047,50.209,29.047,51.564,29.047z
		 M20.377,20.014c-3.454-3.604-2.926-8.683-0.11-11.554c2.856-2.913,7.369-3.328,10.675-0.931c1.634,1.187,2.716,2.771,3.164,4.736
		c0.676,2.971-0.151,5.552-2.214,7.757c0.062,0.041,0.074,0.053,0.09,0.06c3.999,1.594,6.535,4.464,7.55,8.657
		c0.069,0.287,0.206,0.359,0.481,0.357c1.246-0.014,2.49-0.018,3.734,0.002c0.351,0.005,0.524-0.098,0.645-0.443
		c2.013-5.809,1.541-11.401-1.725-16.609C39.303,6.677,34.361,3.7,28.024,3.14C24.059,2.789,20.27,3.406,16.7,5.263
		C8.347,9.604,4.412,19.875,7.753,28.672c0.118,0.311,0.263,0.434,0.606,0.427c1.228-0.021,2.457-0.021,3.684,0
		c0.364,0.007,0.509-0.103,0.594-0.468c0.602-2.567,1.93-4.703,3.926-6.423C17.68,21.247,18.948,20.544,20.377,20.014z
		 M48.545,32.144c-15.004,0-29.972,0-44.936,0c0,3.002,0,5.962,0,8.921c14.996,0,29.955,0,44.936,0
		C48.545,38.088,48.545,35.141,48.545,32.144z M36.481,29.061c0.01-0.06,0.022-0.091,0.019-0.122
		c-0.008-0.05-0.026-0.097-0.041-0.144c-1.154-3.51-3.53-5.708-7.178-6.285c-1.686-0.267-3.439-0.14-5.162-0.139
		c-1.954,0.002-3.71,0.648-5.254,1.834c-1.613,1.239-2.697,2.844-3.249,4.855C22.601,29.061,29.542,29.061,36.481,29.061z
		 M20.965,14.149c-0.007,2.863,2.312,5.196,5.17,5.203c2.844,0.008,5.197-2.337,5.203-5.183c0.007-2.846-2.329-5.189-5.184-5.203
		C23.303,8.954,20.971,11.282,20.965,14.149z"/>
	<path fill-rule="evenodd" clip-rule="evenodd" fill="#5E5E5E" d="M9.595,38.06c0-0.997,0-1.948,0-2.931c0.98,0,1.933,0,2.931,0
		c0,0.964,0,1.927,0,2.931C11.566,38.06,10.601,38.06,9.595,38.06z"/>
	<path fill-rule="evenodd" clip-rule="evenodd" fill="#5E5E5E" d="M20.054,35.131c0,0.983,0,1.937,0,2.929c-0.975,0-1.939,0-2.938,0
		c0-0.973,0-1.937,0-2.929C18.098,35.131,19.063,35.131,20.054,35.131z"/>
	<path fill-rule="evenodd" clip-rule="evenodd" fill="#5E5E5E" d="M24.616,35.119c0.976,0,1.932,0,2.919,0c0,0.985,0,1.953,0,2.949
		c-0.968,0-1.922,0-2.919,0C24.616,37.109,24.616,36.143,24.616,35.119z"/>
	<path fill-rule="evenodd" clip-rule="evenodd" fill="#5E5E5E" d="M32.085,38.057c0-0.988,0-1.94,0-2.925c0.99,0,1.955,0,2.946,0
		c0,0.978,0,1.932,0,2.925C34.063,38.057,33.098,38.057,32.085,38.057z"/>
	<path fill-rule="evenodd" clip-rule="evenodd" fill="#5E5E5E" d="M39.602,38.062c0-0.97,0-1.922,0-2.918c0.96,0,1.924,0,2.931,0
		c0,0.955,0,1.919,0,2.918C41.563,38.062,40.599,38.062,39.602,38.062z"/>
</g>
</svg>
