<svg xmlns="http://www.w3.org/2000/svg" width="11.761" height="20.866" viewBox="0 0 11.761 20.866">
  <path id="Path_347" data-name="Path 347" d="M229.5,319.555l2.551-2.5q2.654-2.6,5.309-5.2a1.587,1.587,0,0,0,.525-1.4,1.257,1.257,0,0,0-2.127-.93c-.665.626-1.31,1.279-1.964,1.919q-3.509,3.437-7.02,6.873a1.554,1.554,0,0,0-.52,1.586,1.906,1.906,0,0,0,.459.83q4.533,4.475,9.091,8.916a1.181,1.181,0,0,0,1.848-.156,1.621,1.621,0,0,0-.2-2.132q-3.854-3.779-7.71-7.555C229.667,319.729,229.6,319.65,229.5,319.555Z" transform="translate(-226.203 -309.154)" fill-rule="evenodd"/>
</svg>
