<svg xmlns="http://www.w3.org/2000/svg" width="6.176" height="9.578" viewBox="0 0 6.176 9.578">
  <path id="rrow" d="M230.646,313.929l-1.339-1.149q-1.394-1.194-2.788-2.388a.682.682,0,0,1-.276-.643.675.675,0,0,1,1.117-.427c.349.288.688.587,1.031.881q1.843,1.578,3.686,3.155a.664.664,0,0,1,.273.728.851.851,0,0,1-.241.381q-2.381,2.054-4.774,4.093a.68.68,0,1,1-.864-1.05l4.049-3.468C230.56,314.008,230.6,313.972,230.646,313.929Z" transform="translate(-226.203 -309.154)" fill="#fff" fill-rule="evenodd"/>
</svg>
