<?xml version="1.0" encoding="utf-8"?>
<!-- Generator: Adobe Illustrator 16.0.0, SVG Export Plug-In . SVG Version: 6.00 Build 0)  -->
<!DOCTYPE svg PUBLIC "-//W3C//DTD SVG 1.1//EN" "http://www.w3.org/Graphics/SVG/1.1/DTD/svg11.dtd">
<svg version="1.1" id="Layer_1" xmlns="http://www.w3.org/2000/svg" xmlns:xlink="http://www.w3.org/1999/xlink" x="0px" y="0px"
	 width="51.5px" height="47.75px" viewBox="0 0 51.5 47.75" enable-background="new 0 0 51.5 47.75" xml:space="preserve">
<path fill-rule="evenodd" clip-rule="evenodd" fill="#5E5E5E" d="M1.303,44.023c0.555-0.988,0.627-1.044,1.813-1.353
	c0-0.343-0.009-0.704,0.001-1.063c0.028-0.982,0.709-1.68,1.692-1.712c0.666-0.022,1.332-0.005,2.063-0.005
	c0-0.459-0.002-0.867,0-1.276c0.005-0.999,0.313-1.41,1.319-1.71c0-0.346,0-0.708,0-1.069c0-0.974,0.184-1.321,0.707-1.331
	c0.538-0.008,0.73,0.349,0.73,1.354c0,0.335,0,0.669,0,1.04c0.758,0,1.497,0,2.267,0c0-4.837,0-9.678,0-14.554
	c-0.729,0-1.468,0-2.267,0c0,0.17,0,0.34,0,0.51c0,2.87,0,5.74-0.001,8.609c0,0.161,0.013,0.324-0.021,0.479
	c-0.081,0.369-0.315,0.597-0.703,0.594c-0.386-0.004-0.62-0.232-0.693-0.604c-0.033-0.17-0.019-0.35-0.019-0.525
	c-0.001-3.014-0.001-6.026-0.001-9.031c-1.124-0.444-1.319-0.733-1.319-1.926c0-0.347,0-0.694,0-1.09c-0.645,0-1.231,0.006-1.817,0
	c-1.004-0.014-1.53-0.54-1.542-1.542c-0.004-0.41,0-0.821,0-1.252c-0.423-0.026-0.804-0.023-1.176-0.079
	c-0.585-0.087-0.9-0.43-0.953-1.02c-0.031-0.348-0.003-0.701-0.025-1.052c-0.043-0.672,0.261-1.094,0.854-1.4
	c3.11-1.614,6.209-3.248,9.312-4.876c4.527-2.374,9.06-4.738,13.577-7.132c0.737-0.391,1.383-0.429,2.109,0.004
	c0.93,0.553,1.899,1.04,2.852,1.554c0.314,0.168,0.558,0.376,0.534,0.772c-0.034,0.557-0.575,0.822-1.139,0.527
	c-0.974-0.509-1.942-1.028-2.898-1.571c-0.301-0.171-0.524-0.155-0.827,0.003c-7.483,3.939-14.97,7.87-22.467,11.784
	c-0.451,0.234-0.549,0.511-0.407,0.981c15.29,0,30.588,0,45.892,0c0.136-0.474,0.031-0.756-0.432-1.005
	c-5.151-2.762-10.29-5.547-15.431-8.327c-0.155-0.085-0.313-0.168-0.448-0.273c-0.304-0.238-0.383-0.553-0.203-0.893
	c0.183-0.343,0.498-0.435,0.858-0.331c0.153,0.044,0.291,0.131,0.431,0.206c5.269,2.849,10.532,5.705,15.809,8.537
	c0.641,0.344,0.971,0.787,0.911,1.516c-0.021,0.237,0.001,0.478-0.004,0.718c-0.023,0.89-0.438,1.302-1.333,1.323
	c-0.253,0.007-0.504,0.001-0.819,0.001c0,0.461,0.006,0.887-0.001,1.312c-0.015,0.968-0.546,1.497-1.521,1.515
	c-0.557,0.008-1.115,0.006-1.674,0.01c-0.028,0-0.058,0.019-0.163,0.055c0,0.348,0.001,0.724,0,1.098
	c-0.002,1.119-0.252,1.473-1.307,1.831c0,4.841,0,9.687,0,14.528c1.091,0.415,1.307,0.727,1.307,1.876c0,0.351,0,0.7,0,1.129
	c0.563,0,1.098,0,1.633,0c1.518,0.002,2.124,0.604,2.125,2.104c0,0.223,0,0.445,0,0.685c0.124,0.031,0.229,0.067,0.334,0.085
	c0.858,0.151,1.431,0.775,1.47,1.634c0.021,0.492,0.021,0.988,0.003,1.482c-0.027,0.712-0.434,1.1-1.155,1.129
	c-0.11,0.004-0.222,0.001-0.334,0.001c-15.34,0-30.682-0.002-46.023,0.009c-0.667,0.001-1.184-0.156-1.479-0.79
	C1.303,45.49,1.303,44.758,1.303,44.023z M14.686,19.388c0,0.413,0.001,0.794-0.001,1.173c-0.001,1.08-0.281,1.464-1.303,1.779
	c0,4.855,0,9.714,0,14.567c1.006,0.307,1.3,0.702,1.303,1.735c0.002,0.405,0.001,0.812,0.001,1.215c0.78,0,1.474,0,2.213,0
	c0-0.456-0.035-0.887,0.01-1.309c0.039-0.354,0.084-0.762,0.284-1.024c0.231-0.306,0.636-0.477,0.997-0.729c0-4.775,0-9.617,0-14.45
	c-1.026-0.336-1.29-0.698-1.291-1.748c0-0.395,0-0.789,0-1.21C16.157,19.388,15.462,19.388,14.686,19.388z M34.706,39.847
	c0.771,0,1.478,0,2.212,0c0-0.39,0-0.739,0-1.09c0.002-1.152,0.218-1.466,1.294-1.868c0-4.856,0-9.712,0-14.558
	c-0.978-0.283-1.289-0.701-1.294-1.702c0-0.408,0-0.817,0-1.27c-0.412,0-0.76,0-1.108,0c-0.36,0-0.718,0-1.104,0
	c0,0.424,0,0.774,0,1.123c-0.003,1.174-0.198,1.464-1.3,1.881c0,4.838,0,9.681,0,14.52c1.102,0.414,1.297,0.704,1.3,1.884
	C34.706,39.114,34.706,39.464,34.706,39.847z M28.182,36.911c0-4.884,0-9.737,0-14.579c-0.972-0.3-1.26-0.685-1.265-1.673
	c-0.002-0.424-0.001-0.847-0.001-1.299c-0.705,0-1.324-0.001-1.944,0.002c-0.075,0-0.151,0.02-0.286,0.038c0,0.394,0,0.771,0,1.149
	c-0.003,1.101-0.236,1.435-1.275,1.801c0,4.849,0,9.704,0,14.553c1.017,0.336,1.271,0.691,1.275,1.756c0,0.394,0,0.788,0,1.19
	c0.774,0,1.479,0,2.23,0c0-0.433-0.001-0.828,0.001-1.224C26.922,37.599,27.193,37.227,28.182,36.911z M48.849,45.553
	c0.005-0.146,0.012-0.24,0.013-0.335c0.015-1.05,0.015-1.05-1.016-1.05c-14.731,0-29.461,0-44.191,0
	c-0.193,0-0.396-0.034-0.569,0.023c-0.135,0.045-0.311,0.197-0.327,0.321c-0.045,0.337-0.015,0.686-0.015,1.04
	C18.138,45.553,33.47,45.553,48.849,45.553z M47.051,42.706c0-0.181-0.002-0.306,0-0.432c0.006-0.948,0.006-0.948-0.919-0.948
	c-13.46-0.001-26.918-0.003-40.375,0.004c-1.295,0-1.233-0.27-1.19,1.283c0,0.025,0.033,0.052,0.062,0.093
	C18.741,42.706,32.863,42.706,47.051,42.706z M46.617,17.902c0-0.446,0-0.88,0-1.325c-13.891,0-27.766,0-41.634,0
	c0,0.465,0,0.889,0,1.325C18.872,17.902,32.726,17.902,46.617,17.902z M19.694,22.324c0,4.894,0,9.739,0,14.58
	c0.767,0,1.491,0,2.216,0c0-4.878,0-9.726,0-14.58C21.156,22.324,20.442,22.324,19.694,22.324z M31.912,36.923
	c0-4.889,0-9.734,0-14.587c-0.762,0-1.486,0-2.225,0c0,4.878,0,9.725,0,14.587C30.44,36.923,31.153,36.923,31.912,36.923z
	 M41.935,36.925c0-4.895,0-9.747,0-14.589c-0.766,0-1.492,0-2.22,0c0,4.881,0,9.729,0,14.589
	C40.469,36.925,41.184,36.925,41.935,36.925z M13.224,19.392c-1.659,0-3.259,0-4.883,0c0,0.5,0,0.969,0,1.441
	c1.644,0,3.257,0,4.883,0C13.224,20.341,13.224,19.886,13.224,19.392z M38.38,20.839c1.639,0,3.252,0,4.877,0
	c0-0.496,0-0.963,0-1.438c-1.647,0-3.261,0-4.877,0C38.38,19.901,38.38,20.357,38.38,20.839z M8.335,39.854c1.66,0,3.262,0,4.881,0
	c0-0.502,0-0.972,0-1.442c-1.645,0-3.258,0-4.881,0C8.335,38.907,8.335,39.362,8.335,39.854z M38.38,39.847c1.651,0,3.263,0,4.873,0
	c0-0.511,0-0.979,0-1.444c-1.641,0-3.245,0-4.873,0C38.38,38.886,38.38,39.342,38.38,39.847z M23.219,19.394
	c-1.635,0-3.245,0-4.853,0c0,0.505,0,0.975,0,1.452c1.629,0,3.227,0,4.853,0C23.219,20.354,23.219,19.886,23.219,19.394z
	 M33.253,19.389c-1.649,0-3.246,0-4.87,0c0,0.497,0,0.966,0,1.447c1.637,0,3.246,0,4.87,0
	C33.253,20.344,33.253,19.887,33.253,19.389z M18.374,38.396c0,0.524,0,0.991,0,1.456c1.636,0,3.234,0,4.84,0
	c0-0.503,0-0.972,0-1.456C21.583,38.396,19.985,38.396,18.374,38.396z M33.251,38.399c-1.646,0-3.244,0-4.867,0
	c0,0.492,0,0.961,0,1.45c1.637,0,3.247,0,4.867,0C33.251,39.356,33.251,38.898,33.251,38.399z"/>
</svg>
