<?xml version="1.0" encoding="utf-8"?>
<!-- Generator: Adobe Illustrator 16.0.0, SVG Export Plug-In . SVG Version: 6.00 Build 0)  -->
<!DOCTYPE svg PUBLIC "-//W3C//DTD SVG 1.1//EN" "http://www.w3.org/Graphics/SVG/1.1/DTD/svg11.dtd">
<svg version="1.1" id="Layer_1" xmlns="http://www.w3.org/2000/svg" xmlns:xlink="http://www.w3.org/1999/xlink" x="0px" y="0px"
	 width="24px" height="24px" viewBox="0 0 24 24" enable-background="new 0 0 24 24" xml:space="preserve">
<g id="booking" transform="translate(-17 -151)">
	<path id="Path_11" fill="#FFFFFF" d="M27.304,164.643c0.359-0.379,0.666-0.715,0.987-1.037c1.221-1.226,2.445-2.449,3.672-3.669
		c0.389-0.387,0.788-0.42,1.114-0.11c0.344,0.326,0.321,0.742-0.085,1.15c-1.684,1.688-3.369,3.375-5.057,5.057
		c-0.233,0.359-0.713,0.461-1.072,0.228c-0.091-0.06-0.168-0.137-0.228-0.228c-0.652-0.642-1.298-1.288-1.94-1.939
		c-0.4-0.408-0.426-0.767-0.1-1.11c0.326-0.343,0.739-0.317,1.151,0.089C26.246,163.563,26.735,164.066,27.304,164.643z"/>
	<g id="Ellipse_6" transform="translate(17 151)">
		<g>
			<circle fill="none" cx="12" cy="12" r="12"/>
		</g>
		<g>
			<path fill="#FFFFFF" d="M12,24C5.383,24,0,18.617,0,12C0,5.383,5.383,0,12,0c6.617,0,12,5.383,12,12C24,18.617,18.617,24,12,24z
				 M12,1.5C6.21,1.5,1.5,6.21,1.5,12c0,5.79,4.71,10.5,10.5,10.5c5.79,0,10.5-4.71,10.5-10.5C22.5,6.21,17.79,1.5,12,1.5z"/>
		</g>
	</g>
</g>
</svg>
