<svg xmlns="http://www.w3.org/2000/svg" width="17.952" height="17.952" viewBox="0 0 17.952 17.952">
  <g id="capacity-icon" transform="translate(604.25 -170.64)">
    <path id="Path_335" data-name="Path 335" d="M-604.25,186.909V174.5a.188.188,0,0,0,.024-.046,1.919,1.919,0,0,1,2.02-1.639c2.051,0,4.1.006,6.152,0a2.317,2.317,0,0,1,1.592.439,1.231,1.231,0,0,1,.116-.165q.48-.486.967-.966a.518.518,0,0,1,.766-.011c.08.074.149.16.229.246.069-.066.116-.108.161-.153.421-.421.84-.846,1.266-1.262a4.084,4.084,0,0,1,.381-.3h2.77a.592.592,0,0,1,.386.549c0,.538,0,1.075,0,1.613a.521.521,0,0,1-.544.539c-.269,0-.538-.006-.806.005a.373.373,0,0,0-.225.093c-.353.341-.7.691-1.044,1.039-.031.031-.057.068-.105.125a1.037,1.037,0,0,1,.121.09c.388.388.386.624-.007,1.016l-.983.983a1.9,1.9,0,0,1,.4,1.129q0,4.443,0,8.887a1.9,1.9,0,0,1-1.347,1.8c-.11.035-.223.06-.335.09h-10.273a.484.484,0,0,0-.079-.031,1.9,1.9,0,0,1-1.513-1.319C-604.2,187.134-604.22,187.02-604.25,186.909Zm1.052-6.224q0,2.936,0,5.873a.888.888,0,0,0,.99.982h9.572a.883.883,0,0,0,.977-.975q0-4.295,0-8.59a1.038,1.038,0,0,0-.325-.781q-1.511-1.5-3.012-3.012a1.036,1.036,0,0,0-.783-.32c-2.145.005-4.289,0-6.434,0a.886.886,0,0,0-.987.983Q-603.2,177.767-603.2,180.685Zm11.592-7.616.741.741c.031-.029.073-.068.113-.108.4-.4.811-.807,1.213-1.214a.626.626,0,0,1,.485-.2c.19,0,.381,0,.57,0v-.6c-.567,0-1.121,0-1.674,0a.169.169,0,0,0-.109.039C-590.719,172.18-591.167,172.629-591.607,173.069Zm.551,2.147-1.957-1.958-.687.689,1.956,1.956Z" transform="translate(0)" fill="#8f8f8f" fill-rule="evenodd"/>
    <path id="Path_336" data-name="Path 336" d="M-284.614,290.12a4.224,4.224,0,0,1-.179.509,1.564,1.564,0,0,1-1.768.813,1.577,1.577,0,0,1-1.207-1.548,1.709,1.709,0,0,1,.282-.874c.279-.451.573-.894.884-1.323a.508.508,0,0,1,.839.018,6.386,6.386,0,0,1,1.149,1.984Zm-1.541-1.2h-.073c-.155.3-.321.588-.461.892a.446.446,0,0,0,.187.52.511.511,0,0,0,.619,0,.452.452,0,0,0,.187-.521C-285.834,289.506-286,289.215-286.155,288.918Z" transform="translate(-301.684 -111.381)" fill="#8f8f8f" fill-rule="evenodd"/>
    <path id="Path_337" data-name="Path 337" d="M-528.654,366.327a.634.634,0,0,1-.5-.357.508.508,0,0,1,.116-.581c.257-.264.516-.525.782-.78a.345.345,0,0,0,.111-.276c0-.9,0-1.8,0-2.7a.379.379,0,0,0-.13-.3c-.249-.238-.491-.484-.733-.73a.527.527,0,0,1-.036-.779.528.528,0,0,1,.779.035c.258.254.509.515.772.764a.364.364,0,0,0,.226.092q1.376.009,2.752,0a.415.415,0,0,0,.254-.109c.256-.24.5-.493.747-.74a.531.531,0,0,1,.792-.036.534.534,0,0,1-.048.78c-.255.258-.515.509-.765.771a.338.338,0,0,0-.087.211q-.009,1.385,0,2.769a.364.364,0,0,0,.093.225c.245.259.5.506.752.76a.536.536,0,0,1,.049.793.534.534,0,0,1-.792-.048c-.253-.251-.5-.508-.759-.753a.364.364,0,0,0-.226-.092q-1.376-.009-2.752,0a.388.388,0,0,0-.24.1c-.264.248-.509.516-.776.761A2.1,2.1,0,0,1-528.654,366.327Zm3.967-4.544h-2.4v2.39h2.4Z" transform="translate(-71.538 -180.188)" fill="#8f8f8f" fill-rule="evenodd"/>
    <path id="Path_338" data-name="Path 338" d="M-554.381,265.18c-1.1,0-2.209.007-3.313,0a1.556,1.556,0,0,1-1.541-1.614,1.552,1.552,0,0,1,1.51-1.5q2.323-.015,4.645,0a.643.643,0,0,1,.4.168c.692.672,1.37,1.357,2.05,2.04a.5.5,0,0,1,.122.58.506.506,0,0,1-.511.327h-3.366Zm2.125-1.059c-.325-.321-.618-.619-.922-.906a.391.391,0,0,0-.24-.1c-.613-.008-1.227,0-1.84,0-.789,0-1.578,0-2.366,0a.513.513,0,0,0-.511.3.51.51,0,0,0,.513.72q2.6,0,5.206,0C-552.379,264.129-552.341,264.126-552.257,264.121Z" transform="translate(-42.909 -87.142)" fill="#8f8f8f" fill-rule="evenodd"/>
  </g>
</svg>
