<svg xmlns="http://www.w3.org/2000/svg" width="20.8" height="14.667" viewBox="0 0 20.8 14.667">
  <g id="chassies-icon" transform="translate(0.15 -66.854)">
    <g id="Group_5" data-name="Group 5" transform="translate(0 67.004)">
      <path id="Path_14" data-name="Path 14" d="M19.8,73.407l-1.4-.6L17.223,70.5a1.867,1.867,0,0,0-1.68-1.021H13.5V68.9A1.883,1.883,0,0,0,11.626,67H1.868A1.878,1.878,0,0,0,0,68.9v8.833A1.151,1.151,0,0,0,1.136,78.9H1.4c0,.046,0,.064,0,.092a2.371,2.371,0,1,0,4.742.018v-.023a.712.712,0,0,0,0-.092h7.886v.092A2.371,2.371,0,1,0,18.756,79V78.89h.59A1.154,1.154,0,0,0,20.5,77.737V74.469A1.148,1.148,0,0,0,19.8,73.407ZM3.767,80.46A1.455,1.455,0,1,1,5.223,79,1.453,1.453,0,0,1,3.767,80.46Zm8.82-2.467H5.914a2.368,2.368,0,0,0-4.293,0H1.154a.237.237,0,0,1-.238-.252V75.384H12.587Zm0-9.09v5.565H.916V68.9a.963.963,0,0,1,.952-.979h9.758a.97.97,0,0,1,.961.975ZM13.5,70.4h2.041a.966.966,0,0,1,.87.517l.915,1.771H13.5ZM16.39,80.46A1.455,1.455,0,1,1,17.845,79,1.453,1.453,0,0,1,16.39,80.46Zm3.2-2.719a.237.237,0,0,1-.238.252h-.815a2.369,2.369,0,0,0-4.293,0H13.5V73.6h4.485l1.455.641a.269.269,0,0,1,.146.247Z" transform="translate(0 -67.004)" fill="#8f8f8f" stroke="#707070" stroke-width="0.3"/>
    </g>
  </g>
</svg>
