<svg xmlns="http://www.w3.org/2000/svg" width="17.659" height="17.659" viewBox="0 0 17.659 17.659">
  <g id="city-icon" transform="translate(1763.3 50.03)">
    <path id="Path_50" data-name="Path 50" d="M-1746.068-32.421h-16.8a.79.79,0,0,1-.377-.377v-.274c.2-.487.648-.357,1.029-.384v-.227q0-3.728,0-7.455a.522.522,0,0,1,.571-.576h.458v-.2c0-1.114,0-2.228,0-3.342a.525.525,0,0,1,.308-.527.513.513,0,0,1,.721.509c0,1.12,0,2.239,0,3.359v.19h2.092v-.212c0-2.456,0-4.913,0-7.369a.646.646,0,0,1,.382-.674h.274a.42.42,0,0,0,.076.032l2.938.585q3.567.71,7.135,1.422c.436.087.552.237.552.681q0,6.788,0,13.577v.231c.393.017.827-.1,1.029.38v.274A.792.792,0,0,1-1746.068-32.421Zm-5.836-2.141-.146-.043a2.532,2.532,0,0,1-1.82-1.831,2.988,2.988,0,0,1,.083-1.705,4.412,4.412,0,0,1,1.115-1.958,1.839,1.839,0,0,1,1.224-.584,1.763,1.763,0,0,1,1.345.579,4.513,4.513,0,0,1,1.259,2.624,2.512,2.512,0,0,1-.677,2.161,2.546,2.546,0,0,1-1.335.753v1.106h3.095v-13.53l-9.267-1.847v7.121h1.42c.436,0,.624.19.624.627v7.626h3.081Zm-4.117-6.112h-5.157v7.215h5.157Zm6.179,3.444a3.642,3.642,0,0,0-.952-2.118.71.71,0,0,0-1.179,0,3.6,3.6,0,0,0-.942,2.066,1.546,1.546,0,0,0,1.43,1.734A1.575,1.575,0,0,0-1749.843-37.23Z" fill="#8f8f8f" stroke="#707070" stroke-width="0.1" fill-rule="evenodd"/>
    <path id="Path_51" data-name="Path 51" d="M-1603.465,18.253c.325,0,.65,0,.975,0a.521.521,0,0,1,.568.509.518.518,0,0,1-.558.519q-.984,0-1.968,0a.519.519,0,0,1-.559-.518.521.521,0,0,1,.567-.51C-1604.115,18.252-1603.79,18.253-1603.465,18.253Z" transform="translate(-151.006 -65.113)" fill="#8f8f8f" stroke="#707070" stroke-width="0.1" fill-rule="evenodd"/>
    <path id="Path_52" data-name="Path 52" d="M-1603.467,64.261c-.331,0-.662,0-.992,0a.518.518,0,0,1-.548-.512.516.516,0,0,1,.544-.516q1,0,2,0a.514.514,0,0,1,.539.52.515.515,0,0,1-.535.507C-1602.793,64.264-1603.13,64.261-1603.467,64.261Z" transform="translate(-151.006 -108.034)" fill="#8f8f8f" stroke="#707070" stroke-width="0.1" fill-rule="evenodd"/>
    <path id="Path_53" data-name="Path 53" d="M-1513.461,63.244c.325,0,.65,0,.975,0a.518.518,0,0,1,.553.507.517.517,0,0,1-.556.521q-.984,0-1.968,0a.519.519,0,0,1-.562-.515.521.521,0,0,1,.564-.513C-1514.123,63.243-1513.792,63.244-1513.461,63.244Z" transform="translate(-236.88 -108.045)" fill="#8f8f8f" stroke="#707070" stroke-width="0.1" fill-rule="evenodd"/>
    <path id="Path_54" data-name="Path 54" d="M-1513.474,109.264c-.331,0-.662,0-.993,0a.519.519,0,0,1-.552-.507.518.518,0,0,1,.556-.52q.984,0,1.968,0a.518.518,0,0,1,.561.516.52.52,0,0,1-.565.512C-1512.824,109.265-1513.149,109.264-1513.474,109.264Z" transform="translate(-236.879 -150.979)" fill="#8f8f8f" stroke="#707070" stroke-width="0.1" fill-rule="evenodd"/>
    <path id="Path_55" data-name="Path 55" d="M-1694.2,176.748c-.331,0-.662,0-.992,0a.518.518,0,0,1-.549-.511.515.515,0,0,1,.542-.517q1.018,0,2.037,0a.514.514,0,0,1,.541.519.515.515,0,0,1-.534.508C-1693.508,176.751-1693.856,176.748-1694.2,176.748Z" transform="translate(-64.418 -215.376)" fill="#8f8f8f" stroke="#707070" stroke-width="0.1" fill-rule="evenodd"/>
    <path id="Path_56" data-name="Path 56" d="M-1694.2,221.75c-.325,0-.65,0-.975,0a.521.521,0,0,1-.567-.51.518.518,0,0,1,.558-.518q1,0,2,0a.518.518,0,0,1,.559.518.521.521,0,0,1-.567.51C-1693.53,221.751-1693.866,221.75-1694.2,221.75Z" transform="translate(-64.418 -258.321)" fill="#8f8f8f" stroke="#707070" stroke-width="0.1" fill-rule="evenodd"/>
    <path id="Path_57" data-name="Path 57" d="M-1694.182,265.713c.337,0,.673,0,1.01,0a.516.516,0,0,1,.545.514.516.516,0,0,1-.546.513q-1.018,0-2.036,0a.515.515,0,0,1-.537-.523.517.517,0,0,1,.538-.5C-1694.867,265.711-1694.525,265.713-1694.182,265.713Z" transform="translate(-64.416 -301.255)" fill="#8f8f8f" stroke="#707070" stroke-width="0.1" fill-rule="evenodd"/>
  </g>
</svg>
