<?xml version="1.0" encoding="utf-8"?>
<!-- Generator: Adobe Illustrator 16.0.0, SVG Export Plug-In . SVG Version: 6.00 Build 0)  -->
<!DOCTYPE svg PUBLIC "-//W3C//DTD SVG 1.1//EN" "http://www.w3.org/Graphics/SVG/1.1/DTD/svg11.dtd">
<svg version="1.1" id="Layer_1" xmlns="http://www.w3.org/2000/svg" xmlns:xlink="http://www.w3.org/1999/xlink" x="0px" y="0px"
	 width="51.5px" height="47.75px" viewBox="0 0 51.5 47.75" enable-background="new 0 0 51.5 47.75" xml:space="preserve">
<g>
	<path fill-rule="evenodd" clip-rule="evenodd" fill="#5E5E5E" d="M2.198,9.462c0.083-0.279,0.157-0.563,0.25-0.839
		c0.781-2.318,2.977-3.562,5.625-3.189c2.196,0.309,3.875,2.219,3.977,4.535c0.014,0.323,0.002,0.647,0.002,1.001
		c-0.938,0-1.835,0-2.813,0c0-0.28,0.006-0.553-0.001-0.825c-0.029-1.19-0.856-1.966-2.093-1.969
		c-1.25-0.004-2.115,0.793-2.126,1.991c-0.014,1.498-0.014,2.996,0,4.492c0.011,1.198,0.878,1.997,2.126,1.995
		c1.232-0.003,2.064-0.785,2.094-1.972c0.006-0.262,0.001-0.523,0.001-0.818c0.946,0,1.842,0,2.784,0
		c0.146,1.306-0.055,2.537-0.858,3.612c-1.312,1.756-3.121,2.303-5.186,1.865c-2.015-0.427-3.247-1.746-3.695-3.773
		c-0.016-0.072-0.056-0.139-0.084-0.208C2.198,13.395,2.198,11.428,2.198,9.462z"/>
	<path fill-rule="evenodd" clip-rule="evenodd" fill="#5E5E5E" d="M2.198,22.289c1.851,0,3.701,0,5.592,0c0,0.923,0,1.831,0,2.79
		c-0.891,0-1.8,0-2.761,0c0,0.957,0,1.866,0,2.827c-0.977,0-1.904,0-2.832,0C2.198,26.033,2.198,24.161,2.198,22.289z"/>
	<path fill-rule="evenodd" clip-rule="evenodd" fill="#5E5E5E" d="M2.198,36.426c0.917,0,1.833,0,2.805,0c0,0.901,0,1.813,0,2.766
		c0.953,0,1.852,0,2.789,0c0,0.95,0,1.861,0,2.852c-1.863,0-3.729,0-5.594,0C2.198,40.171,2.198,38.298,2.198,36.426z"/>
	<path fill-rule="evenodd" clip-rule="evenodd" fill="#5E5E5E" d="M2.198,30.714c0.915,0,1.83,0,2.78,0c0,0.962,0,1.869,0,2.81
		c-0.929,0-1.854,0-2.78,0C2.198,32.587,2.198,31.65,2.198,30.714z"/>
	<path fill-rule="evenodd" clip-rule="evenodd" fill="#5E5E5E" d="M27.6,19.424c0-4.675,0-9.346,0-14.064
		c0.584,0,1.143-0.006,1.699,0.001c1.356,0.018,2.722-0.049,4.066,0.085c2.209,0.22,3.956,2.122,4.041,4.35
		c0.065,1.714,0.07,3.433,0.006,5.146c-0.094,2.479-2.031,4.411-4.512,4.507c-1.714,0.065-3.432,0.015-5.147,0.015
		C27.709,19.463,27.667,19.441,27.6,19.424z M30.417,8.204c0,2.829,0,5.613,0,8.45c0.194,0,0.361,0.002,0.528,0
		c0.671-0.011,1.348,0.03,2.009-0.048c0.994-0.118,1.645-0.882,1.656-1.892c0.018-1.545,0.021-3.088-0.001-4.632
		c-0.014-1.001-0.689-1.775-1.685-1.864C32.108,8.146,31.28,8.204,30.417,8.204z"/>
	<path fill-rule="evenodd" clip-rule="evenodd" fill="#5E5E5E" d="M50.109,5.386c0,0.943,0,1.843,0,2.795c-2.338,0-4.652,0-6.992,0
		c0,0.95,0,1.849,0,2.807c1.702,0,3.392,0,5.11,0c0,0.97,0,1.879,0,2.828c-1.697,0-3.377,0-5.095,0c0,0.949,0,1.859,0,2.821
		c2.313,0,4.629,0,6.973,0c0,0.963,0,1.872,0,2.809c-3.27,0-6.521,0-9.803,0c0-4.691,0-9.36,0-14.06
		C43.572,5.386,46.823,5.386,50.109,5.386z"/>
	<path fill-rule="evenodd" clip-rule="evenodd" fill="#5E5E5E" d="M14.891,12.364c0-0.733-0.017-1.466,0.002-2.198
		c0.081-3.027,2.503-5.121,5.516-4.781c2.559,0.288,4.331,2.252,4.347,4.832c0.01,1.498,0.017,2.995-0.002,4.492
		c-0.033,2.522-1.875,4.499-4.397,4.742c-2.642,0.255-4.94-1.341-5.357-3.867c-0.173-1.047-0.029-2.145-0.029-3.22
		C14.945,12.364,14.917,12.364,14.891,12.364z M17.716,12.393c0,0.765-0.013,1.529,0.003,2.293c0.024,1.188,0.862,1.967,2.094,1.969
		c1.231,0.001,2.104-0.776,2.122-1.95c0.024-1.528,0.025-3.058,0-4.586c-0.019-1.174-0.894-1.947-2.126-1.942
		c-1.237,0.004-2.066,0.777-2.09,1.971C17.704,10.896,17.715,11.644,17.716,12.393z"/>
	<path fill-rule="evenodd" clip-rule="evenodd" fill="#5E5E5E" d="M26.29,34.259c-0.724,0.732-1.357,1.374-1.947,1.972
		c-0.679-0.678-1.334-1.331-2.029-2.025c0.588-0.563,1.25-1.196,1.947-1.864c-0.699-0.675-1.355-1.311-1.979-1.913
		c0.703-0.702,1.347-1.348,2-2.002c0.594,0.604,1.235,1.256,1.908,1.938c0.684-0.716,1.315-1.377,1.915-2.004
		c0.711,0.711,1.355,1.356,2.044,2.046c-0.604,0.584-1.271,1.229-1.994,1.928c0.727,0.694,1.389,1.327,2.038,1.946
		c-0.671,0.671-1.31,1.309-1.99,1.991C27.582,35.618,26.945,34.948,26.29,34.259z"/>
	<path fill-rule="evenodd" clip-rule="evenodd" fill="#5E5E5E" d="M38.646,30.355c0.681-0.708,1.315-1.367,1.913-1.988
		c0.707,0.708,1.352,1.353,2.042,2.046c-0.6,0.579-1.267,1.224-1.989,1.92c0.722,0.696,1.379,1.333,2.023,1.956
		c-0.66,0.66-1.297,1.3-1.981,1.984c-0.619-0.655-1.254-1.327-1.953-2.064c-0.725,0.756-1.358,1.416-1.972,2.055
		c-0.674-0.673-1.322-1.32-2.012-2.012c0.639-0.61,1.301-1.242,1.993-1.903c-0.696-0.684-1.349-1.323-1.967-1.929
		c0.693-0.695,1.339-1.341,1.989-1.992C37.331,29.03,37.974,29.68,38.646,30.355z"/>
	<path fill-rule="evenodd" clip-rule="evenodd" fill="#5E5E5E" d="M9.732,34.186c0.579-0.563,1.235-1.2,1.927-1.873
		c-0.675-0.662-1.328-1.303-1.959-1.922c0.684-0.679,1.332-1.321,2.019-2.003c0.592,0.627,1.22,1.291,1.86,1.969
		c0.706-0.726,1.342-1.38,1.942-1.997c0.71,0.709,1.355,1.354,2.013,2.011c-0.599,0.588-1.25,1.228-1.929,1.896
		c0.731,0.692,1.394,1.32,2.02,1.913c-0.73,0.731-1.384,1.385-2.087,2.088c-0.596-0.606-1.236-1.26-1.906-1.943
		c-0.639,0.672-1.259,1.325-1.838,1.933C11.085,35.544,10.433,34.891,9.732,34.186z"/>
	<path fill-rule="evenodd" clip-rule="evenodd" fill="#5E5E5E" d="M50.101,27.896c-0.928,0-1.826,0-2.777,0c0-0.927,0-1.837,0-2.782
		c-0.95,0-1.849,0-2.784,0c0-0.945,0-1.854,0-2.796c1.837,0,3.683,0,5.562,0C50.101,24.158,50.101,26.003,50.101,27.896z"/>
	<path fill-rule="evenodd" clip-rule="evenodd" fill="#5E5E5E" d="M50.117,36.421c0,1.874,0,3.708,0,5.575c-1.859,0-3.703,0-5.581,0
		c0-0.914,0-1.822,0-2.788c0.92,0,1.829,0,2.776,0c0-0.955,0-1.853,0-2.787C48.26,36.421,49.168,36.421,50.117,36.421z"/>
	<path fill-rule="evenodd" clip-rule="evenodd" fill="#5E5E5E" d="M10.676,25.075c0-0.947,0-1.844,0-2.766c1.873,0,3.719,0,5.597,0
		c0,0.922,0,1.832,0,2.766C14.404,25.075,12.558,25.075,10.676,25.075z"/>
	<path fill-rule="evenodd" clip-rule="evenodd" fill="#5E5E5E" d="M36.054,22.312c1.883,0,3.729,0,5.602,0c0,0.921,0,1.818,0,2.752
		c-1.863,0-3.72,0-5.602,0C36.054,24.153,36.054,23.256,36.054,22.312z"/>
	<path fill-rule="evenodd" clip-rule="evenodd" fill="#5E5E5E" d="M16.276,39.237c0,0.926,0,1.823,0,2.757c-1.865,0-3.711,0-5.592,0
		c0-0.914,0-1.823,0-2.757C12.555,39.237,14.402,39.237,16.276,39.237z"/>
	<path fill-rule="evenodd" clip-rule="evenodd" fill="#5E5E5E" d="M36.058,41.994c0-0.939,0-1.837,0-2.756c1.876,0,3.724,0,5.597,0
		c0,0.926,0,1.823,0,2.756C39.792,41.994,37.946,41.994,36.058,41.994z"/>
	<path fill-rule="evenodd" clip-rule="evenodd" fill="#5E5E5E" d="M19.144,25.071c0-0.933,0-1.83,0-2.757c1.863,0,3.708,0,5.583,0
		c0,0.91,0,1.817,0,2.757C22.879,25.071,21.036,25.071,19.144,25.071z"/>
	<path fill-rule="evenodd" clip-rule="evenodd" fill="#5E5E5E" d="M27.592,25.072c0-0.936,0-1.833,0-2.759c1.862,0,3.707,0,5.582,0
		c0,0.914,0,1.822,0,2.759C31.323,25.072,29.478,25.072,27.592,25.072z"/>
	<path fill-rule="evenodd" clip-rule="evenodd" fill="#5E5E5E" d="M19.146,41.99c0-0.923,0-1.821,0-2.751c1.868,0,3.713,0,5.585,0
		c0,0.914,0,1.813,0,2.751C22.892,41.99,21.046,41.99,19.146,41.99z"/>
	<path fill-rule="evenodd" clip-rule="evenodd" fill="#5E5E5E" d="M33.184,39.233c0,0.934,0,1.83,0,2.763c-1.859,0-3.706,0-5.581,0
		c0-0.92,0-1.829,0-2.763C29.458,39.233,31.293,39.233,33.184,39.233z"/>
	<path fill-rule="evenodd" clip-rule="evenodd" fill="#5E5E5E" d="M50.11,30.763c0,0.923,0,1.82,0,2.755c-0.913,0-1.82,0-2.761,0
		c0-0.907,0-1.815,0-2.755C48.271,30.763,49.179,30.763,50.11,30.763z"/>
</g>
</svg>
