<svg xmlns="http://www.w3.org/2000/svg" width="17.251" height="17.109" viewBox="0 0 17.251 17.109">
  <g id="company-icon" transform="translate(-106.5 -232.511)">
    <path id="Path_31" data-name="Path 31" d="M106.75,233.6a1.327,1.327,0,0,1,.379-.613,1.276,1.276,0,0,1,1.085-.2c1.84.286,3.681.563,5.521.844.619.094,1.238.185,1.856.286a1.038,1.038,0,0,1,.933,1.111q0,1.856,0,3.711v.217c.27.056.539.113.809.166,1.745.347,3.49.7,5.236,1.037a1.112,1.112,0,0,1,.932.865v7.459a3.163,3.163,0,0,1-.111.3,1.107,1.107,0,0,1-.773.583H107.633a1.1,1.1,0,0,1-.68-.434,3.856,3.856,0,0,1-.2-.416Zm9.071,15.065v-.211q0-6.672,0-13.345c0-.049,0-.1,0-.147a.337.337,0,0,0-.3-.351c-.176-.034-.354-.061-.532-.087l-7.06-1.061c-.324-.049-.483.086-.483.419q0,7.179,0,14.359c0,.3.133.434.442.435q.744,0,1.488,0c.048,0,.1-.005.163-.009v-.2c0-.954,0-1.908,0-2.862a1.045,1.045,0,0,1,1.114-1.117q.973,0,1.946,0a1.039,1.039,0,0,1,1.127,1.131q0,1.423,0,2.846v.2Zm.713.01h5.773c.388,0,.5-.11.5-.494q0-3.419,0-6.837c0-.351-.077-.444-.414-.511l-4.759-.941c-.362-.072-.724-.14-1.1-.212Zm-3.5-.007v-.146q0-1.455,0-2.909c0-.308-.126-.431-.44-.431h-1.9c-.342,0-.452.109-.452.448q0,1.438,0,2.877c0,.052.007.1.01.161Z" fill="#8f8f8f" stroke="#707070" stroke-width="0.5" fill-rule="evenodd"/>
    <path id="Path_32" data-name="Path 32" d="M155.813,310.362c-.218,0-.435,0-.653,0a.355.355,0,0,1-.4-.342.344.344,0,0,1,.383-.352q.661,0,1.322,0a.347.347,0,0,1,.387.347.353.353,0,0,1-.391.346C156.249,310.364,156.031,310.362,155.813,310.362Z" transform="translate(-45.92 -73.555)" fill="#8f8f8f" stroke="#707070" stroke-width="0.5" fill-rule="evenodd"/>
    <path id="Path_33" data-name="Path 33" d="M155.818,357.671c.223,0,.446,0,.669,0a.344.344,0,0,1,.37.348.349.349,0,0,1-.376.345q-.669,0-1.338,0a.35.35,0,0,1-.378-.343.346.346,0,0,1,.384-.351C155.371,357.668,155.594,357.671,155.818,357.671Z" transform="translate(-45.92 -119.465)" fill="#8f8f8f" stroke="#707070" stroke-width="0.5" fill-rule="evenodd"/>
    <path id="Path_34" data-name="Path 34" d="M155.812,405.666c.229,0,.457,0,.685,0a.341.341,0,0,1,.362.339.346.346,0,0,1-.367.353q-.677.006-1.355,0a.347.347,0,0,1-.37-.351.343.343,0,0,1,.375-.342C155.366,405.663,155.589,405.666,155.812,405.666Z" transform="translate(-45.923 -165.366)" fill="#8f8f8f" stroke="#707070" stroke-width="0.5" fill-rule="evenodd"/>
    <path id="Path_35" data-name="Path 35" d="M155.811,454.343c-.223,0-.446,0-.669,0a.35.35,0,0,1-.377-.344.34.34,0,0,1,.368-.349q.677-.006,1.355,0a.342.342,0,0,1,.369.348.353.353,0,0,1-.377.345h-.669Z" transform="translate(-45.92 -211.254)" fill="#8f8f8f" stroke="#707070" stroke-width="0.5" fill-rule="evenodd"/>
    <path id="Path_36" data-name="Path 36" d="M235.879,310.362c-.218,0-.435,0-.653,0a.344.344,0,0,1-.379-.355.335.335,0,0,1,.376-.339q.661-.005,1.322,0a.349.349,0,1,1,0,.694C236.325,310.364,236.1,310.362,235.879,310.362Z" transform="translate(-122.508 -73.555)" fill="#8f8f8f" stroke="#707070" stroke-width="0.5" fill-rule="evenodd"/>
    <path id="Path_37" data-name="Path 37" d="M235.89,357.67c.223,0,.446,0,.669,0a.347.347,0,1,1,0,.693q-.669,0-1.338,0a.342.342,0,0,1-.375-.342.338.338,0,0,1,.379-.352C235.444,357.667,235.667,357.669,235.89,357.67Z" transform="translate(-122.504 -119.464)" fill="#8f8f8f" stroke="#707070" stroke-width="0.5" fill-rule="evenodd"/>
    <path id="Path_38" data-name="Path 38" d="M235.881,406.346c-.223,0-.446,0-.669,0a.343.343,0,0,1-.371-.346.333.333,0,0,1,.367-.347q.677-.006,1.354,0a.344.344,0,0,1,.368.351.351.351,0,0,1-.38.342C236.327,406.349,236.1,406.346,235.881,406.346Z" transform="translate(-122.503 -165.352)" fill="#8f8f8f" stroke="#707070" stroke-width="0.5" fill-rule="evenodd"/>
    <path id="Path_39" data-name="Path 39" d="M235.881,454.34c-.223,0-.446,0-.669,0a.343.343,0,0,1-.371-.346.333.333,0,0,1,.367-.347q.677-.006,1.354,0a.344.344,0,0,1,.368.351.353.353,0,0,1-.38.342h-.669Z" transform="translate(-122.503 -211.252)" fill="#8f8f8f" stroke="#707070" stroke-width="0.5" fill-rule="evenodd"/>
    <path id="Path_40" data-name="Path 40" d="M379.863,454.34c-.223,0-.446,0-.669,0a.343.343,0,0,1-.372-.346.333.333,0,0,1,.367-.347q.677-.006,1.354,0a.344.344,0,0,1,.368.351.353.353,0,0,1-.38.342h-.669Z" transform="translate(-260.203 -211.252)" fill="#8f8f8f" stroke="#707070" stroke-width="0.5" fill-rule="evenodd"/>
    <path id="Path_41" data-name="Path 41" d="M379.861,502.339c-.218,0-.435,0-.653,0a.343.343,0,0,1-.379-.355.335.335,0,0,1,.375-.339q.661,0,1.322,0a.349.349,0,1,1,0,.694C380.307,502.341,380.084,502.339,379.861,502.339Z" transform="translate(-260.209 -257.156)" fill="#8f8f8f" stroke="#707070" stroke-width="0.5" fill-rule="evenodd"/>
    <path id="Path_42" data-name="Path 42" d="M379.88,549.647c.223,0,.446,0,.669,0a.347.347,0,1,1,0,.692q-.685.006-1.371,0a.337.337,0,0,1-.353-.347.331.331,0,0,1,.353-.344C379.412,549.643,379.646,549.647,379.88,549.647Z" transform="translate(-260.205 -303.065)" fill="#8f8f8f" stroke="#707070" stroke-width="0.5" fill-rule="evenodd"/>
  </g>
</svg>
