<svg xmlns="http://www.w3.org/2000/svg" width="16.38" height="16.394" viewBox="0 0 16.38 16.394">
  <path id="contact-icon" d="M118.358,244.538c-.223-.036-.447-.067-.669-.109a9.592,9.592,0,0,1-2.459-.873,15.9,15.9,0,0,1-3.558-2.357,16.354,16.354,0,0,1-4.809-6.871,5.9,5.9,0,0,1-.362-2.112,2.549,2.549,0,0,1,.721-1.78q.628-.644,1.271-1.274a1.939,1.939,0,0,1,.986-.519h.4a2.352,2.352,0,0,1,1.219.774c.613.63,1.248,1.239,1.847,1.883a1.448,1.448,0,0,1,.007,2.036c-.38.422-.793.815-1.2,1.215a.2.2,0,0,0-.055.273,9.26,9.26,0,0,0,1.644,2.262,11.332,11.332,0,0,0,2.187,1.847c.217.139.452.25.675.38a.128.128,0,0,0,.185-.028q.516-.526,1.041-1.043a1.947,1.947,0,0,1,.709-.489,1.46,1.46,0,0,1,1.6.366c.694.674,1.376,1.36,2.055,2.049a1.528,1.528,0,0,1,.1,2.246c-.467.537-.981,1.036-1.5,1.527a2.244,2.244,0,0,1-1.316.57.7.7,0,0,0-.1.028Zm.31-.8a1.7,1.7,0,0,0,1.268-.45q.7-.674,1.353-1.388a.725.725,0,0,0-.014-1.095c-.7-.715-1.4-1.419-2.117-2.118a.688.688,0,0,0-.946-.048,1.954,1.954,0,0,0-.22.2c-.385.383-.768.769-1.154,1.151a.661.661,0,0,1-.847.138c-.225-.115-.451-.231-.668-.361a11.917,11.917,0,0,1-2.608-2.16,9.6,9.6,0,0,1-1.8-2.563.713.713,0,0,1,.185-.971c.38-.366.759-.733,1.128-1.11a.771.771,0,0,0,.007-1.253l-.022-.022c-.636-.637-1.271-1.275-1.911-1.908a1.286,1.286,0,0,0-.347-.255.758.758,0,0,0-.9.225c-.408.4-.817.793-1.2,1.21a2.185,2.185,0,0,0-.41.63,2.672,2.672,0,0,0-.05,1.588,10.11,10.11,0,0,0,1.129,2.906,16.751,16.751,0,0,0,3.42,4.285,15.31,15.31,0,0,0,4.637,2.91A6.117,6.117,0,0,0,118.669,243.738Z" transform="translate(-106.25 -228.394)" fill="#8f8f8f" stroke="#8f8f8f" stroke-width="0.5" fill-rule="evenodd"/>
</svg>
