<svg xmlns="http://www.w3.org/2000/svg" width="13" height="16.006" viewBox="0 0 13 16.006">
  <g id="delete" transform="translate(0.003 0.001)">
    <path id="Path_18" data-name="Path 18" d="M222.773,154.7a.375.375,0,0,0-.375.375v7.085a.375.375,0,1,0,.75,0v-7.085A.375.375,0,0,0,222.773,154.7Zm0,0" transform="translate(-214.065 -148.906)" fill="#35363a"/>
    <path id="Path_19" data-name="Path 19" d="M104.773,154.7a.375.375,0,0,0-.375.375v7.085a.375.375,0,1,0,.75,0v-7.085A.375.375,0,0,0,104.773,154.7Zm0,0" transform="translate(-100.488 -148.906)" fill="#35363a"/>
    <path id="Path_20" data-name="Path 20" d="M1.061,4.764V14a2.068,2.068,0,0,0,.55,1.426A1.846,1.846,0,0,0,2.95,16h7.092a1.845,1.845,0,0,0,1.339-.579A2.068,2.068,0,0,0,11.932,14V4.764a1.432,1.432,0,0,0-.367-2.816H9.645V1.479A1.472,1.472,0,0,0,8.161,0H4.832A1.472,1.472,0,0,0,3.348,1.479v.469H1.429a1.432,1.432,0,0,0-.367,2.816Zm8.981,10.491H2.95A1.187,1.187,0,0,1,1.811,14V4.8h9.371V14a1.187,1.187,0,0,1-1.139,1.256ZM4.1,1.479A.722.722,0,0,1,4.832.748H8.161a.722.722,0,0,1,.735.731v.469H4.1ZM1.429,2.7H11.564a.675.675,0,1,1,0,1.349H1.429a.675.675,0,1,1,0-1.349Zm0,0" transform="translate(0 0)" fill="#35363a"/>
    <path id="Path_21" data-name="Path 21" d="M163.773,154.7a.375.375,0,0,0-.375.375v7.085a.375.375,0,1,0,.75,0v-7.085A.375.375,0,0,0,163.773,154.7Zm0,0" transform="translate(-157.276 -148.906)" fill="#35363a"/>
  </g>
</svg>
