<?xml version="1.0" encoding="utf-8"?>
<!-- Generator: Adobe Illustrator 16.0.0, SVG Export Plug-In . SVG Version: 6.00 Build 0)  -->
<!DOCTYPE svg PUBLIC "-//W3C//DTD SVG 1.1//EN" "http://www.w3.org/Graphics/SVG/1.1/DTD/svg11.dtd">
<svg version="1.1" id="Layer_1" xmlns="http://www.w3.org/2000/svg" xmlns:xlink="http://www.w3.org/1999/xlink" x="0px" y="0px"
	 width="13px" height="16.006px" viewBox="0 0 13 16.006" enable-background="new 0 0 13 16.006" xml:space="preserve">
<g id="delete" transform="translate(0.003 0.001)">
	<path id="Path_18" fill="#FFFFFF" d="M8.708,5.794c-0.207,0-0.375,0.168-0.375,0.375v7.085c0,0.207,0.168,0.375,0.375,0.375
		s0.375-0.168,0.375-0.375V6.169C9.083,5.962,8.915,5.794,8.708,5.794z"/>
	<path id="Path_19" fill="#FFFFFF" d="M4.285,5.794c-0.207,0-0.375,0.168-0.375,0.375v7.085c0,0.207,0.168,0.375,0.375,0.375
		s0.375-0.168,0.375-0.375V6.169C4.66,5.962,4.492,5.794,4.285,5.794z"/>
	<path id="Path_20" fill="#FFFFFF" d="M1.061,4.764V14c-0.005,0.528,0.191,1.039,0.55,1.426C1.96,15.793,2.444,16,2.95,16h7.092
		c0.507-0.001,0.991-0.21,1.339-0.579c0.358-0.386,0.556-0.895,0.552-1.421V4.764c0.764-0.203,1.219-0.987,1.016-1.752
		c-0.166-0.627-0.734-1.064-1.383-1.064h-1.92V1.479C9.649,0.666,8.993,0.004,8.181,0c-0.007,0-0.014,0-0.02,0H4.832
		C4.019-0.007,3.354,0.647,3.348,1.46c0,0.006,0,0.013,0,0.019v0.469H1.429c-0.791,0-1.432,0.642-1.432,1.433
		C-0.002,4.03,0.435,4.598,1.061,4.764L1.061,4.764z M10.042,15.255H2.95c-0.655-0.025-1.166-0.577-1.14-1.231
		c0-0.008,0-0.016,0.001-0.023V4.8h9.372V14c0.038,0.654-0.461,1.217-1.115,1.255C10.059,15.256,10.052,15.256,10.042,15.255
		L10.042,15.255z M4.1,1.479C4.095,1.08,4.414,0.753,4.813,0.748c0.006,0,0.013,0,0.019,0h3.329c0.398-0.007,0.728,0.31,0.734,0.709
		c0,0.007,0,0.015,0,0.022v0.469H4.1V1.479z M1.429,2.7h10.134c0.373-0.015,0.687,0.276,0.701,0.648
		c0.014,0.373-0.276,0.686-0.648,0.7c-0.018,0.001-0.035,0.001-0.053,0H1.429C1.057,4.063,0.743,3.773,0.728,3.4
		C0.714,3.028,1.004,2.714,1.377,2.7C1.394,2.699,1.412,2.699,1.429,2.7z"/>
	<path id="Path_21" fill="#FFFFFF" d="M6.497,5.794c-0.207,0-0.375,0.168-0.375,0.375v7.085c0,0.207,0.168,0.375,0.375,0.375
		s0.375-0.168,0.375-0.375V6.169C6.872,5.962,6.704,5.794,6.497,5.794z"/>
</g>
</svg>
