<svg xmlns="http://www.w3.org/2000/svg" width="14" height="18.375" viewBox="0 0 14 18.375">
  <g id="document-icon" transform="translate(1504.519 405.457)">
    <path id="Path_340" data-name="Path 340" d="M-1491.921-387.082h-11.2a.131.131,0,0,0-.031-.018,1.622,1.622,0,0,1-1.369-1.763q0-5.649,0-11.3c0-1.219,0-2.439,0-3.658a1.522,1.522,0,0,1,.683-1.329,4.1,4.1,0,0,1,.716-.308h7.9a3.179,3.179,0,0,1,.335.258q2.065,2.058,4.126,4.12a.776.776,0,0,1,.243.59c-.005,1.884,0,3.768,0,5.651q0,3.05,0,6.1a1.612,1.612,0,0,1-1.074,1.561C-1491.7-387.14-1491.813-387.114-1491.921-387.082Zm-3.984-17.3h-6.9c-.442,0-.641.2-.641.65q0,7.464,0,14.928c0,.442.2.643.648.644h10.55c.443,0,.645-.2.645-.647q0-5.535,0-11.07v-.2h-.222c-.825,0-1.651,0-2.476,0a1.593,1.593,0,0,1-1.579-1.346,3.812,3.812,0,0,1-.029-.607C-1495.907-402.805-1495.9-403.581-1495.9-404.38Zm1.077.809c0,.639-.006,1.272,0,1.9a.524.524,0,0,0,.536.515c.609.005,1.218,0,1.826,0a.153.153,0,0,0,.046-.011Z" transform="translate(0 0)" fill="#5a5a5a" fill-rule="evenodd"/>
    <path id="Path_341" data-name="Path 341" d="M-1433.279-246.5c1.058,0,2.115,0,3.173,0a.535.535,0,0,1,.517.774.54.54,0,0,1-.527.3q-1.47,0-2.94,0-1.712,0-3.424,0a.538.538,0,0,1-.539-.751.547.547,0,0,1,.549-.326C-1435.406-246.5-1434.342-246.5-1433.279-246.5Z" transform="translate(-64.223 -151.35)" fill="#5a5a5a" fill-rule="evenodd"/>
    <path id="Path_342" data-name="Path 342" d="M-1433.3-201.5c1.064,0,2.127,0,3.191,0a.536.536,0,0,1,.528.757.54.54,0,0,1-.535.319q-1.3,0-2.6,0-1.883,0-3.765,0a.538.538,0,0,1-.541-.75.546.546,0,0,1,.548-.327C-1435.417-201.5-1434.359-201.5-1433.3-201.5Z" transform="translate(-64.219 -194.192)" fill="#5a5a5a" fill-rule="evenodd"/>
    <path id="Path_343" data-name="Path 343" d="M-1433.3-156.509c1.064,0,2.127,0,3.191,0a.536.536,0,0,1,.527.757.54.54,0,0,1-.535.319q-1.336,0-2.671,0-1.846,0-3.693,0a.538.538,0,0,1-.54-.75.547.547,0,0,1,.548-.327C-1435.415-156.508-1434.358-156.509-1433.3-156.509Z" transform="translate(-64.22 -237.033)" fill="#5a5a5a" fill-rule="evenodd"/>
    <path id="Path_344" data-name="Path 344" d="M-1434.292-111.5h2.061a.548.548,0,0,1,.611.534.546.546,0,0,1-.6.542h-4.175a.546.546,0,0,1-.6-.543.545.545,0,0,1,.595-.533Q-1435.349-111.5-1434.292-111.5Z" transform="translate(-64.286 -279.889)" fill="#5a5a5a" fill-rule="evenodd"/>
  </g>
</svg>
