<svg xmlns="http://www.w3.org/2000/svg" width="14.422" height="9.3" viewBox="0 0 14.422 9.3">
  <path id="down-arrow" d="M232.893,316.344l-2.017-1.73q-2.1-1.8-4.2-3.6a1.027,1.027,0,0,1-.415-.968,1.016,1.016,0,0,1,1.682-.643c.525.433,1.036.884,1.553,1.327q2.775,2.376,5.551,4.751a1,1,0,0,1,.411,1.1,1.282,1.282,0,0,1-.363.574q-3.585,3.093-7.189,6.163a1.025,1.025,0,1,1-1.3-1.581q3.048-2.612,6.1-5.222C232.764,316.463,232.821,316.409,232.893,316.344Z" transform="translate(323.576 -226.203) rotate(90)" fill="#f48634" fill-rule="evenodd"/>
</svg>
