<svg xmlns="http://www.w3.org/2000/svg" width="12.999" height="13.015" viewBox="0 0 12.999 13.015">
  <g id="edit" transform="translate(-9.013 0)">
    <g id="Group_9" data-name="Group 9" transform="translate(9.013 0)">
      <g id="Group_8" data-name="Group 8" transform="translate(0 0)">
        <path id="Path_22" data-name="Path 22" d="M26.416,13.015H26.5l4.243-.923a.418.418,0,0,0,.22-.11l7.189-7.189a2.77,2.77,0,0,0,.813-1.979,2.858,2.858,0,0,0-.813-2A2.77,2.77,0,0,0,36.177,0,2.7,2.7,0,0,0,34.2.836L27.031,8.025a.4.4,0,0,0-.132.2l-.923,4.243a.484.484,0,0,0,.132.418A.44.44,0,0,0,26.416,13.015ZM36.177.88A1.913,1.913,0,0,1,38.09,2.793q0,.011,0,.022a1.847,1.847,0,0,1-.55,1.341l-2.7-2.726A1.891,1.891,0,0,1,36.177.88ZM34.22,2.067l2.7,2.7-6.266,6.244-2.7-2.682ZM27.6,9.212l2.176,2.176L26.987,12Z" transform="translate(-25.97 0)" fill="#35363a"/>
      </g>
    </g>
  </g>
</svg>
