<svg xmlns="http://www.w3.org/2000/svg" width="14.388" height="10.794" viewBox="0 0 14.388 10.794">
  <path id="email-icon" d="M-1223.139,37.744V46.23c-.006.007-.016.013-.018.021a1.353,1.353,0,0,1-1.467,1.132h-10.548c-.342,0-.684,0-1.025,0a1.351,1.351,0,0,1-1.262-.926c-.025-.074-.046-.15-.068-.225V37.744c.006-.007.015-.013.017-.021a1.355,1.355,0,0,1,1.467-1.131h10.338c.417,0,.833,0,1.25,0a1.347,1.347,0,0,1,1.252.939C-1223.18,37.6-1223.16,37.673-1223.139,37.744Zm-.9.735-.132.111-5.808,5.032a.462.462,0,0,1-.709,0l-5.829-5.05c-.03-.026-.062-.049-.112-.087v7.438c0,.4.159.56.561.56h11.465c.4,0,.563-.157.563-.558V38.479Zm-12.28-.972-.013.035,6,5.2,6-5.2-.014-.032Z" transform="translate(1237.527 -36.59)" fill="#5a5a5a" fill-rule="evenodd"/>
</svg>
