<svg xmlns="http://www.w3.org/2000/svg" width="23.167" height="23.167" viewBox="0 0 23.167 23.167">
  <g id="emi-group" transform="translate(2260.25 261.36)">
    <path id="Path_325" data-name="Path 325" d="M-2260.25-245.116c.029-.067.06-.134.086-.2a1.278,1.278,0,0,1,1.181-.836c.784-.008,1.568-.006,2.352,0a1.31,1.31,0,0,1,.91.395.276.276,0,0,0,.224.054c.187-.051.367-.129.552-.2-.1-.412-.221-.807-.289-1.212a7.737,7.737,0,0,1,2.066-6.915c.981-1.042,2.016-2.035,3.034-3.042a.3.3,0,0,0,.088-.368c-.291-.807-.572-1.618-.851-2.429a.8.8,0,0,1,.419-1.06.784.784,0,0,1,.848.118c.329.259.505.258.811-.023a2.534,2.534,0,0,1,1.057-.525h.588a2.536,2.536,0,0,1,1.2.625.472.472,0,0,0,.622-.016,1.278,1.278,0,0,1,.5-.24A.8.8,0,0,1-2244-259.9c-.274.821-.561,1.637-.852,2.452a.3.3,0,0,0,.082.371q1.185,1.165,2.351,2.351a.588.588,0,0,1,.2.358.668.668,0,0,1-.207.414.383.383,0,0,1-.484-.006,1.27,1.27,0,0,1-.183-.168c-.811-.81-1.623-1.618-2.429-2.433a.476.476,0,0,0-.375-.154q-1.549.009-3.1,0a.477.477,0,0,0-.377.151c-1.046,1.055-2.128,2.074-3.14,3.161a6.853,6.853,0,0,0-1.626,6.974c.018.063.048.123.073.185.365-.107.712-.231,1.07-.31a5.734,5.734,0,0,1,3.787.45q1.518.724,3.035,1.453a1.743,1.743,0,0,1,1.079,1.875c0,.037-.007.073-.019.189.284-.213.533-.375.755-.569.98-.86,1.923-1.765,2.938-2.582a2.494,2.494,0,0,0,.908-1.728,7.391,7.391,0,0,0-.29-3.368.436.436,0,0,1,.282-.579.449.449,0,0,1,.574.3c.005.014.009.029.014.043a7.9,7.9,0,0,1,.334,3.569c-.006.045-.011.09-.013.135a.18.18,0,0,0,.019.053,1.766,1.766,0,0,1,1.166-.134,1.709,1.709,0,0,1,1.288,1.236c.02.064.039.129.058.193v.543a2.264,2.264,0,0,1-.587,1.02q-2.181,2.105-4.351,4.222a7,7,0,0,1-3.3,1.832c-.387.092-.783.142-1.176.211h-12.715c-.153-.073-.313-.133-.458-.22a1.47,1.47,0,0,1-.583-.82Zm4.873,6.008c.034,0,.092.01.151.01,2.767,0,5.534.011,8.3-.006a5.907,5.907,0,0,0,3.9-1.454c.555-.475,1.066-1,1.591-1.509q1.568-1.518,3.132-3.041a.847.847,0,0,0,.3-.809.827.827,0,0,0-1.409-.418q-2.209,1.958-4.416,3.918a4.168,4.168,0,0,1-1.431.845,3.452,3.452,0,0,1-2.191.162c-.919-.288-1.836-.583-2.754-.876-.452-.144-.9-.284-1.354-.434a.438.438,0,0,1-.33-.5.424.424,0,0,1,.386-.381.851.851,0,0,1,.307.051c1.364.43,2.726.866,4.09,1.294a.827.827,0,0,0,1.064-.472.827.827,0,0,0-.451-1.073c-1.085-.523-2.169-1.048-3.261-1.556a4.691,4.691,0,0,0-2.49-.406,16.934,16.934,0,0,0-3.133.973Zm-.891-3.044q0-1.312,0-2.623c0-.329-.142-.475-.463-.476q-1.074,0-2.148,0c-.323,0-.464.145-.464.474q0,2.6,0,5.2c0,.338.142.476.485.477q1.051,0,2.1,0c.351,0,.487-.14.487-.5Q-2256.267-240.874-2256.268-242.152Zm6.316-17.753c.263.754.508,1.464.763,2.17a.237.237,0,0,0,.184.11q1.549.01,3.1,0a.274.274,0,0,0,.206-.14c.246-.679.479-1.363.714-2.046a.346.346,0,0,0,.007-.082,1.419,1.419,0,0,1-1.72-.272,1.106,1.106,0,0,0-1.5,0A1.461,1.461,0,0,1-2249.952-259.9Z" fill="#8f8f8f" fill-rule="evenodd"/>
    <path id="Path_326" data-name="Path 326" d="M-2072.988-117.205c-.006-.378.154-.575.407-.6a.464.464,0,0,1,.492.428.6.6,0,0,0,.882.455.466.466,0,0,0,.3-.438.457.457,0,0,0-.313-.43,1.007,1.007,0,0,0-.329-.063,1.487,1.487,0,0,1-1.428-1.166,1.4,1.4,0,0,1,.893-1.536.289.289,0,0,0,.136-.167.468.468,0,0,1,.438-.388.433.433,0,0,1,.45.365.255.255,0,0,0,.186.216,1.382,1.382,0,0,1,.849,1.015,1.034,1.034,0,0,1,.024.2.458.458,0,0,1-.41.505.435.435,0,0,1-.484-.428.611.611,0,0,0-.929-.435.453.453,0,0,0-.263.417.429.429,0,0,0,.271.409,1.075,1.075,0,0,0,.369.085,1.482,1.482,0,0,1,1.427,1.167,1.4,1.4,0,0,1-.891,1.535.3.3,0,0,0-.135.17.474.474,0,0,1-.464.387.48.48,0,0,1-.44-.387.356.356,0,0,0-.175-.188A1.387,1.387,0,0,1-2072.988-117.205Z" transform="translate(-175.954 -131.789)" fill="#8f8f8f" fill-rule="evenodd"/>
    <path id="Path_327" data-name="Path 327" d="M-1953.621-126.662a.446.446,0,0,1,.45-.442.461.461,0,0,1,.449.449.461.461,0,0,1-.467.453A.447.447,0,0,1-1953.621-126.662Z" transform="translate(-288.127 -126.156)" fill="#8f8f8f" fill-rule="evenodd"/>
  </g>
</svg>
