<svg xmlns="http://www.w3.org/2000/svg" width="23.159" height="19.904" viewBox="0 0 23.159 19.904">
  <path id="engine-icon" d="M-447.226,243.952a2.451,2.451,0,0,1,.715-1.016c1.146-1.135,2.283-2.279,3.423-3.419a1.366,1.366,0,0,1,2.106,0q2.311,2.309,4.62,4.62a.921.921,0,0,1,0,1.443c-.249.252-.493.509-.754.748a4.21,4.21,0,0,1-.474.328l1.936,1.849,1.935-1.848a4.111,4.111,0,0,1-.474-.328c-.277-.255-.539-.527-.8-.8a.9.9,0,0,1,0-1.345q2.363-2.369,4.733-4.731a1.341,1.341,0,0,1,1.976,0q1.9,1.889,3.788,3.789a1.336,1.336,0,0,1,.006,1.943q-2.373,2.391-4.763,4.765a.894.894,0,0,1-1.329-.008c-.275-.269-.552-.536-.812-.818a3.765,3.765,0,0,1-.314-.459l-1.8,1.886.827.788c.861.822,1.719,1.648,2.586,2.464a.549.549,0,0,0,.331.137,2.5,2.5,0,0,1,2.424,2.373,2.493,2.493,0,0,1-2.257,2.595,2.486,2.486,0,0,1-2.677-2.074.365.365,0,0,1-.02-.111c.067-.373-.169-.591-.4-.827-.937-.971-1.866-1.949-2.8-2.925-.051-.054-.1-.111-.125-.141-.176.157-.343.287-.488.438q-1.387,1.442-2.762,2.9a.549.549,0,0,0-.135.332,2.5,2.5,0,0,1-2.376,2.418,2.5,2.5,0,0,1-2.594-2.283,2.486,2.486,0,0,1,2.082-2.65.252.252,0,0,1,.067-.01,1.075,1.075,0,0,0,.9-.439c.956-.93,1.926-1.846,2.891-2.766.07-.067.15-.123.24-.2l-1.818-1.9a4.579,4.579,0,0,1-.344.488c-.25.272-.516.529-.781.785a.9.9,0,0,1-1.346,0c-1.579-1.575-3.161-3.148-4.726-4.738a3.421,3.421,0,0,1-.433-.751Zm6.479,4.723a2.125,2.125,0,0,1,.226-2.766,2.468,2.468,0,0,1,1.271-.776,2.065,2.065,0,0,1,1.636.359l.641-.618-2.548-2.555c-.227.235-.464.488-.709.732a.456.456,0,0,1-.679.051.467.467,0,0,1,.051-.7c.244-.244.494-.482.716-.7l-.6-.622-4.436,4.438.585.6c.056-.052.11-.1.162-.153.208-.207.412-.42.625-.621a.453.453,0,0,1,.648-.006.445.445,0,0,1,0,.631c-.059.068-.125.13-.19.194l-.565.553,2.544,2.545Zm7.048-3.187a2.13,2.13,0,0,1,2.832.33,2.125,2.125,0,0,1,.335,2.821l.632.645,2.5-2.5-4.415-4.416-2.5,2.5Zm2.708,8.715-8.452-8.071-.677.679,8.071,8.451a7.047,7.047,0,0,1,.47-.576A7.518,7.518,0,0,1-430.991,254.2Zm-8.91,2.233a1.58,1.58,0,0,0-1.577-1.585,1.585,1.585,0,0,0-1.587,1.577,1.586,1.586,0,0,0,1.579,1.585A1.581,1.581,0,0,0-439.9,256.435Zm8.5,0a1.582,1.582,0,0,0,1.583,1.58,1.586,1.586,0,0,0,1.581-1.584,1.584,1.584,0,0,0-1.585-1.579A1.581,1.581,0,0,0-431.4,256.434Zm-5.827-5.173-3.048,2.911,1.055,1.057,2.967-3.107Zm11.114-5.736-4.436-4.431-.57.552,4.425,4.423Zm-19.8-.717,4.468-4.467c-.016-.017-.05-.056-.087-.093-.421-.428-.582-.43-1-.008-1.135,1.135-2.259,2.28-3.408,3.4C-446.5,244.184-446.4,244.39-445.909,244.807Zm16.051-4.464,4.468,4.471c.024-.023.068-.064.111-.106.407-.4.409-.571.009-.972l-3.435-3.436c-.507-.507-.661-.5-1.145.029C-429.86,240.34-429.865,240.355-429.858,240.343Zm-5.06,8.712.758.875,3.019-3.161-.677-.675Z" transform="translate(447.226 -239.019)" fill="#8f8f8f" fill-rule="evenodd"/>
</svg>
