<svg xmlns="http://www.w3.org/2000/svg" width="27.621" height="20.875" viewBox="0 0 27.621 20.875">
  <g id="fitness-icon" transform="translate(565.4 -170.12)">
    <path id="Path_299" data-name="Path 299" d="M-465.6,181.277c-.091.551-.154,1.107-.276,1.651a10.291,10.291,0,0,1-8.814,7.854,10.339,10.339,0,0,1-5.044-.685,1.207,1.207,0,0,0-.439-.076q-3.308-.007-6.616,0a1.142,1.142,0,0,1-.316-.03.358.358,0,0,1-.271-.406.362.362,0,0,1,.335-.355,1.967,1.967,0,0,1,.293-.008h5.29c-.315-.238-.588-.427-.841-.64a10.1,10.1,0,0,1-3.8-8.843,9.847,9.847,0,0,1,1.5-4.561,1.431,1.431,0,0,1,.118-.178.373.373,0,0,1,.522-.1.38.38,0,0,1,.148.513,1.866,1.866,0,0,1-.15.252,9.486,9.486,0,0,0,6.573,14.265,9.473,9.473,0,0,0,10.8-7.486,9.458,9.458,0,0,0-7.171-11.077,9.283,9.283,0,0,0-9.013,2.735c-.05.051-.1.1-.152.15a.382.382,0,0,1-.533,0,.37.37,0,0,1-.035-.548,10.217,10.217,0,0,1,.814-.806c.366-.318.756-.608,1.185-.95h-5.264a1.9,1.9,0,0,1-.293-.009.362.362,0,0,1-.334-.356.358.358,0,0,1,.272-.405,1.143,1.143,0,0,1,.316-.029c2.206,0,4.411,0,6.616-.005a1.369,1.369,0,0,0,.489-.093,10.272,10.272,0,0,1,13.9,7.631c.077.4.12.805.179,1.208Z" transform="translate(-72.331 0)" fill="#8f8f8f" stroke="#707070" stroke-width="0.3" fill-rule="evenodd"/>
    <path id="Path_300" data-name="Path 300" d="M-565.25,289.515a.627.627,0,0,1,.572-.257c1.243.008,2.487,0,3.73,0a1.024,1.024,0,0,1,.314.036.357.357,0,0,1,.253.416.359.359,0,0,1-.323.337,1.119,1.119,0,0,1-.186.009c-1.279,0-2.558,0-3.837,0a.523.523,0,0,1-.525-.284Z" transform="translate(0 -110.479)" fill="#8f8f8f" stroke="#707070" stroke-width="0.3" fill-rule="evenodd"/>
    <path id="Path_301" data-name="Path 301" d="M-565.25,328.915a.508.508,0,0,1,.5-.283c1.3.007,2.593,0,3.89,0,.357,0,.555.213.472.5-.073.253-.275.3-.5.3q-1.492,0-2.984,0c-.266,0-.534-.01-.8,0a.609.609,0,0,1-.573-.257Z" transform="translate(0 -147.051)" fill="#8f8f8f" stroke="#707070" stroke-width="0.3" fill-rule="evenodd"/>
    <path id="Path_302" data-name="Path 302" d="M-429.953,218.561a7.989,7.989,0,0,1-7.878-6.916,8,8,0,0,1,6.5-8.913,7.971,7.971,0,0,1,9.261,6.435c.055.287.083.581.109.873a.41.41,0,0,1-.362.475.4.4,0,0,1-.43-.407,6.931,6.931,0,0,0-1.691-4.148,6.863,6.863,0,0,0-7.362-2.281,6.8,6.8,0,0,0-5.18,5.732,7.135,7.135,0,0,0,5.89,8.255,7.2,7.2,0,0,0,8.249-5.855.585.585,0,0,1,.142-.357.6.6,0,0,1,.432-.091.329.329,0,0,1,.231.425,14.454,14.454,0,0,1-.443,1.669A7.972,7.972,0,0,1-429.953,218.561Z" transform="translate(-118.279 -29.999)" fill="#8f8f8f" stroke="#707070" stroke-width="0.3" fill-rule="evenodd"/>
    <path id="Path_303" data-name="Path 303" d="M-330.482,264.984h1.036c.1,0,.2,0,.293,0a.4.4,0,0,1,.423.388.4.4,0,0,1-.41.4q-.866.018-1.732,0a.384.384,0,0,1-.409-.428q-.007-1.652,0-3.305a.4.4,0,0,1,.406-.434.407.407,0,0,1,.39.45c0,.862,0,1.724,0,2.585Z" transform="translate(-217.318 -84.798)" fill="#8f8f8f" stroke="#707070" stroke-width="0.3" fill-rule="evenodd"/>
    <path id="Path_304" data-name="Path 304" d="M-539.224,224.012c-.667,0-1.333,0-2,0-.309,0-.493-.157-.487-.4s.188-.393.478-.394q2.026,0,4.053,0c.309,0,.486.159.481.411s-.173.386-.5.387C-537.873,224.013-538.549,224.012-539.224,224.012Z" transform="translate(-21.864 -49.132)" fill="#8f8f8f" stroke="#707070" stroke-width="0.3" fill-rule="evenodd"/>
    <path id="Path_305" data-name="Path 305" d="M-539.194,394.757c.676,0,1.351,0,2.027,0,.314,0,.487.15.482.4s-.179.393-.473.394q-2.027,0-4.053,0c-.3,0-.491-.167-.486-.412s.18-.385.477-.386C-540.545,394.755-539.87,394.757-539.194,394.757Z" transform="translate(-21.876 -208.47)" fill="#8f8f8f" stroke="#707070" stroke-width="0.3" fill-rule="evenodd"/>
    <path id="Path_306" data-name="Path 306" d="M-506.552,262.319c-.266,0-.532.006-.8,0a.383.383,0,0,1-.417-.386.385.385,0,0,1,.4-.406q.824-.017,1.649,0a.4.4,0,0,1,.41.4.4.4,0,0,1-.42.388C-506,262.326-506.277,262.319-506.552,262.319Z" transform="translate(-53.392 -84.713)" fill="#8f8f8f" stroke="#707070" stroke-width="0.3" fill-rule="evenodd"/>
    <path id="Path_307" data-name="Path 307" d="M-506.547,356.417c.275,0,.55-.007.824,0a.4.4,0,0,1,.415.394.394.394,0,0,1-.389.4c-.567.012-1.135.013-1.7,0a.375.375,0,0,1-.369-.408.375.375,0,0,1,.4-.378C-507.1,356.409-506.822,356.417-506.547,356.417Z" transform="translate(-53.391 -172.857)" fill="#8f8f8f" stroke="#707070" stroke-width="0.3" fill-rule="evenodd"/>
    <path id="Path_308" data-name="Path 308" d="M-330.543,227.9c0,.106.008.213,0,.319a.393.393,0,0,1-.4.378.379.379,0,0,1-.387-.365,4.664,4.664,0,0,1,0-.663.393.393,0,0,1,.4-.379.4.4,0,0,1,.39.392C-330.536,227.683-330.542,227.79-330.543,227.9Z" transform="translate(-217.26 -52.823)" fill="#8f8f8f" stroke="#707070" stroke-width="0.3" fill-rule="evenodd"/>
    <path id="Path_309" data-name="Path 309" d="M-388.307,250.569a1.522,1.522,0,0,1,.3.154,5.026,5.026,0,0,1,.45.45.38.38,0,0,1-.011.549.394.394,0,0,1-.551.005,2.63,2.63,0,0,1-.459-.476.506.506,0,0,1-.042-.411C-388.576,250.725-388.416,250.657-388.307,250.569Z" transform="translate(-164.035 -74.543)" fill="#8f8f8f" stroke="#707070" stroke-width="0.3" fill-rule="evenodd"/>
    <path id="Path_310" data-name="Path 310" d="M-279.1,252.746a.383.383,0,0,1-.346-.586,2.5,2.5,0,0,1,.582-.572.454.454,0,0,1,.427.042c.1.079.176.335.121.408a5.911,5.911,0,0,1-.675.69C-279.011,252.752-279.07,252.742-279.1,252.746Z" transform="translate(-265.41 -75.456)" fill="#8f8f8f" stroke="#707070" stroke-width="0.3" fill-rule="evenodd"/>
    <path id="Path_311" data-name="Path 311" d="M-387.92,361.574a1.31,1.31,0,0,1-.138.282,5.012,5.012,0,0,1-.488.486.361.361,0,0,1-.526-.031.362.362,0,0,1-.02-.527,2.643,2.643,0,0,1,.492-.48.507.507,0,0,1,.414-.042C-388.072,361.309-388,361.469-387.92,361.574Z" transform="translate(-163.526 -177.335)" fill="#8f8f8f" stroke="#707070" stroke-width="0.3" fill-rule="evenodd"/>
    <path id="Path_312" data-name="Path 312" d="M-277.831,361.942a.385.385,0,0,1-.581.363,2.432,2.432,0,0,1-.574-.58.442.442,0,0,1,.032-.424c.09-.1.35-.18.43-.123a5.178,5.178,0,0,1,.672.659C-277.826,361.863-277.834,361.921-277.831,361.942Z" transform="translate(-265.858 -177.264)" fill="#8f8f8f" stroke="#707070" stroke-width="0.3" fill-rule="evenodd"/>
    <path id="Path_313" data-name="Path 313" d="M-331.276,382.994a2.506,2.506,0,0,1,0-.345.375.375,0,0,1,.4-.354.367.367,0,0,1,.391.357,4.777,4.777,0,0,1,0,.664.4.4,0,0,1-.4.385.4.4,0,0,1-.4-.388c-.009-.106,0-.212,0-.319Z" transform="translate(-217.321 -196.896)" fill="#8f8f8f" stroke="#707070" stroke-width="0.3" fill-rule="evenodd"/>
    <path id="Path_314" data-name="Path 314" d="M-412.3,309.831a3.108,3.108,0,0,1-.368-.028.36.36,0,0,1-.317-.394.35.35,0,0,1,.339-.373,4.746,4.746,0,0,1,.714,0,.347.347,0,0,1,.34.37.356.356,0,0,1-.311.4A3.3,3.3,0,0,1-412.3,309.831Z" transform="translate(-141.426 -128.837)" fill="#8f8f8f" stroke="#707070" stroke-width="0.3" fill-rule="evenodd"/>
    <path id="Path_315" data-name="Path 315" d="M-257.183,309.084a2.773,2.773,0,0,1,.37,0,.353.353,0,0,1,.327.357.344.344,0,0,1-.3.4,3.685,3.685,0,0,1-.765.006.348.348,0,0,1-.326-.408.356.356,0,0,1,.351-.362,3.3,3.3,0,0,1,.344,0Z" transform="translate(-285.499 -128.888)" fill="#8f8f8f" stroke="#707070" stroke-width="0.3" fill-rule="evenodd"/>
  </g>
</svg>
