<svg xmlns="http://www.w3.org/2000/svg" width="24" height="18.458" viewBox="0 0 24 18.458">
  <g id="Group_4" data-name="Group 4" transform="translate(-17.208 -201)">
    <g id="Icon_awesome-user-check" data-name="Icon awesome-user-check" transform="translate(17.208 201)" fill="none">
      <path d="M8.075,9.229A4.614,4.614,0,1,0,3.461,4.614,4.614,4.614,0,0,0,8.075,9.229Zm3.23,1.154h-.6a6.275,6.275,0,0,1-5.256,0h-.6A4.846,4.846,0,0,0,0,15.228v1.5a1.731,1.731,0,0,0,1.73,1.73H14.42a1.731,1.731,0,0,0,1.73-1.73v-1.5A4.846,4.846,0,0,0,11.305,10.383Z" stroke="none"/>
      <path d="M 8.075290679931641 1.000001907348633 C 6.082281112670898 1.000001907348633 4.460840225219727 2.621442794799805 4.460840225219727 4.614452362060547 C 4.460840225219727 6.607462882995605 6.082281112670898 8.228902816772461 8.075290679931641 8.228902816772461 C 10.06830024719238 8.228902816772461 11.68974113464355 6.607462882995605 11.68974113464355 4.614452362060547 C 11.68974113464355 2.621442794799805 10.06830024719238 1.000001907348633 8.075290679931641 1.000001907348633 M 4.845170974731445 11.38251304626465 C 2.724940299987793 11.38251304626465 1.000000953674316 13.10745239257813 1.000000953674316 15.22769260406494 L 1.000000953674316 16.72739219665527 C 1.000000953674316 17.13014221191406 1.327671051025391 17.45780181884766 1.73042106628418 17.45780181884766 L 14.4201602935791 17.45780181884766 C 14.82291030883789 17.45780181884766 15.15058040618896 17.13014221191406 15.15058040618896 16.72739219665527 L 15.15058040618896 15.22769260406494 C 15.15058040618896 13.10745239257813 13.42564010620117 11.38251304626465 11.30540084838867 11.38251304626465 L 10.91396713256836 11.38251304626465 C 10.00995922088623 11.7653865814209 9.056129455566406 11.95932292938232 8.075290679931641 11.95932292938232 C 7.097970008850098 11.95932292938232 6.144362449645996 11.765380859375 5.237358093261719 11.38251304626465 L 4.845170974731445 11.38251304626465 M 8.075290679931641 1.9073486328125e-06 C 10.62405014038086 1.9073486328125e-06 12.68974113464355 2.065692901611328 12.68974113464355 4.614452362060547 C 12.68974113464355 7.163212776184082 10.62405014038086 9.228902816772461 8.075290679931641 9.228902816772461 C 5.526530265808105 9.228902816772461 3.460840225219727 7.163212776184082 3.460840225219727 4.614452362060547 C 3.460840225219727 2.065692901611328 5.526530265808105 1.9073486328125e-06 8.075290679931641 1.9073486328125e-06 Z M 4.845170974731445 10.38251304626465 L 5.447220802307129 10.38251304626465 C 6.251140594482422 10.7502326965332 7.137980461120605 10.95932292938232 8.075290679931641 10.95932292938232 C 9.012600898742676 10.95932292938232 9.903040885925293 10.7502326965332 10.70336055755615 10.38251304626465 L 11.30540084838867 10.38251304626465 C 13.98035049438477 10.38251304626465 16.15058135986328 12.55275344848633 16.15058135986328 15.22769260406494 L 16.15058135986328 16.72739219665527 C 16.15058135986328 17.6827220916748 15.37550067901611 18.45780372619629 14.4201602935791 18.45780372619629 L 1.73042106628418 18.45780372619629 C 0.775080680847168 18.45780372619629 0 17.6827220916748 0 16.72739219665527 L 0 15.22769260406494 C 0 12.55275344848633 2.170230865478516 10.38251304626465 4.845170974731445 10.38251304626465 Z" stroke="none" fill="#fff"/>
    </g>
    <g id="Component_1_1" data-name="Component 1 – 1" transform="translate(31.528 203.904)">
      <rect id="Rectangle_19" data-name="Rectangle 19" width="9.681" height="1.936" rx="0.968" transform="translate(0 3.872)" fill="#fff"/>
      <rect id="Rectangle_20" data-name="Rectangle 20" width="9.681" height="1.936" rx="0.968" transform="translate(5.808 0) rotate(90)" fill="#fff"/>
    </g>
  </g>
</svg>
