<svg xmlns="http://www.w3.org/2000/svg" width="23.436" height="21.97" viewBox="0 0 23.436 21.97">
  <g id="home" transform="translate(0 -16.017)">
    <path id="Path_3" data-name="Path 3" d="M57.668,205.879H42.106A2.108,2.108,0,0,1,40,203.773V192.7a.732.732,0,0,1,1.465,0v11.078a.642.642,0,0,0,.641.641H57.668a.642.642,0,0,0,.641-.641V192.7a.732.732,0,0,1,1.465,0v11.078A2.108,2.108,0,0,1,57.668,205.879Z" transform="translate(-38.169 -167.892)" fill="#f48634"/>
    <path id="Path_4" data-name="Path 4" d="M22.7,27.366a.73.73,0,0,1-.518-.215l-9.108-9.108a1.925,1.925,0,0,0-2.719,0L1.25,27.152A.732.732,0,0,1,.215,26.116l9.108-9.108a3.391,3.391,0,0,1,4.79,0l9.108,9.108a.732.732,0,0,1-.518,1.25Z" transform="translate(0)" fill="#f48634"/>
    <path id="Path_5" data-name="Path 5" d="M182.591,297.5h-5.859a.732.732,0,0,1-.732-.732v-6.5a2.291,2.291,0,0,1,2.289-2.289h2.746a2.291,2.291,0,0,1,2.289,2.289v6.5A.732.732,0,0,1,182.591,297.5Zm-5.127-1.465h4.394v-5.767a.825.825,0,0,0-.824-.824h-2.746a.825.825,0,0,0-.824.824Z" transform="translate(-167.944 -259.517)" fill="#f48634"/>
  </g>
</svg>
