<svg xmlns="http://www.w3.org/2000/svg" width="23.436" height="21.97" viewBox="0 0 23.436 21.97">
    <path data-name="Path 331" d="m934.167-216 6-7s2.667-3.333 6.167 1c0-.167 6 6 6 6v9.667s-.333 3.167-3 2.667c.333-.333-13.5 0-13.5 0s-2 .667-1.667-2.667z" transform="translate(-931 225)" style="fill:#f48634"/>
    <path data-name="Path 3" d="M57.668 205.879H42.106A2.108 2.108 0 0 1 40 203.773V192.7a.732.732 0 0 1 1.465 0v11.078a.642.642 0 0 0 .641.641h15.562a.642.642 0 0 0 .641-.641V192.7a.732.732 0 0 1 1.465 0v11.078a2.108 2.108 0 0 1-2.106 2.101z" transform="translate(-38.169 -183.909)" style="fill:#fff"/>
    <path data-name="Path 4" d="M22.7 27.366a.73.73 0 0 1-.518-.215l-9.108-9.108a1.925 1.925 0 0 0-2.719 0L1.25 27.152a.732.732 0 0 1-1.035-1.036l9.108-9.108a3.391 3.391 0 0 1 4.79 0l9.108 9.108a.732.732 0 0 1-.518 1.25z" transform="translate(0 -16.017)" style="fill:#fff"/>
    <path data-name="Path 5" d="M182.591 297.5h-5.859a.732.732 0 0 1-.732-.732v-6.5a2.291 2.291 0 0 1 2.289-2.289h2.746a2.291 2.291 0 0 1 2.289 2.289v6.5a.732.732 0 0 1-.733.732zm-5.127-1.465h4.394v-5.767a.825.825 0 0 0-.824-.824h-2.746a.825.825 0 0 0-.824.824z" transform="translate(-167.944 -275.534)" style="fill:#fff"/>
</svg>
