<svg xmlns="http://www.w3.org/2000/svg" width="25.273" height="23.712" viewBox="0 0 25.273 23.712">
  <g id="insurance-icon" transform="translate(644.977 -504.68)">
    <path id="Path_316" data-name="Path 316" d="M-644.977,522.2a2.823,2.823,0,0,1,.512-1.182,2.531,2.531,0,0,1,1.362-.836c1.149-.31,2.3-.621,3.444-.944a.719.719,0,0,0,.35-.234q1.038-1.333,2.053-2.683a3,3,0,0,1,2.547-1.258c1.225.006,2.451,0,3.676,0h.334c-.036-.11-.058-.192-.09-.269a7.774,7.774,0,0,1-.565-2.983c0-1.242,0-2.484,0-3.726a.708.708,0,0,1,.414-.69q2.381-1.295,4.754-2.607a.757.757,0,0,1,.79,0q2.454,1.315,4.916,2.616a.743.743,0,0,1,.437.731c-.01,1.16,0,2.319,0,3.479a7.667,7.667,0,0,1-3.448,6.6c-.034.023-.066.048-.1.073a.33.33,0,0,0-.033.048c.172.277.347.571.536.855a.482.482,0,0,0,.2.129c.552.254,1.1.511,1.66.754a2.366,2.366,0,0,1,1.485,1.773.709.709,0,0,0,.043.113v2.221a.7.7,0,0,0-.041.112,2.213,2.213,0,0,1-1.587,1.833,7.929,7.929,0,0,1-1.283.183c-.012.033-.038.1-.063.172a2.909,2.909,0,0,1-2.755,1.91,2.874,2.874,0,0,1-2.715-1.922.275.275,0,0,0-.318-.215q-4.021.007-8.042,0a.279.279,0,0,0-.319.216,2.9,2.9,0,0,1-4.262,1.491,2.954,2.954,0,0,1-1.286-1.7c-.078,0-.151,0-.224,0a2.372,2.372,0,0,1-1.9-.934,2.87,2.87,0,0,1-.48-1.142Zm20.308-3.338a7.356,7.356,0,0,1-.811.335,1.011,1.011,0,0,1-.591.023,8.035,8.035,0,0,1-3.809-2.816.4.4,0,0,0-.366-.185c-1.489.007-2.978.01-4.466,0a1.9,1.9,0,0,0-1.627.811c-.7.927-1.414,1.838-2.106,2.768a1.356,1.356,0,0,1-.792.533c-1.208.315-2.41.651-3.613.981a1.149,1.149,0,0,0-.958,1.129c-.019.509-.022,1.021.006,1.529a1.145,1.145,0,0,0,1.132,1.113c.16.012.214-.039.271-.2a4.333,4.333,0,0,1,.5-1.137,2.755,2.755,0,0,1,2.928-1.134,2.786,2.786,0,0,1,2.252,2.22c.044.179.094.255.3.254q3.936-.011,7.872,0c.2,0,.263-.074.3-.254a2.9,2.9,0,0,1,2.787-2.291,2.9,2.9,0,0,1,2.875,2.243c.055.252.152.331.385.3.057-.008.115,0,.172-.005a1.13,1.13,0,0,0,1.145-1.1c.043-.523.02-1.051.028-1.577a1.265,1.265,0,0,0-.824-1.275c-.632-.277-1.264-.555-1.883-.858a1.345,1.345,0,0,1-.469-.408C-624.261,519.555-624.453,519.21-624.669,518.864Zm3.518-8.44-.062,0c0-.633,0-1.267,0-1.9a.279.279,0,0,0-.172-.287c-1.409-.746-2.812-1.5-4.223-2.242a.407.407,0,0,0-.33,0c-1.366.739-2.724,1.491-4.089,2.233a.3.3,0,0,0-.178.309c.006,1.078-.017,2.156.007,3.233a6.535,6.535,0,0,0,3.831,6.077,1.124,1.124,0,0,0,1.076.028,6.425,6.425,0,0,0,3.909-4.725A21.167,21.167,0,0,0-621.151,510.424Zm-4.261,16.782a1.763,1.763,0,0,0,1.754-1.759,1.77,1.77,0,0,0-1.77-1.746,1.759,1.759,0,0,0-1.735,1.775A1.75,1.75,0,0,0-625.412,527.206Zm-12.4-1.748a1.756,1.756,0,0,0-1.751-1.758,1.773,1.773,0,0,0-1.754,1.763,1.764,1.764,0,0,0,1.745,1.743A1.756,1.756,0,0,0-637.809,525.458Z" transform="translate(0 0)" fill="#8f8f8f" fill-rule="evenodd"/>
    <path id="Path_317" data-name="Path 317" d="M-414.9,584.737c.885-.72,1.748-1.43,2.624-2.125a.976.976,0,0,1,.485-.194.478.478,0,0,1,.483.316.533.533,0,0,1-.054.58,1.525,1.525,0,0,1-.246.24q-1.442,1.178-2.888,2.353a.615.615,0,0,1-1.014-.1c-.41-.483-.825-.961-1.231-1.447a.587.587,0,0,1-.073-.708.535.535,0,0,1,.617-.244,1.055,1.055,0,0,1,.393.277C-415.5,584.021-415.213,584.371-414.9,584.737Z" transform="translate(-211.55 -72.103)" fill="#8f8f8f" fill-rule="evenodd"/>
  </g>
</svg>
