<svg xmlns="http://www.w3.org/2000/svg" width="14.623" height="18.802" viewBox="0 0 14.623 18.802">
  <g id="landmark-icon" transform="translate(859.8 481.628)">
    <path id="Path_44" data-name="Path 44" d="M-853.681-474.305v-1.187h-3.145c-.319,0-.412-.091-.412-.4q0-1.678,0-3.357c0-.3.1-.394.4-.394h3.15c0-.068.008-.127.008-.186,0-.42,0-.841,0-1.261a.3.3,0,0,1,.333-.332q.853,0,1.706,0c.225,0,.332.116.333.351,0,.469,0,.937,0,1.428h.211c1.372,0,2.745,0,4.117,0a.47.47,0,0,1,.443.237q.524.809,1.068,1.6a.374.374,0,0,1,0,.475q-.553.812-1.09,1.635a.43.43,0,0,1-.4.211c-1.379,0-2.757,0-4.136,0h-.208v1.187h3.145c.315,0,.408.092.408.408q0,1.669,0,3.338c0,.315-.093.408-.408.409h-3.142v6.53h1.428c.117,0,.235-.005.352,0a.293.293,0,0,1,.284.287.3.3,0,0,1-.288.3c-.049,0-.1,0-.148,0h-6.844c-.049,0-.1,0-.148,0a.3.3,0,0,1-.285-.305.292.292,0,0,1,.287-.284c.142-.008.284,0,.427,0h2.536v-6.53h-.193c-1.372,0-2.745,0-4.117,0a.469.469,0,0,1-.444-.234q-.523-.809-1.068-1.6a.381.381,0,0,1,0-.49q.545-.8,1.069-1.6a.456.456,0,0,1,.427-.23c1.373.006,2.745,0,4.117,0Zm-2.957-1.791c.038,0,.056.009.074.009q4.718,0,9.436,0a.269.269,0,0,0,.187-.106c.287-.417.563-.842.849-1.26a.172.172,0,0,0,0-.229c-.275-.4-.547-.808-.811-1.218a.291.291,0,0,0-.281-.154q-4.626.007-9.251,0h-.2Zm8.294,5.352v-2.968h-.153q-4.662,0-9.325,0a.233.233,0,0,0-.227.115q-.408.63-.832,1.249a.183.183,0,0,0,0,.245c.276.4.549.807.811,1.218a.29.29,0,0,0,.284.147q4.625-.006,9.251,0Zm-4.726.6v6.506h1.165v-6.506Zm0-10.685v1.164h1.164v-1.164Zm1.167,5.343h-1.169v1.166h1.169Z" transform="translate(0 0)" fill="#8f8f8f" stroke="#707070" stroke-width="0.4" fill-rule="evenodd"/>
    <path id="Path_45" data-name="Path 45" d="M-643.4-120.886c-.037,0-.074,0-.111,0a.3.3,0,0,1-.325-.3.3.3,0,0,1,.321-.289c.08,0,.161,0,.241,0a.3.3,0,0,1,.325.3.3.3,0,0,1-.321.289C-643.313-120.885-643.357-120.886-643.4-120.886Z" transform="translate(-205.09 -342.141)" fill="#8f8f8f" stroke="#707070" stroke-width="0.4" fill-rule="evenodd"/>
  </g>
</svg>
