<svg xmlns="http://www.w3.org/2000/svg" width="22.233" height="16.609" viewBox="0 0 22.233 16.609">
  <g id="length-icon" transform="translate(11.121 223.506) rotate(45)">
    <path id="Path_352" data-name="Path 352" d="M-115.016-106.145a.67.67,0,0,1,.227-.464q.593-.589,1.182-1.181,4.558-4.558,9.115-9.118a.716.716,0,0,1,.721-.239.669.669,0,0,1,.343,1.077,2.136,2.136,0,0,1-.153.16l-10.1,10.089-.192.194a.665.665,0,0,1-.738.149A.681.681,0,0,1-115.016-106.145Z" transform="translate(-42.981 -40.917)" fill="#8f8f8f" fill-rule="evenodd"/>
    <path id="Path_353" data-name="Path 353" d="M97.777-157.961c0,.5.007,1,0,1.5a.616.616,0,0,1-.574.609.638.638,0,0,1-.68-.5.922.922,0,0,1-.016-.2c0-.432,0-.863,0-1.295a.858.858,0,0,0-.908-.909c-.437,0-.875,0-1.312,0a.637.637,0,0,1-.683-.628.631.631,0,0,1,.662-.648q1.465-.01,2.931,0a.567.567,0,0,1,.59.608c0,.488,0,.977,0,1.465Z" transform="translate(-242.107)" fill="#8f8f8f" fill-rule="evenodd"/>
    <path id="Path_354" data-name="Path 354" d="M-157.985,97.612c-.472,0-.943,0-1.415,0a.584.584,0,0,1-.646-.671c.005-.949,0-1.9,0-2.847a.63.63,0,0,1,.657-.668.63.63,0,0,1,.618.624c.007.449,0,.9,0,1.347a.864.864,0,0,0,.932.937c.426,0,.852,0,1.279,0a.639.639,0,0,1,.683.629.637.637,0,0,1-.682.647C-157.031,97.615-157.508,97.612-157.985,97.612Z" transform="translate(0 -241.932)" fill="#8f8f8f" fill-rule="evenodd"/>
  </g>
</svg>
