<svg xmlns="http://www.w3.org/2000/svg" width="683.5" height="714" viewBox="0 0 683.5 714">
  <g id="login-bg" transform="translate(0 -57)">
    <path id="Path_166" data-name="Path 166" d="M2557.047,696.181a13.125,13.125,0,0,1,6.618,1.792,13.039,13.039,0,0,1,15.067-8.524,20.787,20.787,0,0,1,40.271-.227c.411-.029.821-.063,1.239-.063a17.312,17.312,0,0,1,8.705,2.348,15.635,15.635,0,0,1,23.875,13.311h-108.15A13.193,13.193,0,0,1,2557.047,696.181Z" transform="translate(-2025.748 -536.712)" fill="#dbe2f2" opacity="0.09"/>
    <path id="Path_167" data-name="Path 167" d="M874.437,687.228a14.522,14.522,0,0,1,7.325,1.983,14.429,14.429,0,0,1,16.676-9.434,23.007,23.007,0,0,1,44.571-.252c.455-.032.909-.069,1.371-.069a19.157,19.157,0,0,1,9.634,2.6,17.305,17.305,0,0,1,26.425,14.732h-119.7A14.6,14.6,0,0,1,874.437,687.228Z" transform="translate(-835.742 -605.359)" fill="#fff" opacity="0.17"/>
    <path id="Intersection_1" data-name="Intersection 1" d="M547.143,768V491.806h9.408v82.3h9.3V537.838H591.89v35.8h36.733v68.817H652.8V616.419l31.154-31.154v30.688h18.6V527.609h38.592v45.1h22.109V491.806h37.663v82.3h9.3V537.838h26.038v35.8h36.733v68.817h24.179V616.419l31.154-31.154v30.688h18.6V527.609h38.593v45.1h22.373V491.806h37.663v82.3h9.3V537.838h26.038v35.8h36.734v68.817H1141.8V616.419l31.153-31.154v30.688h18.6V527.609h38.593V768Zm488.084-332.377a14.39,14.39,0,0,1-1.725-3.988l0-.008h0a14.54,14.54,0,1,1,28.13,0h0l0,.014a14.472,14.472,0,0,1-1.538,3.677c-2.391,5.078-6.894,13.127-12.524,22.762A201.716,201.716,0,0,1,1035.228,435.622Zm89.714-29.388a14.452,14.452,0,0,1-1.724-3.987l0-.009a14.541,14.541,0,1,1,28.132,0h0l0,.014a14.5,14.5,0,0,1-1.538,3.677c-2.392,5.079-6.894,13.127-12.524,22.762A201.992,201.992,0,0,1,1124.942,406.235Z" transform="translate(-546.644 0)" fill="#141414"/>
    <g id="Group_198" data-name="Group 198" transform="translate(0 0)">
      <g id="Group_117" data-name="Group 117" transform="translate(-1574.715 90.002)">
        <g id="Group_110" data-name="Group 110" transform="translate(2181.34 610.691)">
          <path id="Path_152" data-name="Path 152" d="M2267.126,754.609H2254.3V700.127l12.824-12.824h0Z" transform="translate(-2254.303 -687.303)" fill="#e7eefe"/>
          <rect id="Rectangle_97" data-name="Rectangle 97" width="2.463" height="3.333" transform="translate(2.427 13.621)" fill="#fff"/>
          <rect id="Rectangle_98" data-name="Rectangle 98" width="2.463" height="3.333" transform="translate(7.933 13.621)" fill="#fff"/>
          <path id="Path_153" data-name="Path 153" d="M2271.415,807.37l-2.463.228v-3.333l2.463-.228Z" transform="translate(-2266.524 -784.696)" fill="#fff"/>
          <rect id="Rectangle_99" data-name="Rectangle 99" width="2.463" height="3.333" transform="translate(7.933 19.342)" fill="#fff"/>
          <path id="Path_154" data-name="Path 154" d="M2271.415,843.274l-2.463.228v-3.333l2.463-.228Z" transform="translate(-2266.524 -814.651)" fill="#fff"/>
          <rect id="Rectangle_100" data-name="Rectangle 100" width="2.463" height="3.333" transform="translate(7.933 25.291)" fill="#fff"/>
          <rect id="Rectangle_101" data-name="Rectangle 101" width="2.463" height="3.333" transform="translate(2.427 31.239)" fill="#fff"/>
          <path id="Path_155" data-name="Path 155" d="M2304.647,879.407h-2.463v-3.561l2.463.228Z" transform="translate(-2294.25 -844.606)" fill="#fff"/>
        </g>
        <g id="Group_113" data-name="Group 113" transform="translate(2194.208 595.477)">
          <g id="Group_112" data-name="Group 112">
            <g id="Group_111" data-name="Group 111" transform="translate(0 7.173)">
              <rect id="Rectangle_102" data-name="Rectangle 102" width="15.432" height="72.088" transform="translate(0 3.26)" fill="#cbdbfd"/>
              <rect id="Rectangle_103" data-name="Rectangle 103" width="6.086" height="3.26" transform="translate(4.673)" fill="#cbdbfd"/>
            </g>
            <rect id="Rectangle_104" data-name="Rectangle 104" width="0.461" height="7.173" transform="translate(7.485)" fill="#cbdbfd"/>
          </g>
          <rect id="Rectangle_105" data-name="Rectangle 105" width="2.463" height="3.333" transform="translate(2.485 16.273)" fill="#fff"/>
          <rect id="Rectangle_106" data-name="Rectangle 106" width="2.463" height="3.333" transform="translate(9.788 16.658)" fill="#fff"/>
          <rect id="Rectangle_107" data-name="Rectangle 107" width="2.463" height="3.333" transform="translate(2.485 21.97)" fill="#fff"/>
          <rect id="Rectangle_108" data-name="Rectangle 108" width="2.463" height="3.333" transform="translate(9.553 22.121)" fill="#fff"/>
          <rect id="Rectangle_109" data-name="Rectangle 109" width="2.463" height="3.333" transform="translate(2.485 27.667)" fill="#fff"/>
          <rect id="Rectangle_110" data-name="Rectangle 110" width="2.463" height="3.333" transform="translate(9.553 27.818)" fill="#fff"/>
          <rect id="Rectangle_111" data-name="Rectangle 111" width="2.463" height="3.333" transform="translate(2.485 33.364)" fill="#fff"/>
          <rect id="Rectangle_112" data-name="Rectangle 112" width="2.463" height="3.333" transform="translate(9.553 33.515)" fill="#fff"/>
          <rect id="Rectangle_113" data-name="Rectangle 113" width="2.463" height="3.333" transform="translate(2.485 39.061)" fill="#fff"/>
          <rect id="Rectangle_114" data-name="Rectangle 114" width="2.463" height="3.333" transform="translate(9.553 39.212)" fill="#fff"/>
          <rect id="Rectangle_115" data-name="Rectangle 115" width="2.463" height="3.333" transform="translate(2.485 44.759)" fill="#fff"/>
          <rect id="Rectangle_116" data-name="Rectangle 116" width="2.463" height="3.333" transform="translate(9.553 44.91)" fill="#fff"/>
        </g>
        <g id="Group_114" data-name="Group 114" transform="translate(2209.64 627.645)">
          <rect id="Rectangle_117" data-name="Rectangle 117" width="11.04" height="50.353" fill="#e7eefe"/>
          <rect id="Rectangle_118" data-name="Rectangle 118" width="2.463" height="3.333" transform="translate(1.923 7.112)" fill="#fff"/>
          <rect id="Rectangle_119" data-name="Rectangle 119" width="2.463" height="3.333" transform="translate(6.528 7.112)" fill="#fff"/>
          <rect id="Rectangle_120" data-name="Rectangle 120" width="2.463" height="3.333" transform="translate(1.923 12.486)" fill="#fff"/>
          <rect id="Rectangle_121" data-name="Rectangle 121" width="2.463" height="3.333" transform="translate(6.528 12.486)" fill="#fff"/>
          <rect id="Rectangle_122" data-name="Rectangle 122" width="2.463" height="3.333" transform="translate(1.923 17.859)" fill="#fff"/>
          <rect id="Rectangle_123" data-name="Rectangle 123" width="2.463" height="3.333" transform="translate(6.528 17.859)" fill="#fff"/>
          <rect id="Rectangle_124" data-name="Rectangle 124" width="2.463" height="3.333" transform="translate(1.923 23.232)" fill="#fff"/>
          <rect id="Rectangle_125" data-name="Rectangle 125" width="2.463" height="3.333" transform="translate(6.528 23.232)" fill="#fff"/>
        </g>
        <g id="Group_115" data-name="Group 115" transform="translate(2220.68 623.95)">
          <path id="Path_156" data-name="Path 156" d="M2503.774,821.37h-12.035V767.322h0a12.035,12.035,0,0,1,12.035,12.035Z" transform="translate(-2491.739 -767.322)" fill="#cbdbfd"/>
          <rect id="Rectangle_126" data-name="Rectangle 126" width="2.463" height="3.333" transform="translate(2.033 14.502)" fill="#fff"/>
          <rect id="Rectangle_127" data-name="Rectangle 127" width="2.463" height="3.333" transform="translate(7.539 14.502)" fill="#fff"/>
          <rect id="Rectangle_128" data-name="Rectangle 128" width="2.463" height="3.333" transform="translate(2.033 20.451)" fill="#fff"/>
          <rect id="Rectangle_129" data-name="Rectangle 129" width="2.463" height="3.333" transform="translate(7.539 20.451)" fill="#fff"/>
          <rect id="Rectangle_130" data-name="Rectangle 130" width="2.463" height="3.333" transform="translate(2.033 26.4)" fill="#fff"/>
          <rect id="Rectangle_131" data-name="Rectangle 131" width="2.463" height="3.333" transform="translate(7.539 26.4)" fill="#fff"/>
          <rect id="Rectangle_132" data-name="Rectangle 132" width="2.463" height="3.333" transform="translate(2.033 32.349)" fill="#fff"/>
          <rect id="Rectangle_133" data-name="Rectangle 133" width="2.463" height="3.333" transform="translate(7.539 32.349)" fill="#fff"/>
        </g>
        <g id="Group_116" data-name="Group 116" transform="translate(2166.85 633.594)">
          <rect id="Rectangle_134" data-name="Rectangle 134" width="14.49" height="44.404" fill="#cbdbfd"/>
          <rect id="Rectangle_135" data-name="Rectangle 135" width="2.463" height="3.333" transform="translate(2.834 5.86)" fill="#fff"/>
          <rect id="Rectangle_136" data-name="Rectangle 136" width="2.463" height="3.333" transform="translate(8.34 5.86)" fill="#fff"/>
          <rect id="Rectangle_137" data-name="Rectangle 137" width="2.463" height="3.333" transform="translate(2.834 12.115)" fill="#fff"/>
          <rect id="Rectangle_138" data-name="Rectangle 138" width="2.463" height="3.333" transform="translate(8.34 12.115)" fill="#fff"/>
          <rect id="Rectangle_139" data-name="Rectangle 139" width="2.463" height="3.333" transform="translate(2.834 18.37)" fill="#fff"/>
          <rect id="Rectangle_140" data-name="Rectangle 140" width="2.463" height="3.333" transform="translate(8.34 18.37)" fill="#fff"/>
          <rect id="Rectangle_141" data-name="Rectangle 141" width="2.463" height="3.333" transform="translate(2.834 24.625)" fill="#fff"/>
          <rect id="Rectangle_142" data-name="Rectangle 142" width="2.463" height="3.333" transform="translate(8.34 24.625)" fill="#fff"/>
        </g>
      </g>
      <g id="Group_92" data-name="Group 92" transform="translate(83.597 -797.032)">
        <path id="Path_66" data-name="Path 66" d="M907.481,1407.745H749.1v120.316H907.586Z" transform="translate(-560.826)" fill="#db6161"/>
        <path id="Path_67" data-name="Path 67" d="M809.316,1426.975H631.6v116.2H809.342Z" transform="translate(-468.495 -15.111)" fill="#233862"/>
        <g id="Group_80" data-name="Group 80" transform="translate(254.69 1505.858)">
          <g id="Group_79" data-name="Group 79">
            <g id="Group_78" data-name="Group 78">
              <g id="Group_77" data-name="Group 77">
                <rect id="Rectangle_85" data-name="Rectangle 85" width="21.899" height="22.203" transform="translate(21.899 22.203) rotate(180)" fill="#e69d43"/>
                <path id="Path_68" data-name="Path 68" d="M1059.16,1888h21.9v-22.2h-4.9Z" transform="translate(-1059.16 -1865.792)" fill="#e78b37"/>
                <rect id="Rectangle_86" data-name="Rectangle 86" width="13.254" height="22.203" transform="translate(34.241 22.203) rotate(180)" fill="#d57912"/>
              </g>
            </g>
          </g>
        </g>
        <g id="Group_84" data-name="Group 84" transform="translate(253.527 1477.961)">
          <g id="Group_83" data-name="Group 83">
            <g id="Group_82" data-name="Group 82">
              <g id="Group_81" data-name="Group 81">
                <rect id="Rectangle_87" data-name="Rectangle 87" width="36.315" height="28.201" transform="translate(36.315 28.201) rotate(180)" fill="#e69d43"/>
                <path id="Path_69" data-name="Path 69" d="M1053.732,1763.755h36.316v-28.2h-6.814Z" transform="translate(-1053.732 -1735.555)" fill="#e78b37"/>
                <rect id="Rectangle_88" data-name="Rectangle 88" width="10.026" height="28.201" transform="translate(45.43 28.201) rotate(180)" fill="#d57912"/>
              </g>
            </g>
          </g>
        </g>
        <path id="Rectangle_89" data-name="Rectangle 89" d="M9.646,0h31.6A9.647,9.647,0,0,1,50.9,9.647v3.281a9.646,9.646,0,0,1-9.646,9.646H9.646A9.646,9.646,0,0,1,0,12.929V9.646A9.646,9.646,0,0,1,9.646,0Z" transform="translate(51.868 1513.885)" fill="#b65615"/>
        <circle id="Ellipse_8" data-name="Ellipse 8" cx="20.402" cy="20.402" r="20.402" transform="translate(226.585 1562.033) rotate(-83.898)" fill="#233862"/>
        <circle id="Ellipse_9" data-name="Ellipse 9" cx="20.402" cy="20.402" r="20.402" transform="translate(293.728 1560.786) rotate(-80.783)" fill="#233862"/>
        <circle id="Ellipse_10" data-name="Ellipse 10" cx="20.402" cy="20.402" r="20.402" transform="matrix(0.203, -0.979, 0.979, 0.203, 44.745, 1559.754)" fill="#233862"/>
        <path id="Path_70" data-name="Path 70" d="M143.532,2005.691a10.3,10.3,0,1,1,10.3,10.3A10.3,10.3,0,0,1,143.532,2005.691Z" transform="translate(-84.968 -461.775)" fill="#f59040"/>
        <path id="Path_71" data-name="Path 71" d="M164,2007.6a10.3,10.3,0,0,1-16.249,11.9A10.3,10.3,0,1,0,164,2007.6Z" transform="translate(-88.281 -471.369)" fill="#d36e2a"/>
        <path id="Path_72" data-name="Path 72" d="M176.7,2031.757a3.192,3.192,0,1,1,3.192,3.192A3.192,3.192,0,0,1,176.7,2031.757Z" transform="translate(-111.034 -487.841)" fill="#b65615"/>
        <path id="Path_73" data-name="Path 73" d="M160.478,2064.473a1.236,1.236,0,1,1,1.236,1.236A1.236,1.236,0,0,1,160.478,2064.473Z" transform="translate(-98.284 -515.087)" fill="#b65615"/>
        <path id="Path_74" data-name="Path 74" d="M153.748,2021.627a1.236,1.236,0,1,1,1.236,1.236A1.236,1.236,0,0,1,153.748,2021.627Z" transform="translate(-92.996 -481.419)" fill="#b65615"/>
        <path id="Path_75" data-name="Path 75" d="M217.205,2021.627a1.236,1.236,0,1,1,1.236,1.236A1.236,1.236,0,0,1,217.205,2021.627Z" transform="translate(-142.86 -481.419)" fill="#b65615"/>
        <path id="Path_76" data-name="Path 76" d="M212.4,2064.473a1.236,1.236,0,1,1,1.236,1.236A1.236,1.236,0,0,1,212.4,2064.473Z" transform="translate(-139.083 -515.087)" fill="#b65615"/>
        <path id="Path_77" data-name="Path 77" d="M185.837,2002.2a1.236,1.236,0,1,1,1.236,1.236A1.236,1.236,0,0,1,185.837,2002.2Z" transform="translate(-118.211 -466.155)" fill="#b65615"/>
        <path id="Path_78" data-name="Path 78" d="M982.937,2005.691a10.3,10.3,0,1,1,10.3,10.3A10.3,10.3,0,0,1,982.937,2005.691Z" transform="translate(-744.574 -461.775)" fill="#d36e2a"/>
        <path id="Path_79" data-name="Path 79" d="M1016.108,2031.757a3.192,3.192,0,1,1,3.192,3.192A3.192,3.192,0,0,1,1016.108,2031.757Z" transform="translate(-770.64 -487.841)" fill="#b65615"/>
        <path id="Path_80" data-name="Path 80" d="M999.883,2064.473a1.236,1.236,0,1,1,1.236,1.236A1.236,1.236,0,0,1,999.883,2064.473Z" transform="translate(-757.89 -515.087)" fill="#b65615"/>
        <path id="Path_81" data-name="Path 81" d="M997.723,2021.627a1.236,1.236,0,1,1,1.235,1.236A1.235,1.235,0,0,1,997.723,2021.627Z" transform="translate(-756.193 -481.419)" fill="#b65615"/>
        <path id="Path_82" data-name="Path 82" d="M1051.8,2064.473a1.236,1.236,0,1,1,1.236,1.236A1.236,1.236,0,0,1,1051.8,2064.473Z" transform="translate(-798.689 -515.087)" fill="#b65615"/>
        <path id="Path_83" data-name="Path 83" d="M995.687,2002.2a1.236,1.236,0,1,1,1.236,1.236A1.236,1.236,0,0,1,995.687,2002.2Z" transform="translate(-754.593 -466.155)" fill="#b65615"/>
        <circle id="Ellipse_11" data-name="Ellipse 11" cx="20.402" cy="20.402" r="20.402" transform="translate(114.678 1561.964) rotate(-83.723)" fill="#233862"/>
        <path id="Path_84" data-name="Path 84" d="M190.551,1467.4s3.09-16.836,26.452-16.836l.342,18.067Z" transform="translate(-121.916 -33.644)" fill="#d57912"/>
        <path id="Path_85" data-name="Path 85" d="M169.964,1603.256H81.36l7.375-59.85A19.409,19.409,0,0,1,108,1526.371h61.965Z" transform="translate(-36.113 -93.216)" fill="#e69d43"/>
        <path id="Path_86" data-name="Path 86" d="M163.409,1596.677H138.562l3.291-23.632a9.847,9.847,0,0,1,9.753-8.489h12.572Z" transform="translate(-81.063 -123.223)" fill="#d57912"/>
        <path id="Path_87" data-name="Path 87" d="M170.987,1601.644H154.628a4.083,4.083,0,0,1-4.048-4.621l2.171-16.351a8.472,8.472,0,0,1,8.251-7.533h10.636Z" transform="translate(-90.478 -129.967)" fill="#dce7f9"/>
        <rect id="Rectangle_90" data-name="Rectangle 90" width="170.424" height="120.316" transform="translate(94.301 1407.745)" fill="#d15050"/>
        <path id="Path_88" data-name="Path 88" d="M497.088,1540.241h-157.5V1429.052h157.7v89.891Z" transform="translate(-239.032 -16.743)" fill="#b64c41"/>
        <path id="Path_89" data-name="Path 89" d="M99.311,1885.316H45.247c-4.761.317-5.221,2.671-5.221,2.671l-4.623,22.36a1.487,1.487,0,0,0,1.561,1.389H50.557a2.117,2.117,0,0,0,1.844-1.425A22.509,22.509,0,0,1,55.9,1906.8a21.992,21.992,0,0,1,12.966-3.836c6.93,0,13.052,2.2,16.739,5.573h13.71c1.655,0,3.009-.864,3.009-1.919v-19.384C102.32,1886.18,100.966,1885.316,99.311,1885.316Z" transform="translate(0 -375.276)" fill="#d57912"/>
        <path id="Path_90" data-name="Path 90" d="M997.713,2026.132H980.579a15.915,15.915,0,0,0-2.147-5.517c-5.18-8.3-17.294-10.84-24.194-11.615a50.381,50.381,0,0,0-5.048-.343h29.453a21.623,21.623,0,0,1,15.255,9.268A25.162,25.162,0,0,1,997.713,2026.132Z" transform="translate(-718.056 -472.198)" fill="#d15050"/>
        <path id="Path_91" data-name="Path 91" d="M1314.348,2026.132h-17.134a15.914,15.914,0,0,0-2.578-6.173c-7.825-11.286-28.811-11.3-28.811-11.3h29.455a21.5,21.5,0,0,1,13.71,7.293A25.457,25.457,0,0,1,1314.348,2026.132Z" transform="translate(-966.869 -472.198)" fill="#d15050"/>
        <path id="Path_92" data-name="Path 92" d="M1010.893,2017.926s-11.277-2.38-15.466,2.689c-5.18-8.3-17.294-10.84-24.194-11.615-.141-.115-.279-.229-.416-.343h24.821A21.624,21.624,0,0,1,1010.893,2017.926Z" transform="translate(-735.05 -472.198)" fill="#a03c37"/>
        <path id="Path_93" data-name="Path 93" d="M1308.991,2015.951h0s-9.432-.211-14.354,4.007c-7.825-11.286-28.811-11.3-28.811-11.3h29.455A21.5,21.5,0,0,1,1308.991,2015.951Z" transform="translate(-966.869 -472.198)" fill="#a03c37"/>
        <path id="Rectangle_91" data-name="Rectangle 91" d="M5.834,0H250.009a5.834,5.834,0,0,1,5.834,5.834v0a5.834,5.834,0,0,1-5.834,5.834H5.835A5.835,5.835,0,0,1,0,5.834v0A5.834,5.834,0,0,1,5.834,0Z" transform="translate(95.87 1528.061)" fill="#a03c37"/>
        <path id="Rectangle_92" data-name="Rectangle 92" d="M10.321,0H40.574A10.322,10.322,0,0,1,50.9,10.322v5.2A10.321,10.321,0,0,1,40.575,25.845H10.321A10.321,10.321,0,0,1,0,15.524v-5.2A10.321,10.321,0,0,1,10.321,0Z" transform="translate(106.695 1530.993)" fill="#a03c37"/>
        <path id="Path_94" data-name="Path 94" d="M497.293,1540.241H339.8l-.205-111.189h34.739c8.612,25.4,39.506,85.65,122.962,90.161Z" transform="translate(-239.032 -16.743)" fill="#c44943"/>
        <g id="Group_86" data-name="Group 86" transform="translate(44.75 1453.049)">
          <path id="Path_95" data-name="Path 95" d="M81.149,1660.44s-2.215,11.9-2.105,13.844a3.239,3.239,0,0,0,3.335,2.888Z" transform="translate(-79.039 -1651.617)" fill="#b64c41"/>
          <rect id="Rectangle_93" data-name="Rectangle 93" width="8.246" height="17.725" rx="4.123" transform="translate(2.02 7.83)" fill="#d57912"/>
          <rect id="Rectangle_94" data-name="Rectangle 94" width="6.706" height="15.87" rx="3.353" transform="translate(2.936 8.823)" fill="#dce7f9"/>
          <g id="Group_85" data-name="Group 85" transform="translate(5.868 0)">
            <path id="Path_96" data-name="Path 96" d="M106.708,1627.4a.3.3,0,0,1-.275-.323v-5c0-.014,0-.027,0-.04a3.164,3.164,0,0,1,3.34-2.785c2.741.085,3.922,0,3.934,0a.3.3,0,0,1,.291.3.309.309,0,0,1-.257.343c-.048,0-1.217.087-3.982,0a2.53,2.53,0,0,0-2.778,2.2v4.981A.3.3,0,0,1,106.708,1627.4Z" transform="translate(-106.433 -1619.249)" fill="#b64c41"/>
          </g>
        </g>
        <path id="Path_97" data-name="Path 97" d="M220.736,1741.106h-5.013a1.28,1.28,0,0,1-1.276-1.276h0a1.28,1.28,0,0,1,1.276-1.276h5.013a1.28,1.28,0,0,1,1.277,1.276h0A1.28,1.28,0,0,1,220.736,1741.106Z" transform="translate(-140.692 -259.949)" fill="#d57912"/>
        <g id="Group_90" data-name="Group 90" transform="translate(283.029 1506.01)">
          <g id="Group_89" data-name="Group 89" transform="translate(0 0)">
            <g id="Group_88" data-name="Group 88">
              <g id="Group_87" data-name="Group 87">
                <rect id="Rectangle_95" data-name="Rectangle 95" width="21.899" height="21.899" transform="translate(21.899 21.899) rotate(180)" fill="#e69d43"/>
                <path id="Path_98" data-name="Path 98" d="M1191.464,1888.553h21.9V1866.5h-4.656l-17.243,17.071Z" transform="translate(-1191.464 -1866.502)" fill="#e78b37"/>
                <rect id="Rectangle_96" data-name="Rectangle 96" width="10.026" height="22.051" transform="translate(31.014 22.051) rotate(180)" fill="#d57912"/>
              </g>
            </g>
          </g>
        </g>
        <g id="Group_91" data-name="Group 91" transform="translate(133.487 1461.056)">
          <path id="Path_99" data-name="Path 99" d="M498.676,1656.631a7.47,7.47,0,0,1,2.514.381,4.8,4.8,0,0,1,1.78,1.086,4.731,4.731,0,0,1,1.1,1.7,7.565,7.565,0,0,1,.46,2.23,26.985,26.985,0,0,1,0,2.9,7.568,7.568,0,0,1-.46,2.231,4.8,4.8,0,0,1-1.086,1.7,4.717,4.717,0,0,1-1.751,1.086,7.162,7.162,0,0,1-2.455.381h-4.93a.534.534,0,0,1-.528-.528v-12.639a.534.534,0,0,1,.528-.528Zm3.209,5.4a3.942,3.942,0,0,0-.245-1.164,2.649,2.649,0,0,0-.606-.939,2.759,2.759,0,0,0-1.008-.626,4.169,4.169,0,0,0-1.448-.225h-2.622v8.8h2.719a3.878,3.878,0,0,0,1.389-.225,2.753,2.753,0,0,0,.978-.616,2.6,2.6,0,0,0,.6-.939,4.043,4.043,0,0,0,.245-1.174A26.985,26.985,0,0,0,501.884,1662.031Z" transform="translate(-493.315 -1656.631)" fill="#fff"/>
          <path id="Path_100" data-name="Path 100" d="M566.735,1667.88a.535.535,0,0,1,.528.528v1.389a.534.534,0,0,1-.528.528h-8.589a.534.534,0,0,1-.528-.528v-12.639a.534.534,0,0,1,.528-.528h8.433a.534.534,0,0,1,.528.528v1.389a.535.535,0,0,1-.528.528h-6.32v3.111h5.889a.535.535,0,0,1,.528.528v1.389a.534.534,0,0,1-.528.528h-5.889v3.248Z" transform="translate(-543.844 -1656.631)" fill="#fff"/>
          <path id="Path_101" data-name="Path 101" d="M623.072,1667.88a.535.535,0,0,1,.528.528v1.389a.534.534,0,0,1-.528.528H614.5a.534.534,0,0,1-.528-.528v-12.639a.534.534,0,0,1,.528-.528h1.585a.534.534,0,0,1,.528.528v10.721Z" transform="translate(-588.129 -1656.631)" fill="#fff"/>
          <path id="Path_102" data-name="Path 102" d="M668.21,1670.326a.534.534,0,0,1-.528-.528v-12.639a.534.534,0,0,1,.528-.528h1.585a.534.534,0,0,1,.528.528V1669.8a.534.534,0,0,1-.528.528Z" transform="translate(-630.333 -1656.631)" fill="#fff"/>
          <path id="Path_103" data-name="Path 103" d="M695.641,1666.452l3.287-9.332a1.064,1.064,0,0,1,.205-.323.557.557,0,0,1,.44-.166h1.487a.534.534,0,0,1,.528.528v.068a.479.479,0,0,1-.039.127l-4.382,12.306a1.416,1.416,0,0,1-.274.5.616.616,0,0,1-.47.166h-1.565a.614.614,0,0,1-.47-.166,1.409,1.409,0,0,1-.274-.5l-4.382-12.306a.464.464,0,0,1-.039-.127v-.068a.534.534,0,0,1,.528-.528h1.487a.557.557,0,0,1,.44.166,1.067,1.067,0,0,1,.205.323Z" transform="translate(-647.629 -1656.631)" fill="#fff"/>
          <path id="Path_104" data-name="Path 104" d="M764.026,1667.88a.535.535,0,0,1,.528.528v1.389a.534.534,0,0,1-.528.528h-8.589a.534.534,0,0,1-.528-.528v-12.639a.534.534,0,0,1,.528-.528h8.432a.534.534,0,0,1,.528.528v1.389a.534.534,0,0,1-.528.528H757.55v3.111h5.889a.535.535,0,0,1,.528.528v1.389a.534.534,0,0,1-.528.528H757.55v3.248Z" transform="translate(-698.876 -1656.631)" fill="#fff"/>
          <path id="Path_105" data-name="Path 105" d="M816.841,1656.631a5.418,5.418,0,0,1,3.717,1.135,4.005,4.005,0,0,1,1.272,3.15,4.37,4.37,0,0,1-.656,2.436,3.872,3.872,0,0,1-1.927,1.5l2.7,4.833a.487.487,0,0,1,.059.215.434.434,0,0,1-.43.43h-1.663a.786.786,0,0,1-.577-.186,1.377,1.377,0,0,1-.264-.342l-2.563-4.559h-2.6v4.559a.534.534,0,0,1-.528.528h-1.585a.534.534,0,0,1-.528-.528v-12.639a.534.534,0,0,1,.528-.528Zm-2.935,6.163h2.837a3.5,3.5,0,0,0,1.78-.391,1.578,1.578,0,0,0,.665-1.487,1.531,1.531,0,0,0-.665-1.468,3.653,3.653,0,0,0-1.78-.372h-2.837Z" transform="translate(-743.161 -1656.631)" fill="#fff"/>
          <path id="Path_106" data-name="Path 106" d="M876.693,1656.631a.534.534,0,0,1,.528.528.391.391,0,0,1-.039.176l-4.637,8.159v4.3a.534.534,0,0,1-.528.528h-1.565a.534.534,0,0,1-.528-.528v-4.3l-4.637-8.159a.388.388,0,0,1-.039-.176.534.534,0,0,1,.528-.528h1.467a.8.8,0,0,1,.587.2,1.1,1.1,0,0,1,.235.293l3.169,5.537,3.17-5.537a1.092,1.092,0,0,1,.235-.293.8.8,0,0,1,.587-.2Z" transform="translate(-785.581 -1656.631)" fill="#fff"/>
        </g>
      </g>
      <g id="Group_103" data-name="Group 103" transform="translate(-1316.991 -527.488)">
        <g id="Group_93" data-name="Group 93" transform="translate(1727.86 1206.306)">
          <path id="Path_107" data-name="Path 107" d="M1780.939,1283.99a2.455,2.455,0,0,0,.268-1.932s-13.448-4.987-14.753-5.322a136.853,136.853,0,0,1-16.021-7.361c-2.5-1.457-4.448.11-6.738,1.712l-1.886,1.319a3.7,3.7,0,0,0,.942,6.355c7.5,2.829,19.075,4.931,21.284,5.45,5.485,1.287,15.471,1.626,15.471,1.626A5.916,5.916,0,0,0,1780.939,1283.99Z" transform="translate(-1740.386 -1268.797)" fill="#91cecf"/>
        </g>
        <g id="Group_94" data-name="Group 94" transform="translate(1803.013 1201.963)">
          <path id="Path_108" data-name="Path 108" d="M2004.406,1319.906l-1.8.1a3.886,3.886,0,0,0-4.866,2.1s-.588,1.421.522,1.489.694-.118,2.256.012a3.6,3.6,0,0,0,3.553-1.5l.987-.84Z" transform="translate(-1997.58 -1300.547)" fill="#ffb27d"/>
          <path id="Path_109" data-name="Path 109" d="M2015.669,1274.584c-.386-1.242-.295-1.439-.295-1.439s11.024-5.927,12.034-6.528,12.416-12.682,12.416-12.682l11.646,3.236s-18.067,13.695-20.656,15.168c-4.277,2.435-14.171,3.794-14.171,3.794A3.618,3.618,0,0,1,2015.669,1274.584Z" transform="translate(-2010.168 -1253.935)" fill="#91cecf"/>
        </g>
        <g id="Group_96" data-name="Group 96" transform="translate(1764.99 1180.955)">
          <g id="Group_95" data-name="Group 95" transform="translate(0)">
            <path id="Path_110" data-name="Path 110" d="M1923.66,1231.723l-45.631,9.713-10.576-49.684,45.631-9.713Z" transform="translate(-1867.453 -1182.039)" fill="#d57912"/>
          </g>
        </g>
        <g id="Group_98" data-name="Group 98" transform="translate(1757.79 1185.093)">
          <g id="Group_97" data-name="Group 97" transform="translate(0 0)">
            <path id="Path_111" data-name="Path 111" d="M1886.781,1245.884l-33.39,7.108-10.575-49.684,33.39-7.108Z" transform="translate(-1842.815 -1196.2)" fill="#e69d43"/>
          </g>
        </g>
        <g id="Group_100" data-name="Group 100" transform="translate(1766.32 1185.093)">
          <g id="Group_99" data-name="Group 99" transform="translate(0 0)">
            <path id="Path_112" data-name="Path 112" d="M1907.443,1245.884l-33.39,7.108-2.045-9.608,19.33-46.006,5.529-1.177Z" transform="translate(-1872.008 -1196.2)" fill="#e78b37"/>
          </g>
        </g>
        <path id="Path_113" data-name="Path 113" d="M1903.609,1544.461s1.778,1.961,5.905.895c0,0,3.327-.758,4.057.9,0,0-4.188,2.649-5.479,3.359a15.438,15.438,0,0,0-2.707,2.03,1.338,1.338,0,0,1-1.937-.15c-.225-.276-.481-.6-.763-.986-.787-1.066-2.62-4.511-2.62-4.511Z" transform="translate(-125.546 -257.605)" fill="#233862"/>
        <path id="Path_114" data-name="Path 114" d="M1817.024,1424.39s-1.64,3.781-5.426,3.086a105.643,105.643,0,0,1-13.023-13.007,29.42,29.42,0,0,1-4.047-6.325c-3.514-8.135-13-20.269-19.027-26.418l15.086-5.458s4.832,9.72,11.262,21.66C1806.481,1406.532,1811.943,1416.288,1817.024,1424.39Z" transform="translate(-37.38 -138.559)" fill="#2b478b"/>
        <path id="Path_115" data-name="Path 115" d="M1801.848,1397.929l-3.273,16.54a29.42,29.42,0,0,1-4.047-6.325c-3.514-8.135-13-20.269-19.027-26.418l15.086-5.458S1795.418,1385.99,1801.848,1397.929Z" transform="translate(-37.38 -138.559)" fill="#233862"/>
        <path id="Path_116" data-name="Path 116" d="M1810.322,1547.964s-.164,3.017,3.494,3.42c0,0,2.208.045,2.213,1.965H1805.28a8.257,8.257,0,0,1-.384-2.434c-.058-1.274,1.235-4.605,1.235-4.605Z" transform="translate(-58.185 -258.914)" fill="#233862"/>
        <path id="Path_117" data-name="Path 117" d="M1774.7,1374.647s6.721,7.385,10.987,20.689c2.321,7.239-4.255,25.439-5.536,31.762,0,0-4.411.375-7.427-.792,0,0-.229-13.061,1.535-23.127.987-5.634-8.849-12.049-13.147-22.228-2.924-6.925.633-6.808,5-6.974Z" transform="translate(-26.437 -136.938)" fill="#2b478b"/>
        <path id="Path_118" data-name="Path 118" d="M1756.043,1241.439c-3.739,2.111-11.394.164-11.394.164a10.662,10.662,0,0,0,1.7-9.278l2.936,1.491,3.153,1.6a26.161,26.161,0,0,1,.346,2.827c.036.468.068.99.091,1.561A9.808,9.808,0,0,1,1756.043,1241.439Z" transform="translate(-15.543 -36.676)" fill="#ffb07b"/>
        <path id="Path_119" data-name="Path 119" d="M1762.931,1291.739c0,.657-.757.972-.917,1-1.508.276-5.719,1.914-9.513,2.289a30.419,30.419,0,0,1-9.418-.637c-.432-.087-1.444-.36-1.516-.773-.09-.451-12.567-25.436-2.868-36.168.227-.252,2.142.2,3.893.617a7.187,7.187,0,0,0,4.424-.362l1.642.864c2.016,1.124,5.832,5.116,6.278,8.248.227,1.593,1.138,2.773,1.4,4.174q.147.777.3,1.518.3,1.451.614,2.765c.57,2.369,1.173,4.409,1.764,6.171.629,1.87,1.247,3.427,1.8,4.728.715,1.688,1.32,2.949,1.7,3.915A4.821,4.821,0,0,1,1762.931,1291.739Z" transform="translate(-8.72 -54.411)" fill="#abddda"/>
        <path id="Path_120" data-name="Path 120" d="M1771.693,1310.632a49.022,49.022,0,0,1-23.713-24.232s14.185,4.662,17.715,6.037c.2.967.528,2.505.739,3.381.57,2.369,1.173,4.409,1.764,6.171.629,1.87,1.247,3.427,1.8,4.728C1770.711,1308.4,1771.315,1309.667,1771.693,1310.632Z" transform="translate(-17.901 -74.95)" fill="#91cecf"/>
        <path id="Path_121" data-name="Path 121" d="M1849.159,1213.84l.337-1.586a3.255,3.255,0,0,1,.634-5.087s1.418-.9,1.9.132.118.681.838,2.121.571,2.981-.427,3.707l-.6,1.132Z" transform="translate(-89.064 -18.613)" fill="#ffb07b"/>
        <path id="Path_122" data-name="Path 122" d="M1757.779,1241.856a7.871,7.871,0,0,1-6.069-2.83,29.2,29.2,0,0,0,2.569-1.6l3.153,1.6A26.207,26.207,0,0,1,1757.779,1241.856Z" transform="translate(-20.541 -40.288)" fill="#ea8e50"/>
        <path id="Path_123" data-name="Path 123" d="M1750.981,1216.94s-5.572,4-8.008.49-4.8-5.354-1.342-8.055,5.082-1.848,6.18-.875S1752.368,1215.81,1750.981,1216.94Z" transform="translate(-12.177 -19.148)" fill="#ffb07b"/>
        <path id="Path_124" data-name="Path 124" d="M1736.223,1194.371a8.987,8.987,0,0,0-.649-2.3s-.35,1.448-3,1.249-6.842.26-8.24,3.276c-.089.192-.168.39-.239.592a6.991,6.991,0,0,1-.314-1.671,5.149,5.149,0,0,0,0,2.923h0c-.008.047-.014.095-.021.142a5.891,5.891,0,0,0-1.075,2.029,1.839,1.839,0,0,1,.989-.88c-.012,2.347.94,4.641,2.611,5.325,2.443,1,2.423.237,4.88,1.866,0,0,.659-.817.21-1.367s-2.147-1.349-1.2-2.148,1.3.1,1.648-.449-1.4-2.148.849-3.646S1736.423,1195.72,1736.223,1194.371Z" transform="translate(0 -8.187)" fill="#2b478b"/>
        <g id="Group_101" data-name="Group 101" transform="translate(1833.09 1230.796)">
          <path id="Path_125" data-name="Path 125" d="M2200.378,1538.23s1.875,1.737,1.509,2.972-2.057,2.057-2.286,3.566-1.143,2.332-1.966,2.332h-3.924s-.605-1.062.857-1.381,2.015-2.093,1.923-3.739a29.416,29.416,0,0,1,.137-3.841l3.109-.732Z" transform="translate(-2166.39 -1483.409)" fill="#2c3a64"/>
          <path id="Path_126" data-name="Path 126" d="M2111.136,1556.8a.91.91,0,0,1-.221.064h-10.4a1.786,1.786,0,0,1,1.662-1.3c1.639-.266,4.48-1.218,5.113-3.315.021-.067.038-.136.054-.206.5-2.24,4.16.687,4.16.687s.011.089.026.24C2111.613,1553.791,2111.831,1556.451,2111.136,1556.8Z" transform="translate(-2100.512 -1493.17)" fill="#2c3a64"/>
          <path id="Path_127" data-name="Path 127" d="M2107.69,1362.959s.555,6.931,1.208,15.263c.887,11.318,1.955,25.219,2.06,27.853.182,4.573.915,11.888.915,11.888s1.737,1.738,5.213,1.005a119.663,119.663,0,0,0,3.982-21.491q.021-.272.041-.546c.823-11.248,2.1-34.932,2.1-34.932Z" transform="translate(-2105.593 -1359.255)" fill="#2b478b"/>
          <path id="Path_128" data-name="Path 128" d="M2107.69,1362.959s.555,6.931,1.208,15.263l12.17,19.256q.021-.272.041-.546c.823-11.248,2.1-34.932,2.1-34.932Z" transform="translate(-2105.593 -1359.255)" fill="#233862"/>
          <path id="Path_129" data-name="Path 129" d="M2116.371,1357.137s10.013,25.1,16.6,36.9,8.642,15.089,8.642,15.089,3.772-1.509,4.115-2.538c0,0-2.518-22.773-6.927-28.325-2.491-3.137-5.418-12.551-5.555-15.843s-.891-9.807-.891-9.807Z" transform="translate(-2111.737 -1352.61)" fill="#2b478b"/>
        </g>
        <path id="Path_130" data-name="Path 130" d="M2096.936,1214.258s-4.995,6.589-9.077,6.994a10.915,10.915,0,0,1,1.663-3.881c-.333-.518-.623-.992-.872-1.414a24.163,24.163,0,0,1-1.2-2.254l1.823-3.434,1.237-2.329a11.9,11.9,0,0,0,1.152,2.241A9.776,9.776,0,0,0,2096.936,1214.258Z" transform="translate(-258.178 -19.417)" fill="#ffb27d"/>
        <path id="Path_131" data-name="Path 131" d="M2091.663,1215.488a7.582,7.582,0,0,1-3.014,5.776,24.154,24.154,0,0,1-1.2-2.253l1.823-3.434A7.747,7.747,0,0,1,2091.663,1215.488Z" transform="translate(-258.178 -24.723)" fill="#ed975d"/>
        <path id="Path_132" data-name="Path 132" d="M2073.5,1200.812s6.365-1.557,5.334-5.5-.9-6.808-5.01-5.981-4.5,2.539-4.477,3.94S2071.818,1201.115,2073.5,1200.812Z" transform="translate(-245.363 -6.14)" fill="#ffb27d"/>
        <path id="Path_133" data-name="Path 133" d="M2112,1265.57c-2.907,3.186-21.78,5.455-21.241,3.055a26.633,26.633,0,0,0,.634-4.792q.034-.79.025-1.681a38.5,38.5,0,0,0-2.424-12.58c-.137-.381-.281-.765-.432-1.155a37.509,37.509,0,0,1-1.777-6.021c-.78-3.822-.826-7.386.115-9.588,0-.011,1.23-3.528,1.236-3.539a8.11,8.11,0,0,0,5.213-4.4s12.707,4.063,17.7,22.379C2111.041,1247.253,2114.525,1262.8,2112,1265.57Z" transform="translate(-257.287 -31.403)" fill="#abddda"/>
        <path id="Path_134" data-name="Path 134" d="M2098.164,1300.945q.034-.79.025-1.681a38.5,38.5,0,0,0-2.424-12.581,17.173,17.173,0,0,1,2.391-5.422c3.112-3.546,4.7-3.954,4.7-3.954S2104.576,1294.241,2098.164,1300.945Z" transform="translate(-264.062 -68.514)" fill="#91cecf"/>
        <path id="Path_135" data-name="Path 135" d="M2075.844,1182.324c.053-.078.189-.151.5-.2a1.271,1.271,0,0,0-.606-.1,1.615,1.615,0,0,0-1.208-1.306.963.963,0,0,1,.534.641c-.973-.814-2.914-1.27-8.043-.285-6.759,1.3-4.023,5.484-3.082,5.916s3-1.263,4.663-1.311,2.238,2.331,2.832,2.6.311-.292,1.028-.722.929.833.8,1.683,1.031,1.826,1.031,1.826l.922-1.262c.922-1.262,1.375-6.228.784-7.21C2075.949,1182.5,2075.9,1182.412,2075.844,1182.324Z" transform="translate(-240.582 0)" fill="#233862"/>
        <g id="Group_102" data-name="Group 102" transform="translate(1810.867 1196.052)">
          <path id="Path_136" data-name="Path 136" d="M2030.206,1345.168a21.492,21.492,0,0,0-2.783.3A7.426,7.426,0,0,0,2025.4,1347c.016.148.13.241.439.178s1.268-.466,1.239-.328-2.743,1.493-2.615,2.079,1.995,1.225,3.342.931,4.08-2.368,4.258-2.519S2030.206,1345.168,2030.206,1345.168Z" transform="translate(-2024.458 -1312.599)" fill="#ffb27d"/>
          <path id="Path_137" data-name="Path 137" d="M2043.386,1267.446c-.849-1.091-.384-1.68-.384-1.68s10.221-9.93,11-10.906,3.326-15.462,3.326-15.462,1.454-3.486,4.652-4.463c2.779-.849,4.221-2.005,5.68-.5a6.085,6.085,0,0,1,1.139,6.76c-2.335,5.1-7.061,15.248-8.564,17.056-2.9,3.49-12.178,9.089-14.586,10.512a.937.937,0,0,1-1.1-.11A9.813,9.813,0,0,1,2043.386,1267.446Z" transform="translate(-2037.494 -1233.706)" fill="#abddda"/>
        </g>
        <path id="Path_138" data-name="Path 138" d="M1779.416,1225.423a2.828,2.828,0,0,0-1.71-1.062c-1.533-.349-2.228-.508-2.228-.508s-7.647,12.714-8.277,13.988q-.208.421-.73,1.348a1.187,1.187,0,0,1-1.34.564,57.64,57.64,0,0,1-8.629-2.924,8.111,8.111,0,0,0-8.3.894l-1.967,1.489a3.591,3.591,0,0,0,1.216,6.326c6.941,1.9,17.069,3.015,21.3,3.5,1.918.222,4.25-4.537,5.406-7.222l-.011,0C1776.626,1236.243,1779.416,1225.423,1779.416,1225.423Z" transform="translate(-15.658 -30.679)" fill="#abddda"/>
      </g>
      <line id="Line_9" data-name="Line 9" x2="683" transform="translate(0 767.407)" fill="none" stroke="#b8b8b8" stroke-width="1"/>
      <g id="Group_120" data-name="Group 120" transform="translate(-1137.912 -196.538)">
        <g id="Group_118" data-name="Group 118" transform="translate(1152.34 926.521)">
          <path id="Path_157" data-name="Path 157" d="M1171.994,970.989a3.3,3.3,0,0,0,.29-3.034,2.077,2.077,0,0,0-2.644-1.063,26.09,26.09,0,0,0-.576-8.218,6.737,6.737,0,0,0-2.077-3.941c-1.83-1.418-4.721-.793-6.2.985a7.306,7.306,0,0,0-1.085,6.587c-1.63-.451-3.6-.376-4.736.874-1.292,1.418-.967,3.623-.561,5.5.344,1.589.788,3.333,2.13,4.252-1.627.187-3.584.628-4.085,2.188a3.17,3.17,0,0,0,.554,2.646c1.712,2.578,5.15,3.331,8.244,3.407h1.529a5.281,5.281,0,0,0,2.477-.586c.8-.334,1.633-.588,2.444-.9a5.47,5.47,0,0,0,3.252-2.466,3.079,3.079,0,0,0-1.153-3.969A8.547,8.547,0,0,0,1171.994,970.989Z" transform="translate(-1152.34 -953.952)" fill="#dae3f2"/>
          <path id="Path_158" data-name="Path 158" d="M1190.609,1030.413v-21.827a.714.714,0,0,0-1.427,0v21.827a.714.714,0,0,0,1.427,0Z" transform="translate(-1179.4 -993.574)" fill="#f8f5ff"/>
          <path id="Path_159" data-name="Path 159" d="M1192.042,1023.862a5.889,5.889,0,0,0,3.219-3.769.714.714,0,0,0-1.376-.379c-.049.176-.108.347-.173.518s.066-.144,0,.012c-.021.045-.041.09-.062.135q-.053.112-.112.221a5.157,5.157,0,0,1-.284.466c-.028.041-.057.082-.086.122s-.1.17-.008.014a1.541,1.541,0,0,1-.174.21,5.292,5.292,0,0,1-.38.392q-.1.093-.2.181a.748.748,0,0,1-.115.094c.068-.036.085-.064.006-.006a5.09,5.09,0,0,1-.965.557.716.716,0,0,0-.256.976.735.735,0,0,0,.976.256Z" transform="translate(-1180.714 -1001.874)" fill="#f8f5ff"/>
          <path id="Path_160" data-name="Path 160" d="M1178.209,1035.863c-.42-.1-.841-.2-1.252-.336-.092-.031-.183-.062-.274-.1l-.15-.059c.095.039.012,0-.036-.018a4.177,4.177,0,0,1-.553-.3c-.039-.026-.077-.053-.116-.08-.063-.044-.035-.029.01.009-.072-.061-.145-.121-.213-.187s-.134-.133-.2-.2c-.013-.015-.113-.138-.051-.059s-.042-.062-.044-.064a2.532,2.532,0,0,1-.144-.238c-.017-.033-.033-.066-.05-.1-.081-.161.043.137-.013-.033-.026-.078-.052-.156-.07-.237a.474.474,0,0,1-.027-.135c0,.027.007.053.011.08,0-.037-.007-.074-.009-.111a.713.713,0,1,0-1.427,0,3.354,3.354,0,0,0,1.48,2.494,7.5,7.5,0,0,0,2.744,1.053.713.713,0,0,0,.379-1.376Z" transform="translate(-1167.959 -1011.996)" fill="#f8f5ff"/>
        </g>
        <g id="Group_119" data-name="Group 119" transform="translate(1172.04 916.606)">
          <path id="Path_161" data-name="Path 161" d="M1247.4,940.015a2.13,2.13,0,0,0-2.4-1.889c-.637.138-1.431.57-1.827.087a13.512,13.512,0,0,0,3.252-3.908,4.245,4.245,0,0,0-.452-4.682c-1.168-1.238-3.655-1.3-4.562.132a16.631,16.631,0,0,0-.029-8.452,7.1,7.1,0,0,0-2.08-3.715A3.853,3.853,0,0,0,1235.1,917a4.2,4.2,0,0,0-1.6,1.9c-1.22,2.52-1.175,5.393-.98,8.146-.9-1.112-2.963-.788-3.84.348a4.275,4.275,0,0,0-.334,4.023c.463,1.325,1.257,2.53,1.733,3.85a1.949,1.949,0,0,0-2.743.455,3.731,3.731,0,0,0-.385,2.892,11.734,11.734,0,0,0,3.555,6.388,2.378,2.378,0,0,0-3.191.448,4.215,4.215,0,0,0-.728,3.242c.494,4.356,3.651,8.521,11.1,8.141a9.228,9.228,0,0,0,7.084-4.292,5.789,5.789,0,0,0-1.5-7.4c.866-.764,1.884-1.371,2.722-2.163A3.8,3.8,0,0,0,1247.4,940.015Z" transform="translate(-1226.541 -916.606)" fill="#dae3f2"/>
          <path id="Path_162" data-name="Path 162" d="M1261.536,999.273v-33.75a.714.714,0,0,0-1.427,0v33.75a.714.714,0,0,0,1.427,0Z" transform="translate(-1251.197 -952.029)" fill="#f8f5ff"/>
          <path id="Path_163" data-name="Path 163" d="M1262.333,998.179a8.471,8.471,0,0,0,5.385-5.837.713.713,0,0,0-1.376-.379,6.937,6.937,0,0,1-1.595,2.964,7.8,7.8,0,0,1-.617.6,5.353,5.353,0,0,1-.665.509,6.819,6.819,0,0,1-1.512.763.731.731,0,0,0-.5.877.72.72,0,0,0,.878.5Z" transform="translate(-1252.167 -971.572)" fill="#f8f5ff"/>
          <path id="Path_164" data-name="Path 164" d="M1249.035,1023.05a3.211,3.211,0,0,1-2.164-1.774,4.941,4.941,0,0,1-.62-2.856.719.719,0,0,0-.713-.713.727.727,0,0,0-.713.713,6.356,6.356,0,0,0,.857,3.65,4.542,4.542,0,0,0,2.975,2.356.737.737,0,0,0,.877-.5.718.718,0,0,0-.5-.877Z" transform="translate(-1239.957 -990.864)" fill="#f8f5ff"/>
          <path id="Path_165" data-name="Path 165" d="M1252.817,972.241a10.1,10.1,0,0,1-.909-.833q-.22-.228-.425-.47-.1-.115-.19-.232c-.027-.035-.092-.12-.031-.04l-.1-.134a9.941,9.941,0,0,1-.666-1.038q-.146-.262-.276-.533c-.048-.1-.094-.2-.139-.3-.021-.048-.035-.083-.007-.013-.026-.062-.05-.124-.075-.186a.732.732,0,0,0-.878-.5.721.721,0,0,0-.5.878,10.736,10.736,0,0,0,3.185,4.412.731.731,0,0,0,1.009,0,.721.721,0,0,0,0-1.009Z" transform="translate(-1242.733 -954.303)" fill="#f8f5ff"/>
        </g>
      </g>
    </g>
  </g>
</svg>
