<svg xmlns="http://www.w3.org/2000/svg" width="24" height="34.388" viewBox="0 0 24 34.388">
    <g data-name="Group 6">
        <path data-name="Path 17" d="M669.583 317.494a.788.788 0 0 0 .789-.789v-7.113a2.635 2.635 0 0 0-3.67-2.443 8.5 8.5 0 0 0-8.8-2.389 2.632 2.632 0 0 0-3.787 2.389v10.46a12.469 12.469 0 0 0-3.185-2.061l-.026-.011c-1.767-.807-3.413-.365-4.195 1.125-.83 1.582-.041 2.464 1.493 3.464 1.5.978 3.8 3 4.093 4.749a7.145 7.145 0 0 0 2.557 4.107c.344.287.14.555.2 2.566a3.1 3.1 0 0 0 1.653 5.72h10.033a3.1 3.1 0 0 0 1.629-5.736c0-1.874-.108-2.491.488-3.286a7.561 7.561 0 0 0 1.518-4.566v-7.812a.789.789 0 0 0-1.577 0v7.812a6 6 0 0 1-1.2 3.621 4.348 4.348 0 0 0-.8 2.891v.876h-10.168V329.4a2.122 2.122 0 0 0-.767-1.634 5.582 5.582 0 0 1-2.011-3.153c-.371-2.248-2.888-4.574-4.787-5.813l-.014-.009a5.087 5.087 0 0 1-1.074-.894c-.022-.036-.074-.121.129-.507.535-1.021 1.677-.636 2.143-.423l.063.028a11.54 11.54 0 0 1 3.57 2.552 1.058 1.058 0 0 0 1.809-.742v-11.66a1.05 1.05 0 0 1 1.759-.8 1.036 1.036 0 0 1 .334.766v10.021a.789.789 0 0 0 1.577 0v-11.596a1.052 1.052 0 0 1 1.777-.791c.5.49.247 1.04.316 2.363v10.022a.789.789 0 1 0 1.577 0v-10.022a1.046 1.046 0 0 1 1.146-1.042 1.073 1.073 0 0 1 .947 1.08v9.984a.789.789 0 0 0 1.577 0v-7.574a1.036 1.036 0 0 1 .341-.773 1.05 1.05 0 0 1 1.752.811v7.113a.789.789 0 0 0 .791.787zM656.7 332.642h10.037a1.523 1.523 0 0 1 0 3.045H656.7a1.523 1.523 0 0 1 0-3.045z" transform="translate(-646.372 -302.876)" style="fill:#fff"/>
    </g>
</svg>
