<svg xmlns="http://www.w3.org/2000/svg" width="24.159" height="34.617" viewBox="0 0 24.159 34.617">
    <path data-name="Path 334" d="M922.6 212.2a13.694 13.694 0 0 0 0-3 8.48 8.48 0 0 1-3.4-4.6c-.8-3-5.8-5.6-5.8-5.6s-.4-4.2 3.6-2.6 4.2 3.4 4.2 3.4v-12.4a2.046 2.046 0 0 1 3-1.6c.2 0 2.4-3.2 4.8 0 0 .2 3.4-.8 3.8 3.4.2-.2 3.2-3 3.2 2.8-.2 0 0 11.6 0 11.6v3l-2 4.4s4.2 5.6-1.2 6.6c-.2.2-10.2 0-10.2 0s-2.6-2.2 0-5.4z" transform="translate(-912.841 -183.383)" style="fill:#f48634"/>
    <g data-name="Group 6">
        <path data-name="Path 17" d="M669.737 317.591a.794.794 0 0 0 .794-.794v-7.16a2.653 2.653 0 0 0-3.695-2.459 8.558 8.558 0 0 0-8.86-2.4 2.65 2.65 0 0 0-3.812 2.4V317.7a12.553 12.553 0 0 0-3.206-2.075l-.026-.011c-1.778-.812-3.436-.368-4.223 1.132-.835 1.592-.041 2.48 1.5 3.487 1.509.984 3.83 3.025 4.12 4.78a7.193 7.193 0 0 0 2.574 4.134c.346.288.141.559.2 2.583a3.122 3.122 0 0 0 1.664 5.758h10.1a3.123 3.123 0 0 0 1.64-5.774c0-1.886-.108-2.507.491-3.308a7.612 7.612 0 0 0 1.528-4.6v-7.864a.794.794 0 0 0-1.588 0v7.864a6.036 6.036 0 0 1-1.211 3.645 4.377 4.377 0 0 0-.808 2.91v.882H656.7v-1.675a2.136 2.136 0 0 0-.773-1.645 5.619 5.619 0 0 1-2.025-3.174c-.374-2.263-2.907-4.6-4.819-5.851l-.014-.009a5.12 5.12 0 0 1-1.081-.9c-.022-.036-.074-.122.13-.511.539-1.027 1.688-.64 2.158-.425l.064.028a11.616 11.616 0 0 1 3.594 2.568 1.065 1.065 0 0 0 1.821-.747v-11.728a1.057 1.057 0 0 1 1.771-.809 1.043 1.043 0 0 1 .336.771v10.088a.794.794 0 1 0 1.588 0v-11.671a1.059 1.059 0 0 1 1.789-.8c.506.494.249 1.047.318 2.379v10.088a.794.794 0 0 0 1.588 0v-10.084a1.053 1.053 0 0 1 1.154-1.049 1.08 1.08 0 0 1 .953 1.087v10.05a.794.794 0 0 0 1.588 0V309.6a1.043 1.043 0 0 1 .343-.778 1.057 1.057 0 0 1 1.764.816v7.16a.794.794 0 0 0 .79.793zM656.77 332.84h10.1a1.533 1.533 0 0 1 0 3.065h-10.1a1.533 1.533 0 0 1 0-3.065z" transform="translate(-646.372 -302.876)" style="fill:#fff"/>
    </g>
</svg>
