<?xml version="1.0" encoding="utf-8"?>
<!-- Generator: Adobe Illustrator 16.0.0, SVG Export Plug-In . SVG Version: 6.00 Build 0)  -->
<!DOCTYPE svg PUBLIC "-//W3C//DTD SVG 1.1//EN" "http://www.w3.org/Graphics/SVG/1.1/DTD/svg11.dtd">
<svg version="1.1" id="Layer_1" xmlns="http://www.w3.org/2000/svg" xmlns:xlink="http://www.w3.org/1999/xlink" x="0px" y="0px"
	 width="24px" height="34.389px" viewBox="0 0 24 34.389" enable-background="new 0 0 24 34.389" xml:space="preserve">
<g id="member" transform="translate(-646.372 -302.876)">
	<g id="Group_6" transform="translate(646.372 302.876)">
		<path id="Path_17" fill="#FFFFFF" d="M19.833,15.621c0.305,0,0.55-0.246,0.55-0.55c0,0,0,0,0-0.001V10.1
			c0.009-1.017-0.81-1.846-1.826-1.854c-0.254-0.001-0.504,0.049-0.736,0.148l0,0c-1.554-1.702-3.949-2.353-6.148-1.669
			C10.76,6.28,9.659,6.657,9.212,7.57c-0.125,0.257-0.189,0.54-0.186,0.825v7.308c-0.664-0.591-1.414-1.077-2.225-1.44l-0.018-0.008
			c-1.234-0.563-2.385-0.255-2.931,0.786c-0.58,1.105-0.029,1.722,1.043,2.42c1.047,0.684,2.654,2.097,2.858,3.318
			c0.244,1.135,0.876,2.149,1.787,2.869c0.24,0.2,0.098,0.387,0.14,1.792c-1.011,0.64-1.313,1.978-0.672,2.988
			c0.396,0.627,1.085,1.007,1.827,1.009h7.009c1.196-0.002,2.165-0.972,2.165-2.168c-0.001-0.751-0.39-1.445-1.027-1.841
			c0-1.309-0.075-1.739,0.341-2.296c0.692-0.919,1.064-2.039,1.062-3.189v-5.457c-0.011-0.304-0.266-0.542-0.57-0.531
			c-0.289,0.01-0.522,0.242-0.532,0.531v5.457c0.003,0.912-0.29,1.801-0.838,2.529c-0.42,0.586-0.617,1.303-0.56,2.021v0.611h-7.103
			v-1.165c0-0.44-0.197-0.858-0.537-1.14c-0.707-0.552-1.203-1.33-1.404-2.204c-0.259-1.57-2.018-3.196-3.345-4.061l-0.009-0.006
			c-0.277-0.172-0.53-0.383-0.75-0.624c-0.016-0.025-0.052-0.085,0.089-0.354c0.374-0.713,1.172-0.445,1.498-0.296l0.044,0.02
			c0.938,0.43,1.784,1.035,2.494,1.783c0.287,0.29,0.755,0.292,1.045,0.004c0.139-0.138,0.218-0.326,0.218-0.522V8.392
			c-0.01-0.406,0.311-0.742,0.715-0.752c0.19-0.004,0.374,0.065,0.514,0.192c0.149,0.138,0.234,0.333,0.233,0.536v7
			c0.011,0.304,0.266,0.542,0.571,0.531c0.29-0.01,0.522-0.242,0.531-0.531V7.267c-0.011-0.406,0.309-0.743,0.714-0.755
			c0.195-0.004,0.386,0.067,0.528,0.203c0.349,0.343,0.174,0.727,0.221,1.651v7.001c-0.012,0.304,0.227,0.56,0.532,0.57
			c0.304,0.011,0.559-0.228,0.569-0.532c0-0.013,0-0.026,0-0.039V8.366c-0.001-0.404,0.327-0.731,0.73-0.731
			c0.022,0,0.047,0.001,0.069,0.003c0.382,0.045,0.668,0.371,0.661,0.754v6.975c0.012,0.304,0.268,0.542,0.571,0.531
			c0.289-0.01,0.521-0.242,0.531-0.531v-5.291c0-0.206,0.086-0.402,0.239-0.54c0.301-0.271,0.765-0.247,1.034,0.055
			c0.127,0.139,0.194,0.323,0.188,0.511v4.969C19.281,15.376,19.527,15.622,19.833,15.621z M10.833,26.204h7.012
			c0.586,0.016,1.051,0.504,1.036,1.091c-0.014,0.566-0.471,1.022-1.036,1.037h-7.012c-0.588-0.016-1.052-0.504-1.037-1.091
			C9.81,26.675,10.266,26.218,10.833,26.204z"/>
	</g>
</g>
</svg>
