<?xml version="1.0" encoding="utf-8"?>
<!-- Generator: Adobe Illustrator 16.0.0, SVG Export Plug-In . SVG Version: 6.00 Build 0)  -->
<!DOCTYPE svg PUBLIC "-//W3C//DTD SVG 1.1//EN" "http://www.w3.org/Graphics/SVG/1.1/DTD/svg11.dtd">
<svg version="1.1" id="Layer_1" xmlns="http://www.w3.org/2000/svg" xmlns:xlink="http://www.w3.org/1999/xlink" x="0px" y="0px"
	 width="60px" height="47.75px" viewBox="0 0 60 47.75" enable-background="new 0 0 60 47.75" xml:space="preserve">
<path fill="#5E5E5E" d="M0.586,40.813c0-11.272,0-22.547,0-33.818C0.688,6.648,0.778,6.299,0.89,5.956
	c0.866-2.648,3.205-4.287,6.136-4.288c15.473-0.002,30.946-0.001,46.419,0c0.175,0,0.348,0.001,0.521,0.007
	c2.629,0.093,4.994,1.966,5.683,4.502c0.074,0.273,0.155,0.546,0.234,0.818c0,11.271,0,22.546,0,33.818
	c-0.024,0.027-0.065,0.053-0.071,0.085c-0.887,3.562-3.035,5.242-6.714,5.242c-12.696,0-25.39,0-38.085,0
	c-2.778,0-5.556,0.021-8.334-0.008c-2.663-0.028-4.963-1.752-5.79-4.282C0.779,41.509,0.688,41.159,0.586,40.813z M30.263,4.128
	c-7.72,0-15.44-0.002-23.161,0.001C4.6,4.13,3.05,5.674,3.049,8.169c-0.003,10.5-0.003,21,0,31.499
	c0.001,2.454,1.563,4.01,4.025,4.011c15.441,0.002,30.881,0.002,46.322,0c2.461-0.001,4.025-1.56,4.025-4.013
	c0.004-10.5,0.004-21-0.006-31.499c0-0.439-0.04-0.893-0.153-1.314c-0.461-1.702-1.907-2.721-3.839-2.722
	C45.703,4.126,37.983,4.128,30.263,4.128z"/>
<path fill="#5E5E5E" d="M19.083,28.855c-1.582,0-3.164-0.011-4.746,0.002c-2.296,0.016-3.844,1.558-3.874,3.849
	c-0.01,0.752,0.009,1.506-0.009,2.257c-0.018,0.757-0.518,1.279-1.2,1.294c-0.704,0.015-1.261-0.531-1.245-1.308
	c0.025-1.271-0.062-2.573,0.191-3.801c0.582-2.841,3.037-4.735,6.033-4.772c3.261-0.039,6.522-0.048,9.782,0.002
	c3.623,0.054,6.208,2.746,6.222,6.381c0.003,0.713,0.008,1.428-0.003,2.141c-0.011,0.795-0.502,1.339-1.204,1.357
	c-0.717,0.02-1.231-0.537-1.251-1.361c-0.025-0.964,0.03-1.937-0.081-2.889c-0.207-1.77-1.685-3.094-3.461-3.136
	c-1.716-0.039-3.435-0.008-5.152-0.008C19.083,28.86,19.083,28.858,19.083,28.855z"/>
<path fill="#5E5E5E" d="M12.954,17.714c0.008-3.411,2.807-6.199,6.19-6.169c3.417,0.03,6.16,2.813,6.134,6.224
	c-0.025,3.395-2.774,6.133-6.16,6.134C15.712,23.904,12.945,21.126,12.954,17.714z M19.089,14.034
	c-2.055,0.012-3.695,1.677-3.677,3.733c0.018,2.009,1.694,3.67,3.703,3.67c2.033,0,3.711-1.686,3.706-3.725
	C22.817,15.666,21.148,14.023,19.089,14.034z"/>
<path fill="#5E5E5E" d="M43.813,36.267c-2.391,0.001-4.782,0.005-7.172-0.002c-0.875-0.004-1.408-0.45-1.443-1.169
	c-0.032-0.645,0.362-1.157,1.009-1.276c0.226-0.042,0.461-0.04,0.691-0.04c4.609-0.002,9.217-0.002,13.825-0.002
	c0.116,0,0.231-0.002,0.348,0.002c0.847,0.025,1.39,0.505,1.396,1.228c0.01,0.743-0.546,1.252-1.424,1.257
	C48.634,36.273,46.224,36.267,43.813,36.267z"/>
<path fill="#5E5E5E" d="M43.813,14.031c2.429,0,4.859-0.008,7.288,0.004c1.066,0.005,1.687,0.929,1.221,1.79
	c-0.267,0.493-0.706,0.671-1.251,0.669c-2.045-0.008-4.088-0.003-6.134-0.003c-2.776,0-5.552,0.003-8.328-0.001
	c-0.757-0.001-1.271-0.365-1.392-0.962c-0.169-0.83,0.388-1.488,1.308-1.493C38.952,14.024,41.383,14.031,43.813,14.031z"/>
<path fill="#5E5E5E" d="M43.83,26.365c-2.315,0-4.628,0-6.942,0c-0.193,0-0.387,0.005-0.578-0.015
	c-0.653-0.062-1.102-0.537-1.116-1.179c-0.015-0.636,0.417-1.158,1.05-1.251c0.17-0.024,0.346-0.017,0.519-0.017
	c4.703-0.001,9.41,0,14.114,0c0.135,0,0.271-0.006,0.404,0.005c0.692,0.056,1.198,0.593,1.187,1.252
	c-0.015,0.642-0.502,1.155-1.177,1.19c-0.518,0.026-1.041,0.014-1.562,0.014C47.764,26.365,45.796,26.365,43.83,26.365z"/>
</svg>
