<svg xmlns="http://www.w3.org/2000/svg" width="13.015" height="14.865" viewBox="0 0 13.015 14.865">
  <g id="password-icon" transform="translate(405.714 -24.081)">
    <path id="Path_66" data-name="Path 66" d="M-398.915,24.081a8.427,8.427,0,0,1,.9.214,3.4,3.4,0,0,1,2.293,3.236c0,.61,0,1.219,0,1.829v.179c.213,0,.418,0,.624,0a2.464,2.464,0,0,1,.9.152,2.311,2.311,0,0,1,1.493,2.064c.018.75.009,1.5,0,2.25a.574.574,0,0,1-.577.586.577.577,0,0,1-.581-.6c0-.7,0-1.394,0-2.09a1.145,1.145,0,0,0-.857-1.154,1.377,1.377,0,0,0-.372-.047q-4.115,0-8.23,0a1.164,1.164,0,0,0-1.224,1.222q0,2.323,0,4.645a1.162,1.162,0,0,0,1.215,1.216q4.122,0,8.245,0a1.165,1.165,0,0,0,1.224-1.164.576.576,0,0,1,.431-.554.543.543,0,0,1,.612.219.749.749,0,0,1,.112.365,2.323,2.323,0,0,1-1.947,2.266.874.874,0,0,0-.108.03h-8.884a.178.178,0,0,0-.05-.024,2.346,2.346,0,0,1-2.015-2.387c.017-1.528,0-3.056.006-4.585a2.782,2.782,0,0,1,.049-.547,2.314,2.314,0,0,1,2.248-1.863c.235,0,.471,0,.72,0v-.171c0-.614,0-1.228,0-1.843a3.4,3.4,0,0,1,2.281-3.227,8.5,8.5,0,0,1,.913-.218Zm2.026,5.452c0-.033.005-.056.005-.08,0-.662.009-1.325-.006-1.987a2.277,2.277,0,0,0-.11-.654,2.32,2.32,0,0,0-2.614-1.535,2.278,2.278,0,0,0-1.915,2.267c0,.595,0,1.19,0,1.784v.2Z" transform="translate(0)" fill="#8f8f8f" fill-rule="evenodd"/>
    <path id="Path_67" data-name="Path 67" d="M-330.8,285.51a.583.583,0,0,1-.582.581.583.583,0,0,1-.577-.586.583.583,0,0,1,.575-.574A.582.582,0,0,1-330.8,285.51Z" transform="translate(-71.074 -251.384)" fill="#8f8f8f" fill-rule="evenodd"/>
    <path id="Path_68" data-name="Path 68" d="M-270.8,285.513a.583.583,0,0,1-.585.578.583.583,0,0,1-.575-.588.583.583,0,0,1,.577-.571A.583.583,0,0,1-270.8,285.513Z" transform="translate(-128.901 -251.385)" fill="#8f8f8f" fill-rule="evenodd"/>
    <path id="Path_69" data-name="Path 69" d="M-211.378,286.088a.583.583,0,0,1-.575-.588.583.583,0,0,1,.591-.572.583.583,0,0,1,.568.58A.583.583,0,0,1-211.378,286.088Z" transform="translate(-186.729 -251.382)" fill="#8f8f8f" fill-rule="evenodd"/>
    <path id="Path_70" data-name="Path 70" d="M-150.56,284.931a.583.583,0,0,1,.573.59.583.583,0,0,1-.594.569.583.583,0,0,1-.566-.583A.583.583,0,0,1-150.56,284.931Z" transform="translate(-245.329 -251.384)" fill="#8f8f8f" fill-rule="evenodd"/>
  </g>
</svg>
