<svg xmlns="http://www.w3.org/2000/svg" width="28.548" height="16.064" viewBox="0 0 28.548 16.064">
  <g id="plate-icon" transform="translate(472.25 -155.597)">
    <path id="Path_64" data-name="Path 64" d="M-443.7,169.372c-.042.14-.082.28-.126.419a2.678,2.678,0,0,1-2.485,1.863c-.594.012-1.189,0-1.784,0H-469.3a2.69,2.69,0,0,1-2.911-2.245c0-.016-.023-.027-.035-.041V157.886c.049-.157.093-.316.146-.471a2.663,2.663,0,0,1,2.492-1.812c.947-.012,1.9,0,2.843,0h20.121a2.684,2.684,0,0,1,2.91,2.245c0,.016.023.027.035.041Zm-14.26-11.988h-11.457a.919.919,0,0,0-1.047,1.039q0,5.2,0,10.4c0,.721.335,1.053,1.06,1.053h22.858a.921.921,0,0,0,1.06-1.053q0-5.185,0-10.37c0-.739-.33-1.067-1.074-1.067Z" fill="#8f8f8f" fill-rule="evenodd"/>
    <path id="Path_65" data-name="Path 65" d="M-427.515,204.731c-.333.747-.634,1.434-.944,2.118a.9.9,0,0,1-1.038.55.887.887,0,0,1-.6-1.248c.4-.919.765-1.855,1.23-2.739a1.717,1.717,0,0,0,.005-1.779c-.454-.859-.815-1.767-1.194-2.664a1.3,1.3,0,0,1-.1-.642.847.847,0,0,1,.755-.711.883.883,0,0,1,.91.509c.285.614.553,1.236.829,1.853.04.09.087.177.15.3.054-.1.094-.172.126-.243.276-.618.548-1.238.828-1.854a.892.892,0,0,1,1.195-.5.894.894,0,0,1,.431,1.22q-.731,1.669-1.48,3.33a.592.592,0,0,0-.006.547q.745,1.632,1.455,3.28a1.291,1.291,0,0,1,.1.642.846.846,0,0,1-.755.712.885.885,0,0,1-.91-.509c-.285-.614-.552-1.236-.828-1.854C-427.4,204.965-427.442,204.878-427.515,204.731Z" transform="translate(-38.943 -38.888)" fill="#8f8f8f" fill-rule="evenodd"/>
    <path id="Path_66" data-name="Path 66" d="M-235.722,205.48c.641,0,1.226,0,1.811,0a.9.9,0,0,1,.966.894.9.9,0,0,1-.971.889c-1.133,0-2.267,0-3.4,0a.9.9,0,0,1-.874-.484.886.886,0,0,1,.086-.97q1.37-2.049,2.736-4.1a3.59,3.59,0,0,0,.637-1.93c.01-.375-.158-.542-.538-.546-.241,0-.483,0-.725,0-.338.006-.483.143-.52.484a.889.889,0,0,1-1.345.723.874.874,0,0,1-.437-.79,2.226,2.226,0,0,1,2.043-2.191,6.916,6.916,0,0,1,1.363.014,2.27,2.27,0,0,1,1.93,2.666,5.773,5.773,0,0,1-.988,2.658c-.545.8-1.073,1.605-1.608,2.409C-235.606,205.285-235.651,205.363-235.722,205.48Z" transform="translate(-216.557 -38.728)" fill="#8f8f8f" fill-rule="evenodd"/>
    <path id="Path_67" data-name="Path 67" d="M-314.4,197.371a10.6,10.6,0,0,1,1.221.069,2.191,2.191,0,0,1,1.828,2.149c.008.427,0,.855,0,1.282a2.444,2.444,0,0,1-.338,1.275.333.333,0,0,0-.009.283,2.293,2.293,0,0,1,.342,1.218,12.414,12.414,0,0,1-.055,1.751,2.158,2.158,0,0,1-2.082,1.8c-.622.017-1.245.011-1.868,0a.89.89,0,0,1-.9-.878.887.887,0,0,1,.9-.9c.557-.008,1.115,0,1.673,0,.384,0,.544-.16.548-.539s0-.781,0-1.171a.457.457,0,0,0-.511-.519c-.149,0-.3.006-.446,0a.9.9,0,0,1-.825-.893.89.89,0,0,1,.833-.884c.167-.011.335,0,.5-.006a.432.432,0,0,0,.444-.442q.017-.669,0-1.338a.44.44,0,0,0-.5-.446c-.539-.005-1.078,0-1.617,0a.908.908,0,0,1-1-.886.9.9,0,0,1,.989-.9c.288,0,.576,0,.864,0Z" transform="translate(-144.394 -38.668)" fill="#8f8f8f" fill-rule="evenodd"/>
    <path id="Path_68" data-name="Path 68" d="M-154.3,202.512c0-1.329,0-2.657,0-3.986a.89.89,0,0,1,.782-.9.892.892,0,0,1,.968.665,1.084,1.084,0,0,1,.031.275q0,3.958,0,7.916a.9.9,0,0,1-.881.951.9.9,0,0,1-.9-.959Q-154.3,204.491-154.3,202.512Z" transform="translate(-294.31 -38.893)" fill="#8f8f8f" fill-rule="evenodd"/>
    <path id="Path_69" data-name="Path 69" d="M-356.7,251.6c.232,0,.465-.007.7,0a.893.893,0,0,1,.868.879.888.888,0,0,1-.874.9c-.455.012-.91.011-1.365,0a.89.89,0,0,1-.881-.893.891.891,0,0,1,.887-.887C-357.142,251.593-356.919,251.6-356.7,251.6Z" transform="translate(-105.522 -88.861)" fill="#8f8f8f" fill-rule="evenodd"/>
  </g>
</svg>
