<svg xmlns="http://www.w3.org/2000/svg" width="24.5" height="22.961" viewBox="0 0 24.5 22.961">
  <g id="pollution-icon" transform="translate(1749.601 228.098)">
    <path id="Path_323" data-name="Path 323" d="M-1742.437-120.875v1.417h-4.3v-1.408h-2.86v-4.311h2.844V-126.6h4.312v1.4h1.563a3.635,3.635,0,0,1,1.01-1.833,3.651,3.651,0,0,1,1.842-.968v-1.677a13.494,13.494,0,0,1-1.3-.785,4.248,4.248,0,0,1-1.465-4.5,4.33,4.33,0,0,1,3.582-3.108,4.208,4.208,0,0,1,3.075.776.255.255,0,0,0,.333,0,5.731,5.731,0,0,1,8.566,3.737,5.521,5.521,0,0,1-1.226,4.876c-.04.049-.084.1-.125.145a.822.822,0,0,0-.048.1.75.75,0,0,1,.141.087,4.305,4.305,0,0,1,1.1,4.713,4.3,4.3,0,0,1-4,2.759q-6.366.01-12.732,0Zm9.982-7.4c.049-.036.11-.076.164-.122a4.228,4.228,0,0,1,4.106-.91.4.4,0,0,0,.471-.132,4.2,4.2,0,0,0,1.129-3.475,4.291,4.291,0,0,0-3.458-3.684,4.381,4.381,0,0,0-4.583,2.065c-.09.156-.171.318-.259.482l-1.3-.554a5.816,5.816,0,0,1,1.042-1.642,2.856,2.856,0,0,0-2-.385,2.9,2.9,0,0,0-2.365,2.625,2.858,2.858,0,0,0,2.025,2.934.266.266,0,0,0,.326-.092,3.4,3.4,0,0,1,1.446-.986,3.172,3.172,0,0,1,1.209-.21v1.42a2.172,2.172,0,0,0-2.135,2.064c-.049,1.212.723,2.033,2.136,2.276v1.405c-.1,0-.187.007-.273,0a3.53,3.53,0,0,1-2.441-1.26.4.4,0,0,0-.411-.152,2.162,2.162,0,0,0-1.887,2.182c0,.22,0,.441,0,.686h-2.908v1.427h.245q6.342,0,12.683,0a3.658,3.658,0,0,0,.571-.045,2.877,2.877,0,0,0,2.327-3.4,2.907,2.907,0,0,0-3.45-2.23,3,3,0,0,0-1.376.745Zm-12.846,7.385h1.413v-4.281h-1.413Zm-2.862-2.855v1.415h1.4v-1.415Z" transform="translate(0 -85.68)" fill="#8f8f8f" fill-rule="evenodd"/>
    <path id="Path_324" data-name="Path 324" d="M-1629-225.955a2.16,2.16,0,0,1,2.177-2.143,2.159,2.159,0,0,1,2.131,2.164,2.159,2.159,0,0,1-2.176,2.143A2.161,2.161,0,0,1-1629-225.955Zm2.871.011a.726.726,0,0,0-.711-.718.726.726,0,0,0-.724.7.727.727,0,0,0,.723.73A.726.726,0,0,0-1626.13-225.944Z" transform="translate(-114.826 0)" fill="#8f8f8f" fill-rule="evenodd"/>
  </g>
</svg>
