<svg xmlns="http://www.w3.org/2000/svg" width="25.804" height="12.5" viewBox="0 0 25.804 12.5">
  <path id="right-arrow-icon" d="M-1246.25-714.332a1.15,1.15,0,0,1,1.256-.813q10.364.016,20.728.007h.359c-.1-.1-.164-.174-.231-.241q-1.632-1.626-3.266-3.252a.986.986,0,0,1-.276-1.038.95.95,0,0,1,.739-.684,1,1,0,0,1,.981.316q1.829,1.822,3.661,3.641c.452.45.916.89,1.351,1.355a6.118,6.118,0,0,1,.5.708v.4a5.067,5.067,0,0,1-.5.708q-2.487,2.5-5,4.977a1.01,1.01,0,0,1-1.442.11,1,1,0,0,1-.018-1.495q1.628-1.631,3.266-3.252a1.837,1.837,0,0,1,.221-.164l-.039-.078h-.286q-10.376,0-20.752.007a1.152,1.152,0,0,1-1.257-.813Z" transform="translate(1246.25 720.38)" fill="#fff" fill-rule="evenodd"/>
</svg>
