<svg xmlns="http://www.w3.org/2000/svg" width="15.218" height="16.777" viewBox="0 0 15.218 16.777">
  <g id="road-icon" transform="translate(1151.207 -333.526)">
    <path id="Path_318" data-name="Path 318" d="M-1150.631,350.3a.58.58,0,0,1-.562-.712q.347-1.747.7-3.493.869-4.343,1.737-8.687.335-1.675.668-3.35a.6.6,0,0,1,.506-.527.552.552,0,0,1,.615.353.822.822,0,0,1,.028.41q-1.005,5.062-2.023,10.121-.536,2.678-1.072,5.356A.582.582,0,0,1-1150.631,350.3Z" transform="translate(0)" fill="#8f8f8f" fill-rule="evenodd"/>
    <path id="Path_319" data-name="Path 319" d="M-927.121,334.151a.588.588,0,0,1,.495-.6.564.564,0,0,1,.648.434c.106.463.193.93.287,1.4q.946,4.728,1.892,9.456.475,2.373.948,4.746a.6.6,0,0,1-.444.727.591.591,0,0,1-.708-.5q-.534-2.668-1.065-5.337-.885-4.433-1.77-8.865c-.088-.442-.179-.883-.267-1.325A1.236,1.236,0,0,1-927.121,334.151Z" transform="translate(-213.152 -0.021)" fill="#8f8f8f" fill-rule="evenodd"/>
    <path id="Path_320" data-name="Path 320" d="M-1006.1,552.176c0,.713,0,1.425,0,2.138a.584.584,0,0,1-.523.584.589.589,0,0,1-.628-.446.6.6,0,0,1-.017-.144q0-2.138,0-4.276a.585.585,0,0,1,.442-.579.568.568,0,0,1,.649.29.847.847,0,0,1,.075.35C-1006.1,550.787-1006.1,551.482-1006.1,552.176Z" transform="translate(-136.908 -205.376)" fill="#8f8f8f" fill-rule="evenodd"/>
    <path id="Path_321" data-name="Path 321" d="M-1006.112,447.606c0,.5,0,1,0,1.5a.585.585,0,0,1-.585.631.581.581,0,0,1-.584-.631q0-1.507,0-3.014a.59.59,0,0,1,.594-.643.592.592,0,0,1,.576.643C-1006.11,446.6-1006.112,447.1-1006.112,447.606Z" transform="translate(-136.901 -106.46)" fill="#8f8f8f" fill-rule="evenodd"/>
    <path id="Path_322" data-name="Path 322" d="M-1007.281,351.2c0-.366,0-.732,0-1.1a.59.59,0,0,1,.58-.64.588.588,0,0,1,.59.63q0,1.125,0,2.25a.589.589,0,0,1-.589.631.591.591,0,0,1-.58-.64C-1007.282,351.952-1007.281,351.574-1007.281,351.2Z" transform="translate(-136.903 -15.155)" fill="#8f8f8f" fill-rule="evenodd"/>
  </g>
</svg>
