<?xml version="1.0" encoding="utf-8"?>
<!-- Generator: Adobe Illustrator 16.0.0, SVG Export Plug-In . SVG Version: 6.00 Build 0)  -->
<!DOCTYPE svg PUBLIC "-//W3C//DTD SVG 1.1//EN" "http://www.w3.org/Graphics/SVG/1.1/DTD/svg11.dtd">
<svg version="1.1" id="Layer_1" xmlns="http://www.w3.org/2000/svg" xmlns:xlink="http://www.w3.org/1999/xlink" x="0px" y="0px"
	 width="25.5px" height="25.5px" viewBox="0 0 25.5 25.5" enable-background="new 0 0 25.5 25.5" xml:space="preserve">
<g id="setting" transform="translate(-0.75 -0.75)">
	<g id="Path_15">
		<path fill="#FFFFFF" d="M13.499,17.523c-2.218,0-4.023-1.805-4.023-4.023c0-2.218,1.805-4.023,4.023-4.023
			c2.218,0,4.022,1.805,4.022,4.023C17.521,15.719,15.717,17.523,13.499,17.523z M13.5,10.977c-1.392,0-2.524,1.132-2.524,2.523
			c0,1.392,1.132,2.523,2.523,2.523c1.391,0,2.522-1.132,2.522-2.523C16.021,12.109,14.891,10.978,13.5,10.977z"/>
	</g>
	<g id="Path_16">
		<path fill="#FFFFFF" d="M13.588,26.249c-1.617,0-2.932-1.315-2.932-2.933c-0.01-0.516-0.279-0.893-0.687-1.042
			c-0.514-0.223-0.899-0.102-1.202,0.191c-1.201,1.235-3.08,1.205-4.202,0.107c-0.561-0.546-0.875-1.279-0.884-2.063
			c-0.009-0.783,0.287-1.523,0.834-2.083l0.639,0.42l-0.539-0.521c0.408-0.422,0.396-1.098-0.026-1.506
			c-0.196-0.189-0.456-0.296-0.73-0.299H3.682c-1.617,0-2.932-1.315-2.932-2.932c0-1.617,1.315-2.932,2.932-2.932h0.1
			c0.416-0.01,0.793-0.28,0.943-0.688C4.917,9.533,4.834,9.078,4.533,8.77C3.916,8.152,3.611,7.416,3.611,6.631
			c0-0.783,0.306-1.52,0.86-2.074C5.58,3.45,7.511,3.451,8.619,4.559c0.393,0.386,0.829,0.439,1.217,0.27
			c0.064-0.029,0.133-0.048,0.202-0.057c0.323-0.185,0.527-0.529,0.528-0.907V3.682c0-1.616,1.316-2.931,2.932-2.931
			c1.616,0,2.932,1.315,2.933,2.931v0.101c0.006,0.574,0.482,1.046,1.063,1.046c0.285-0.003,0.544-0.109,0.74-0.298
			c1.195-1.228,3.08-1.2,4.2-0.104c1.156,1.13,1.18,2.99,0.051,4.147l-0.641-0.421l0.536,0.524
			c-0.301,0.309-0.384,0.764-0.209,1.159c0.028,0.065,0.048,0.133,0.057,0.203c0.185,0.323,0.528,0.526,0.906,0.528h0.183
			c1.616,0,2.932,1.315,2.932,2.932c0,1.617-1.315,2.933-2.932,2.933h-0.101c-0.396,0.001-0.757,0.228-0.934,0.583
			c-0.008,0.021-0.016,0.043-0.025,0.064c-0.174,0.395-0.092,0.848,0.21,1.155c1.21,1.183,1.232,3.043,0.104,4.201
			c-1.094,1.122-3.024,1.145-4.146,0.051l0.42-0.64l-0.521,0.539c-0.408-0.395-1.109-0.383-1.506,0.026
			c-0.189,0.196-0.295,0.456-0.299,0.731v0.175C16.52,24.934,15.204,26.249,13.588,26.249z M9.502,20.667
			c0.356,0,0.703,0.073,1.029,0.217c0.945,0.347,1.601,1.262,1.625,2.315c0,0.006,0,0.111,0,0.117c0,0.79,0.643,1.433,1.432,1.433
			c0.789,0,1.432-0.643,1.432-1.433v-0.185c0.009-0.668,0.264-1.291,0.72-1.764c0.955-0.985,2.642-1.015,3.628-0.063
			c0.003,0.003,0.071,0.071,0.074,0.074c0.613,0.599,1.524,0.555,2.057,0.007c0.552-0.566,0.542-1.476-0.023-2.026
			c-0.004-0.004-0.072-0.072-0.075-0.076c-0.715-0.729-0.925-1.792-0.547-2.731c0.008-0.027,0.018-0.054,0.029-0.08
			c0.401-0.935,1.318-1.54,2.334-1.543h0.103c0.789,0,1.432-0.643,1.432-1.433c0-0.79-0.643-1.432-1.432-1.432h-0.186
			c-1.021-0.004-1.936-0.611-2.336-1.545c-0.031-0.074-0.051-0.151-0.058-0.23c-0.34-0.922-0.124-1.951,0.57-2.661
			c0.002-0.003,0.07-0.071,0.073-0.073c0.581-0.594,0.569-1.503,0.004-2.056c-0.546-0.535-1.492-0.522-2.025,0.025
			c-0.005,0.005-0.077,0.079-0.082,0.083c-0.474,0.458-1.098,0.714-1.758,0.721c-1.427,0-2.576-1.139-2.59-2.539V3.682
			c-0.001-0.789-0.643-1.431-1.432-1.431c-0.79,0-1.432,0.642-1.433,1.432v0.185c-0.004,1.02-0.611,1.936-1.545,2.336
			c-0.073,0.031-0.151,0.051-0.23,0.058C9.383,6.596,8.324,6.37,7.629,5.69C7.627,5.688,7.561,5.621,7.559,5.619
			C7.017,5.077,6.072,5.077,5.531,5.618c-0.271,0.271-0.42,0.631-0.42,1.014c0,0.383,0.149,0.743,0.419,1.014
			c0,0,0.07,0.07,0.071,0.071c0.737,0.753,0.938,1.857,0.514,2.816c-0.346,0.945-1.262,1.6-2.315,1.625H3.682
			c-0.79,0-1.432,0.642-1.432,1.432c0,0.789,0.643,1.432,1.432,1.432h0.185c0.668,0.009,1.291,0.264,1.764,0.72
			c1.017,0.984,1.045,2.611,0.062,3.628c-0.002,0.002-0.069,0.07-0.072,0.072c-0.3,0.308-0.445,0.669-0.44,1.052
			c0.005,0.382,0.158,0.74,0.432,1.007c0.548,0.537,1.492,0.523,2.026-0.023c0.004-0.005,0.076-0.079,0.081-0.083
			C8.198,20.925,8.832,20.667,9.502,20.667z"/>
	</g>
</g>
</svg>
