<svg xmlns="http://www.w3.org/2000/svg" width="23.565" height="16.107" viewBox="0 0 23.565 16.107">
  <g id="state-icon" transform="translate(1385.25 425.888)">
    <g id="Path_46" data-name="Path 46" transform="translate(0 0)" fill="#8f8f8f" fill-rule="evenodd">
      <path d="M -1366.99560546875 -410.0303649902344 C -1367.059326171875 -410.0303344726562 -1367.123901367188 -410.035888671875 -1367.187622070312 -410.0468139648438 C -1367.898071289062 -410.168701171875 -1368.517944335938 -410.5562133789062 -1369.082763671875 -411.2315368652344 C -1369.298461914062 -411.4894409179688 -1369.489501953125 -411.785888671875 -1369.674194335938 -412.0725402832031 C -1369.706787109375 -412.1231994628906 -1369.739379882812 -412.173828125 -1369.772094726562 -412.2242431640625 C -1369.906494140625 -412.4312438964844 -1370.13134765625 -412.7065124511719 -1370.530639648438 -412.7065124511719 C -1370.6064453125 -412.7065124511719 -1370.68701171875 -412.6962890625 -1370.770141601562 -412.6761474609375 C -1371.307006835938 -412.5460510253906 -1371.889526367188 -412.3816528320312 -1372.550903320312 -412.1734924316406 C -1372.991577148438 -412.0349426269531 -1373.272216796875 -411.7021179199219 -1373.521850585938 -411.3730773925781 C -1373.751342773438 -411.0706176757812 -1374.078247070312 -410.8971557617188 -1374.419067382812 -410.8971252441406 C -1374.59326171875 -410.8971252441406 -1374.761474609375 -410.9418029785156 -1374.919067382812 -411.0299682617188 C -1375.081665039062 -411.120849609375 -1375.247314453125 -411.2002563476562 -1375.407592773438 -411.2770690917969 C -1375.535278320312 -411.3382568359375 -1375.655883789062 -411.3960571289062 -1375.77490234375 -411.4591064453125 C -1375.974243164062 -411.5646667480469 -1376.184204101562 -411.7486877441406 -1376.398803710938 -412.006103515625 C -1376.561889648438 -412.2018737792969 -1376.70263671875 -412.4209289550781 -1376.851684570312 -412.6528015136719 C -1376.91748046875 -412.7552490234375 -1376.985473632812 -412.8611450195312 -1377.056640625 -412.9666442871094 L -1377.231689453125 -413.2261047363281 L -1377.446044921875 -412.9981079101562 C -1377.488647460938 -412.9528198242188 -1377.530029296875 -412.9084167480469 -1377.570922851562 -412.8647155761719 C -1377.659423828125 -412.7698364257812 -1377.743041992188 -412.6802368164062 -1377.828491210938 -412.5921936035156 C -1378.100708007812 -412.3111877441406 -1378.443725585938 -412.156494140625 -1378.79443359375 -412.156494140625 C -1379.109375 -412.156494140625 -1379.412719726562 -412.2781677246094 -1379.671630859375 -412.5083618164062 C -1380.314575195312 -413.080078125 -1380.975219726562 -413.5430297851562 -1381.69140625 -413.9236755371094 C -1382.289184570312 -414.2413940429688 -1382.6298828125 -414.7407531738281 -1382.7041015625 -415.4078674316406 C -1382.765991210938 -415.9660339355469 -1383.003784179688 -416.3910827636719 -1383.430786132812 -416.707275390625 C -1383.59326171875 -416.8274841308594 -1383.754638671875 -416.9598693847656 -1383.91064453125 -417.0879211425781 C -1383.9814453125 -417.1459655761719 -1384.052124023438 -417.2040100097656 -1384.123413085938 -417.2613525390625 C -1384.58447265625 -417.6320495605469 -1384.859008789062 -418.0867004394531 -1384.962890625 -418.6513671875 C -1384.971313476562 -418.6969909667969 -1384.986328125 -418.7344055175781 -1384.999877929688 -418.7640380859375 L -1384.999877929688 -419.3499450683594 C -1384.8876953125 -419.6189575195312 -1384.77490234375 -419.8876953125 -1384.662109375 -420.1564636230469 C -1384.37841796875 -420.8323364257812 -1384.0849609375 -421.5312194824219 -1383.806884765625 -422.2237854003906 C -1383.666625976562 -422.57275390625 -1383.54638671875 -422.9325561523438 -1383.43017578125 -423.2804870605469 C -1383.387329101562 -423.4090270996094 -1383.344360351562 -423.5375671386719 -1383.300415039062 -423.6656799316406 C -1382.95458984375 -424.6740417480469 -1382.263305664062 -425.1853332519531 -1381.245727539062 -425.1853332519531 C -1381.146728515625 -425.1853332519531 -1381.043579101562 -425.1802673339844 -1380.939208984375 -425.1702880859375 C -1379.70849609375 -425.0525512695312 -1378.456665039062 -424.9412841796875 -1377.246215820312 -424.8336791992188 C -1376.629272460938 -424.7788391113281 -1376.012329101562 -424.7239990234375 -1375.395629882812 -424.6681213378906 C -1375.351806640625 -424.6641540527344 -1375.307861328125 -424.6604309082031 -1375.263916015625 -424.65673828125 C -1375.079833984375 -424.6411743164062 -1374.906005859375 -424.6264953613281 -1374.73828125 -424.5926208496094 C -1374.439697265625 -424.5323486328125 -1374.23876953125 -424.2920532226562 -1374.226196289062 -423.9804382324219 C -1374.220581054688 -423.8421936035156 -1374.221923828125 -423.7034606933594 -1374.223388671875 -423.5428161621094 C -1374.22412109375 -423.4647827148438 -1374.224853515625 -423.3829956054688 -1374.224853515625 -423.2955932617188 L -1374.224853515625 -422.7294006347656 L -1373.806396484375 -423.11083984375 L -1373.714965820312 -423.1944580078125 C -1373.661254882812 -423.2436828613281 -1373.616455078125 -423.2847595214844 -1373.571166992188 -423.3250732421875 C -1373.326293945312 -423.54296875 -1373.039794921875 -423.6580505371094 -1372.742431640625 -423.6580505371094 C -1372.53857421875 -423.6580505371094 -1372.342651367188 -423.6038513183594 -1372.16015625 -423.4969482421875 C -1371.733764648438 -423.2470397949219 -1371.584594726562 -422.8281555175781 -1371.750854492188 -422.3476257324219 C -1371.8046875 -422.1924743652344 -1371.880615234375 -422.0413513183594 -1371.961059570312 -421.8813781738281 C -1372.014038085938 -421.7758483886719 -1372.06884765625 -421.666748046875 -1372.1181640625 -421.5540771484375 C -1372.205810546875 -421.3538818359375 -1372.28955078125 -421.1380920410156 -1372.3818359375 -420.8751220703125 C -1372.4873046875 -420.5738220214844 -1372.385375976562 -420.2726745605469 -1372.1337890625 -420.1427307128906 C -1372.010498046875 -420.0791320800781 -1371.855224609375 -420.0411987304688 -1371.718383789062 -420.0411987304688 C -1371.625610351562 -420.0411987304688 -1371.542358398438 -420.0580444335938 -1371.470947265625 -420.0912475585938 C -1371.244384765625 -420.1963195800781 -1371.03173828125 -420.3725891113281 -1370.8876953125 -420.5747985839844 C -1370.666870117188 -420.8849487304688 -1370.463500976562 -421.2272644042969 -1370.283325195312 -421.5922546386719 C -1370.050415039062 -422.0632934570312 -1369.833374023438 -422.3515930175781 -1369.413452148438 -422.4307556152344 C -1369.34912109375 -422.44287109375 -1369.283569335938 -422.4490356445312 -1369.218627929688 -422.4490356445312 C -1368.630493164062 -422.4490356445312 -1368.130737304688 -421.9590454101562 -1368.104614257812 -421.3567199707031 C -1368.101318359375 -421.2797241210938 -1368.101806640625 -421.2016296386719 -1368.102416992188 -421.1189880371094 C -1368.10302734375 -421.0399780273438 -1368.103515625 -420.9582824707031 -1368.1005859375 -420.8753662109375 C -1368.08544921875 -420.4618225097656 -1367.787841796875 -420.1617126464844 -1367.39306640625 -420.1617126464844 C -1367.008544921875 -420.1632080078125 -1366.699340820312 -420.4696350097656 -1366.686157226562 -420.859375 C -1366.678344726562 -421.0938720703125 -1366.679565429688 -421.3301391601562 -1366.6806640625 -421.5586242675781 C -1366.681396484375 -421.6806335449219 -1366.682006835938 -421.8026123046875 -1366.681274414062 -421.924560546875 C -1366.677001953125 -422.7074890136719 -1366.232177734375 -423.278076171875 -1365.49169921875 -423.450927734375 C -1365.061279296875 -423.5513610839844 -1364.745971679688 -423.781494140625 -1364.527587890625 -424.1544189453125 C -1364.41845703125 -424.340576171875 -1364.295288085938 -424.5267639160156 -1364.17626953125 -424.7068481445312 C -1364.096801757812 -424.8269958496094 -1364.0146484375 -424.9512634277344 -1363.935913085938 -425.076416015625 C -1363.6982421875 -425.4541015625 -1363.400024414062 -425.6377563476562 -1363.024047851562 -425.6377563476562 C -1362.972778320312 -425.6377563476562 -1362.919189453125 -425.6342163085938 -1362.865112304688 -425.6272888183594 C -1362.390991210938 -425.5664978027344 -1362.096069335938 -425.30224609375 -1361.96337890625 -424.8194885253906 C -1361.955932617188 -424.7929077148438 -1361.945556640625 -424.7698669433594 -1361.934692382812 -424.7504272460938 L -1361.934692382812 -423.7879028320312 C -1361.97265625 -423.7147216796875 -1362.009399414062 -423.64111328125 -1362.045043945312 -423.5694885253906 C -1362.142333984375 -423.3745727539062 -1362.234130859375 -423.1904907226562 -1362.345581054688 -423.0213012695312 C -1362.898681640625 -422.1824951171875 -1363.496459960938 -421.2957763671875 -1364.28369140625 -420.146240234375 C -1364.340209960938 -420.0636291503906 -1364.422119140625 -419.9917602539062 -1364.492431640625 -419.9631042480469 C -1364.513793945312 -419.9543762207031 -1364.536254882812 -419.9497680664062 -1364.5576171875 -419.9497680664062 C -1364.597778320312 -419.9497680664062 -1364.625732421875 -419.96435546875 -1364.640502929688 -419.9931030273438 C -1364.679443359375 -420.0683898925781 -1364.681640625 -420.2078247070312 -1364.680541992188 -420.3133850097656 C -1364.671997070312 -420.3252868652344 -1364.659790039062 -420.3407592773438 -1364.650756835938 -420.3522644042969 C -1364.631713867188 -420.3765258789062 -1364.612915039062 -420.4007873535156 -1364.596801757812 -420.4246215820312 C -1364.41650390625 -420.6924438476562 -1364.236938476562 -420.9602966308594 -1364.057495117188 -421.2281494140625 C -1363.571533203125 -421.9532470703125 -1363.068969726562 -422.7030029296875 -1362.564331054688 -423.43212890625 C -1362.283813476562 -423.8377380371094 -1362.335205078125 -424.2521362304688 -1362.380493164062 -424.6177368164062 C -1362.385131835938 -424.6552429199219 -1362.389770507812 -424.6927185058594 -1362.39404296875 -424.7301330566406 C -1362.421020507812 -424.9658508300781 -1362.71435546875 -425.184326171875 -1362.935546875 -425.1978759765625 C -1362.945556640625 -425.1984558105469 -1362.955444335938 -425.1987609863281 -1362.965454101562 -425.1987609863281 C -1363.163452148438 -425.1987609863281 -1363.405883789062 -425.0743713378906 -1363.529418945312 -424.909423828125 C -1363.785400390625 -424.5680541992188 -1364.009033203125 -424.2039794921875 -1364.198486328125 -423.8895568847656 C -1364.477783203125 -423.4263000488281 -1364.862060546875 -423.1518249511719 -1365.37353515625 -423.0504760742188 C -1365.914184570312 -422.9433288574219 -1366.25390625 -422.5220031738281 -1366.260131835938 -421.9508972167969 C -1366.261962890625 -421.7887878417969 -1366.26123046875 -421.6248168945312 -1366.260620117188 -421.4662475585938 C -1366.259887695312 -421.2709045410156 -1366.259033203125 -421.0689392089844 -1366.262939453125 -420.8718566894531 C -1366.275024414062 -420.2423706054688 -1366.744873046875 -419.7646789550781 -1367.380126953125 -419.7359008789062 C -1367.517944335938 -419.7296447753906 -1367.741333007812 -419.6380004882812 -1367.806640625 -419.453857421875 C -1368.144287109375 -418.5062255859375 -1368.478759765625 -417.539794921875 -1368.802124023438 -416.605224609375 L -1368.912353515625 -416.2866516113281 C -1368.932739257812 -416.2279052734375 -1368.929931640625 -416.1775207519531 -1368.928100585938 -416.1441650390625 C -1368.927612304688 -416.1360778808594 -1368.927001953125 -416.12646484375 -1368.927001953125 -416.1147155761719 L -1368.927001953125 -415.8772583007812 L -1368.689819335938 -415.8650512695312 C -1368.54931640625 -415.8578186035156 -1368.407958984375 -415.8531188964844 -1368.271118164062 -415.8486022949219 C -1367.954467773438 -415.8381042480469 -1367.6552734375 -415.8282165527344 -1367.358154296875 -415.789306640625 C -1367.278198242188 -415.7788391113281 -1367.20556640625 -415.7737426757812 -1367.13623046875 -415.7737426757812 C -1366.706665039062 -415.7737426757812 -1366.412719726562 -415.978759765625 -1366.237548828125 -416.4005737304688 C -1366.210327148438 -416.4660339355469 -1366.1572265625 -416.5440673828125 -1366.05908203125 -416.5440673828125 C -1366.022216796875 -416.5440673828125 -1365.982788085938 -416.5326843261719 -1365.94482421875 -416.5111083984375 C -1365.9052734375 -416.4885559082031 -1365.854858398438 -416.4485778808594 -1365.839599609375 -416.3861999511719 C -1365.825561523438 -416.3286437988281 -1365.843017578125 -416.2599182128906 -1365.889892578125 -416.1875 C -1366.252563476562 -415.6268920898438 -1366.642456054688 -415.0507507324219 -1367.082153320312 -414.4260559082031 C -1367.701293945312 -413.546142578125 -1367.639770507812 -412.786865234375 -1366.888305664062 -412.0365295410156 C -1366.836181640625 -411.9844360351562 -1366.78369140625 -411.9325866699219 -1366.731323242188 -411.8807373046875 C -1366.617431640625 -411.7681274414062 -1366.499755859375 -411.6516418457031 -1366.3876953125 -411.535400390625 C -1366.090209960938 -411.2264404296875 -1366.014526367188 -410.7909851074219 -1366.199340820312 -410.4519348144531 C -1366.340942382812 -410.1918640136719 -1366.64599609375 -410.0303649902344 -1366.99560546875 -410.0303649902344 Z M -1370.61181640625 -413.1215209960938 C -1370.018188476562 -413.1215209960938 -1369.606811523438 -412.85595703125 -1369.317260742188 -412.2857360839844 C -1369.06640625 -411.7921142578125 -1368.698608398438 -411.3516845703125 -1368.223876953125 -410.9765625 C -1367.8359375 -410.6700744628906 -1367.474975585938 -410.506591796875 -1367.087890625 -410.4620971679688 C -1367.070678710938 -410.4600830078125 -1367.052001953125 -410.4590148925781 -1367.032470703125 -410.4590148925781 C -1366.897827148438 -410.4590148925781 -1366.627197265625 -410.5139770507812 -1366.565551757812 -410.7218933105469 C -1366.513549804688 -410.9000854492188 -1366.587768554688 -411.1138610839844 -1366.687866210938 -411.2333984375 C -1366.801391601562 -411.36865234375 -1366.92626953125 -411.4891357421875 -1367.046997070312 -411.6056213378906 C -1367.093627929688 -411.650634765625 -1367.140258789062 -411.6956176757812 -1367.18603515625 -411.7413024902344 C -1368.077880859375 -412.6311950683594 -1368.160888671875 -413.6417541503906 -1367.42626953125 -414.6637573242188 C -1367.379760742188 -414.7283630371094 -1367.333740234375 -414.7936096191406 -1367.27978515625 -414.8702087402344 L -1367.198974609375 -414.9846496582031 L -1366.935791015625 -415.3567810058594 L -1367.390991210938 -415.3787231445312 L -1369.996826171875 -415.5042419433594 L -1371.666870117188 -415.5846862792969 L -1371.941284179688 -415.597900390625 L -1371.9287109375 -415.323486328125 C -1371.89599609375 -414.6123657226562 -1371.8642578125 -413.9260864257812 -1371.830810546875 -413.2058410644531 L -1371.81689453125 -412.9076232910156 L -1371.525756835938 -412.9736328125 L -1371.404052734375 -413.0013122558594 C -1371.318725585938 -413.0207214355469 -1371.242553710938 -413.0380859375 -1371.166137695312 -413.0549926757812 C -1370.967041015625 -413.0991516113281 -1370.780639648438 -413.1215209960938 -1370.61181640625 -413.1215209960938 Z M -1377.258666992188 -413.5052185058594 C -1377.037841796875 -413.5052185058594 -1376.82763671875 -413.3760375976562 -1376.666748046875 -413.1414794921875 C -1376.482055664062 -412.8721008300781 -1376.286987304688 -412.5820922851562 -1376.052856445312 -412.2288818359375 C -1375.8564453125 -411.9326171875 -1375.58642578125 -411.7698059082031 -1375.227294921875 -411.7311096191406 C -1375.154174804688 -411.7232666015625 -1375.062377929688 -411.6816711425781 -1375.013549804688 -411.6343688964844 C -1374.87548828125 -411.5000610351562 -1374.661743164062 -411.3212585449219 -1374.404174804688 -411.3212585449219 C -1374.102172851562 -411.3212280273438 -1373.900756835938 -411.5552368164062 -1373.775512695312 -411.7312316894531 C -1373.48876953125 -412.1344604492188 -1373.10009765625 -412.4257202148438 -1372.587158203125 -412.6217346191406 C -1372.547241210938 -412.6370239257812 -1372.508178710938 -412.6537170410156 -1372.463989257812 -412.6726989746094 C -1372.442504882812 -412.6818542480469 -1372.419799804688 -412.6916198730469 -1372.394897460938 -412.7020568847656 L -1372.233764648438 -412.76953125 L -1372.24169921875 -412.944091796875 L -1372.331909179688 -414.9065551757812 L -1372.35302734375 -415.3669128417969 L -1372.364013671875 -415.6054382324219 L -1372.602783203125 -415.6054382324219 L -1372.698486328125 -415.6054077148438 L -1372.774658203125 -415.6054077148438 L -1372.850341796875 -415.6054382324219 L -1372.927490234375 -415.60546875 C -1373.082397460938 -415.60546875 -1373.237182617188 -415.6049194335938 -1373.391967773438 -415.6043701171875 C -1373.546142578125 -415.6038513183594 -1373.700317382812 -415.6033020019531 -1373.8544921875 -415.6033020019531 C -1374.23681640625 -415.6033020019531 -1374.528076171875 -415.6068725585938 -1374.799072265625 -415.6148681640625 C -1374.96435546875 -415.6196899414062 -1375.1376953125 -415.6639709472656 -1375.274658203125 -415.7363586425781 C -1375.703857421875 -415.9631042480469 -1376.134643554688 -416.2083129882812 -1376.55126953125 -416.4454650878906 C -1376.7255859375 -416.544677734375 -1376.89990234375 -416.6439208984375 -1377.07470703125 -416.7422485351562 C -1377.419311523438 -416.93603515625 -1377.764282226562 -417.1293029785156 -1378.105590820312 -417.3205261230469 L -1378.519897460938 -417.5527648925781 L -1378.662963867188 -417.6329040527344 L -1378.79345703125 -417.5337219238281 C -1378.800415039062 -417.5285034179688 -1378.805419921875 -417.525146484375 -1378.808959960938 -417.522705078125 C -1378.830322265625 -417.5082092285156 -1378.886962890625 -417.4697265625 -1378.916137695312 -417.3917236328125 L -1379.049194335938 -417.0255432128906 C -1379.427856445312 -415.9845275878906 -1379.8193359375 -414.9080810546875 -1380.198364257812 -413.8468322753906 C -1380.255249023438 -413.6870727539062 -1380.177001953125 -413.490966796875 -1380.068481445312 -413.3935852050781 C -1379.847412109375 -413.1959533691406 -1379.607421875 -412.9933471679688 -1379.354736328125 -412.7911071777344 C -1379.181518554688 -412.6525268554688 -1378.98583984375 -412.5792846679688 -1378.788940429688 -412.5792846679688 C -1378.558227539062 -412.5792846679688 -1378.338256835938 -412.6772766113281 -1378.152587890625 -412.8626403808594 C -1378.070922851562 -412.9442443847656 -1377.994262695312 -413.0288696289062 -1377.920043945312 -413.1107482910156 C -1377.885864257812 -413.1484985351562 -1377.851684570312 -413.1862487792969 -1377.817016601562 -413.2236328125 C -1377.646484375 -413.4078979492188 -1377.453369140625 -413.5052185058594 -1377.258666992188 -413.5052185058594 Z M -1384.003662109375 -420.5009460449219 L -1384.1298828125 -420.3168640136719 C -1384.85302734375 -419.2622680664062 -1384.676635742188 -418.1341247558594 -1383.680541992188 -417.4427795410156 C -1383.482666015625 -417.305419921875 -1383.299194335938 -417.1481323242188 -1383.105102539062 -416.9816284179688 L -1383.003173828125 -416.8944702148438 C -1382.598388671875 -416.5494079589844 -1382.3740234375 -416.13134765625 -1382.3173828125 -415.6163330078125 C -1382.27880859375 -415.2675170898438 -1382.18603515625 -414.8289489746094 -1381.807861328125 -414.5302734375 C -1381.6171875 -414.3797607421875 -1381.407836914062 -414.2533569335938 -1381.205444335938 -414.131103515625 C -1381.116577148438 -414.0773620605469 -1381.024536132812 -414.0218200683594 -1380.9345703125 -413.9645080566406 L -1380.671264648438 -413.7968444824219 L -1380.565185546875 -414.0904541015625 L -1380.119506835938 -415.3238830566406 L -1379.248779296875 -417.7342834472656 L -1379.175048828125 -417.9383544921875 L -1379.36669921875 -418.0400390625 L -1381.983276367188 -419.4286499023438 L -1383.806518554688 -420.3963012695312 L -1384.003662109375 -420.5009460449219 Z M -1373.501953125 -416.0351257324219 C -1373.3515625 -416.0351257324219 -1373.227905273438 -416.0335388183594 -1373.112670898438 -416.0301818847656 C -1372.009399414062 -415.9978942871094 -1370.904418945312 -415.9591369628906 -1369.874755859375 -415.9220581054688 C -1369.85595703125 -415.92138671875 -1369.837890625 -415.9209289550781 -1369.820678710938 -415.9209289550781 C -1369.593994140625 -415.9209289550781 -1369.442504882812 -416.0280151367188 -1369.37060546875 -416.2392272949219 C -1369.164184570312 -416.8450622558594 -1368.950927734375 -417.4601745605469 -1368.74462890625 -418.0549926757812 C -1368.561401367188 -418.5831298828125 -1368.3720703125 -419.1292724609375 -1368.18798828125 -419.6674499511719 C -1368.143188476562 -419.7985229492188 -1368.1513671875 -419.9990234375 -1368.25390625 -420.1285400390625 C -1368.451416015625 -420.3778381347656 -1368.539794921875 -420.6672668457031 -1368.52392578125 -421.0134582519531 L -1368.5234375 -421.0247192382812 C -1368.517944335938 -421.142333984375 -1368.511840820312 -421.275634765625 -1368.534301757812 -421.4101867675781 C -1368.5888671875 -421.7394409179688 -1368.802734375 -421.9613647460938 -1369.120971679688 -422.0188293457031 C -1369.158813476562 -422.0256652832031 -1369.196411132812 -422.0291137695312 -1369.23291015625 -422.0291137695312 C -1369.46337890625 -422.0291137695312 -1369.648193359375 -421.89794921875 -1369.781982421875 -421.6392517089844 L -1369.804077148438 -421.5971069335938 C -1369.84228515625 -421.5244750976562 -1369.881713867188 -421.4493713378906 -1369.913696289062 -421.364501953125 C -1370.0986328125 -420.870849609375 -1370.411987304688 -420.4156494140625 -1370.871826171875 -419.9725952148438 C -1371.11865234375 -419.7346801757812 -1371.389282226562 -419.6140441894531 -1371.676025390625 -419.6140441894531 C -1371.684936523438 -419.6140441894531 -1371.693969726562 -419.6141662597656 -1371.703002929688 -419.6143798828125 C -1371.712646484375 -419.6146545410156 -1371.72216796875 -419.6147766113281 -1371.731567382812 -419.6147766113281 C -1372.06689453125 -419.6147766113281 -1372.26806640625 -419.4545288085938 -1372.4453125 -419.2903747558594 C -1373.175170898438 -418.6146545410156 -1373.654907226562 -417.7621459960938 -1374.118774414062 -416.9376831054688 C -1374.216796875 -416.7636413574219 -1374.317993164062 -416.5836791992188 -1374.420532226562 -416.4073181152344 L -1374.638671875 -416.03173828125 L -1374.204345703125 -416.03173828125 C -1374.076782226562 -416.03173828125 -1373.953735351562 -416.0326232910156 -1373.833862304688 -416.0335083007812 C -1373.720825195312 -416.0343322753906 -1373.610595703125 -416.0351257324219 -1373.501953125 -416.0351257324219 Z M -1376.802856445312 -420.5733337402344 L -1376.94775390625 -420.3743286132812 L -1377.601440429688 -419.4761352539062 L -1378.4453125 -418.3165283203125 L -1378.610595703125 -418.0893859863281 L -1378.365844726562 -417.9515686035156 L -1377.293579101562 -417.3479309082031 L -1375.302124023438 -416.2267456054688 L -1375.0869140625 -416.1056518554688 L -1374.963134765625 -416.3192749023438 L -1373.8603515625 -418.2220458984375 L -1373.74560546875 -418.4200134277344 L -1373.932739257812 -418.5518188476562 L -1374.345581054688 -418.8426208496094 L -1376.601684570312 -420.4316101074219 L -1376.802856445312 -420.5733337402344 Z M -1378.12841796875 -424.4925231933594 C -1378.418334960938 -424.4925231933594 -1378.543579101562 -424.3055419921875 -1378.612548828125 -424.1649169921875 C -1379.080078125 -423.2119445800781 -1379.560302734375 -422.2450256347656 -1380.024780273438 -421.3099670410156 L -1380.37548828125 -420.6036376953125 C -1380.471313476562 -420.4105834960938 -1380.567260742188 -420.2177124023438 -1380.665161132812 -420.0209655761719 L -1380.841918945312 -419.6656799316406 L -1380.945678710938 -419.4570007324219 L -1380.744750976562 -419.3388977050781 L -1379.303955078125 -418.4916381835938 L -1379.17431640625 -418.4153747558594 L -1378.97900390625 -418.3005065917969 L -1378.845581054688 -418.4836120605469 L -1378.271484375 -419.2713623046875 C -1377.875610351562 -419.8146667480469 -1377.4853515625 -420.3503112792969 -1377.094604492188 -420.8856506347656 C -1377.000244140625 -421.014892578125 -1376.92529296875 -421.0804443359375 -1376.871704101562 -421.0804443359375 C -1376.83544921875 -421.0804443359375 -1376.763427734375 -421.060302734375 -1376.626708984375 -420.9642944335938 C -1376.120483398438 -420.6085510253906 -1375.61474609375 -420.2519226074219 -1375.109008789062 -419.8952941894531 C -1374.794067382812 -419.6732177734375 -1374.479125976562 -419.4511413574219 -1374.1640625 -419.2293090820312 C -1374.05615234375 -419.1533203125 -1373.947631835938 -419.078369140625 -1373.836547851562 -419.001708984375 L -1373.66943359375 -418.8861694335938 L -1373.490600585938 -418.7621154785156 L -1373.343139648438 -418.9221496582031 L -1372.636352539062 -419.6893920898438 L -1372.497802734375 -419.8398742675781 L -1372.617919921875 -420.0054626464844 C -1372.843505859375 -420.3166198730469 -1372.8955078125 -420.6512145996094 -1372.777099609375 -421.0283508300781 C -1372.707641601562 -421.2498168945312 -1372.613647460938 -421.4636535644531 -1372.51416015625 -421.6900634765625 L -1372.479858398438 -421.7682800292969 C -1372.439086914062 -421.8616027832031 -1372.393798828125 -421.952880859375 -1372.345825195312 -422.0495300292969 C -1372.280029296875 -422.181884765625 -1372.212158203125 -422.3187561035156 -1372.155639648438 -422.46337890625 C -1372.077758789062 -422.6624450683594 -1372.112670898438 -422.810302734375 -1372.155639648438 -422.8992309570312 C -1372.199829101562 -422.9907531738281 -1372.298217773438 -423.1139526367188 -1372.516357421875 -423.1809997558594 C -1372.597290039062 -423.2058715820312 -1372.678344726562 -423.2184753417969 -1372.75732421875 -423.2184753417969 C -1372.968017578125 -423.2184753417969 -1373.161376953125 -423.1323547363281 -1373.332275390625 -422.9624938964844 L -1373.5576171875 -422.7388610839844 C -1373.773315429688 -422.5250854492188 -1373.996215820312 -422.3040161132812 -1374.213989257812 -422.0841064453125 C -1374.3359375 -421.9609069824219 -1374.402709960938 -421.9609069824219 -1374.424682617188 -421.9609069824219 C -1374.451049804688 -421.9609069824219 -1374.479736328125 -421.968017578125 -1374.512329101562 -421.9826049804688 C -1374.582763671875 -422.0143127441406 -1374.651245117188 -422.0614929199219 -1374.645751953125 -422.2547607421875 C -1374.640625 -422.4351501464844 -1374.641845703125 -422.616455078125 -1374.64306640625 -422.7918090820312 C -1374.6435546875 -422.8682556152344 -1374.64404296875 -422.9447021484375 -1374.64404296875 -423.0211181640625 L -1374.64404296875 -423.9468994140625 L -1374.64404296875 -424.1752624511719 L -1374.871459960938 -424.1958923339844 C -1375.136840820312 -424.2199401855469 -1375.400512695312 -424.2435913085938 -1375.663208007812 -424.2671508789062 C -1376.484375 -424.3408508300781 -1377.260131835938 -424.4104614257812 -1378.0517578125 -424.4885559082031 C -1378.078369140625 -424.4911804199219 -1378.104125976562 -424.4925231933594 -1378.12841796875 -424.4925231933594 Z M -1381.288696289062 -424.7642517089844 C -1382.076538085938 -424.7642517089844 -1382.598876953125 -424.3761901855469 -1382.885620117188 -423.577880859375 C -1383.062133789062 -423.0867004394531 -1383.244873046875 -422.5880737304688 -1383.421630859375 -422.1058654785156 C -1383.523681640625 -421.8274536132812 -1383.625732421875 -421.5490417480469 -1383.727172851562 -421.2704162597656 C -1383.744873046875 -421.2220153808594 -1383.756591796875 -421.1764221191406 -1383.767944335938 -421.1323547363281 C -1383.772216796875 -421.1155090332031 -1383.776611328125 -421.0984191894531 -1383.781494140625 -421.0810852050781 L -1383.83740234375 -420.8802490234375 L -1383.64990234375 -420.7891540527344 L -1383.41796875 -420.6764221191406 L -1381.54052734375 -419.7641296386719 L -1381.317749023438 -419.6558837890625 L -1381.207397460938 -419.8775939941406 L -1380.33447265625 -421.6318664550781 L -1379.056518554688 -424.2000122070312 L -1378.958251953125 -424.3974304199219 L -1379.141845703125 -424.5195617675781 C -1379.151000976562 -424.525634765625 -1379.15771484375 -424.5307922363281 -1379.162963867188 -424.5347900390625 C -1379.190185546875 -424.5552368164062 -1379.240600585938 -424.5932922363281 -1379.3193359375 -424.6006469726562 C -1379.487426757812 -424.6157836914062 -1379.654663085938 -424.6314697265625 -1379.822021484375 -424.6471557617188 C -1380.243896484375 -424.6867065429688 -1380.68017578125 -424.7275695800781 -1381.111328125 -424.7578735351562 C -1381.171752929688 -424.7620849609375 -1381.2314453125 -424.7642517089844 -1381.288696289062 -424.7642517089844 Z" stroke="none"/>
      <path d="M -1379.021850585938 -424.7414245605469 C -1379.018432617188 -424.7388916015625 -1379.015258789062 -424.7365417480469 -1379.012573242188 -424.7344665527344 C -1379.01025390625 -424.7327270507812 -1379.00732421875 -424.7303771972656 -1379.00341796875 -424.7277221679688 L -1378.67822265625 -424.511474609375 C -1378.60498046875 -424.5903930664062 -1378.520629882812 -424.6492614746094 -1378.42578125 -424.6878051757812 C -1378.623901367188 -424.70556640625 -1378.82275390625 -424.7234497070312 -1379.021850585938 -424.7414245605469 M -1367.9541015625 -420.0928955078125 C -1367.913696289062 -419.9768981933594 -1367.904541015625 -419.853515625 -1367.917114257812 -419.7424011230469 C -1367.835083007812 -419.8315124511719 -1367.72900390625 -419.8973693847656 -1367.619140625 -419.9380187988281 C -1367.742309570312 -419.9674072265625 -1367.85546875 -420.0205383300781 -1367.9541015625 -420.0928955078125 M -1381.750732421875 -419.5883178710938 L -1380.841430664062 -419.1057434082031 L -1381.24072265625 -419.3405151367188 L -1381.750732421875 -419.5883178710938 M -1369.177001953125 -416.0549011230469 C -1369.235107421875 -415.9377746582031 -1369.335815429688 -415.8057250976562 -1369.507934570312 -415.7309875488281 L -1369.177001953125 -415.7150573730469 L -1369.177001953125 -416.0549011230469 M -1363.024047851562 -425.8877563476562 C -1362.962158203125 -425.8877563476562 -1362.898559570312 -425.8836364746094 -1362.833251953125 -425.875244140625 C -1362.254028320312 -425.8009643554688 -1361.879028320312 -425.4559326171875 -1361.722290039062 -424.8857421875 C -1361.716674804688 -424.8655395507812 -1361.697509765625 -424.84912109375 -1361.684692382812 -424.8309936523438 L -1361.684692382812 -423.7263488769531 C -1361.834106445312 -423.4446411132812 -1361.962158203125 -423.1487731933594 -1362.136840820312 -422.8837280273438 C -1362.77392578125 -421.9176330566406 -1363.423583984375 -420.9597473144531 -1364.077392578125 -420.0050048828125 C -1364.154907226562 -419.8917541503906 -1364.273559570312 -419.7823791503906 -1364.39794921875 -419.7316284179688 C -1364.571411132812 -419.6607971191406 -1364.7744140625 -419.7073974609375 -1364.862670898438 -419.8783874511719 C -1364.93212890625 -420.0127258300781 -1364.932250976562 -420.19140625 -1364.93017578125 -420.3500366210938 C -1364.92919921875 -420.4221496582031 -1364.85107421875 -420.4947814941406 -1364.803955078125 -420.5645446777344 C -1364.127807617188 -421.569091796875 -1363.458984375 -422.5787658691406 -1362.769897460938 -423.5744018554688 C -1362.518188476562 -423.9382934570312 -1362.599243164062 -424.3231811523438 -1362.642456054688 -424.7017822265625 C -1362.653686523438 -424.800048828125 -1362.838623046875 -424.9414672851562 -1362.950805664062 -424.9483337402344 C -1362.95556640625 -424.9486083984375 -1362.96044921875 -424.9487609863281 -1362.965454101562 -424.9487609863281 C -1363.088989257812 -424.9487609863281 -1363.254028320312 -424.8601684570312 -1363.329345703125 -424.7595520019531 C -1363.567749023438 -424.4415283203125 -1363.77880859375 -424.1015625 -1363.984375 -423.760498046875 C -1364.294799804688 -423.2455444335938 -1364.7294921875 -422.9232482910156 -1365.324951171875 -422.8052368164062 C -1365.752685546875 -422.7204895019531 -1366.00537109375 -422.3890686035156 -1366.010131835938 -421.9481811523438 C -1366.01416015625 -421.5877990722656 -1366.005859375 -421.2272338867188 -1366.012939453125 -420.866943359375 C -1366.027709960938 -420.1041564941406 -1366.609252929688 -419.5205688476562 -1367.368774414062 -419.4861755371094 C -1367.439819335938 -419.4829406738281 -1367.55078125 -419.4273376464844 -1367.571044921875 -419.3702392578125 C -1367.946166992188 -418.3175354003906 -1368.310546875 -417.2610168457031 -1368.676147460938 -416.2048645019531 C -1368.682861328125 -416.1854858398438 -1368.677001953125 -416.161865234375 -1368.677001953125 -416.1147155761719 C -1368.223022460938 -416.0913391113281 -1367.770263671875 -416.0953979492188 -1367.32568359375 -416.0371704101562 C -1366.907836914062 -415.9823608398438 -1366.638549804688 -416.0870056152344 -1366.468383789062 -416.4964904785156 C -1366.346069335938 -416.7908020019531 -1366.059692382812 -416.8641662597656 -1365.821166992188 -416.7283630371094 C -1365.581298828125 -416.5917358398438 -1365.505981445312 -416.3204040527344 -1365.680053710938 -416.0516052246094 C -1366.066772460938 -415.4537658691406 -1366.4677734375 -414.8646240234375 -1366.877685546875 -414.2821655273438 C -1367.423828125 -413.5060424804688 -1367.379760742188 -412.8805847167969 -1366.711669921875 -412.2134399414062 C -1366.54345703125 -412.0454711914062 -1366.372680664062 -411.880126953125 -1366.207641601562 -411.7088928222656 C -1365.835083007812 -411.3218383789062 -1365.744384765625 -410.7642211914062 -1365.979858398438 -410.332275390625 C -1366.201171875 -409.9258728027344 -1366.70849609375 -409.7108154296875 -1367.229858398438 -409.8004150390625 C -1368.083862304688 -409.9469299316406 -1368.736206054688 -410.427490234375 -1369.274536132812 -411.0711364746094 C -1369.538452148438 -411.38671875 -1369.756958007812 -411.7417907714844 -1369.981811523438 -412.0881042480469 C -1370.1708984375 -412.37939453125 -1370.37548828125 -412.5145263671875 -1370.711303710938 -412.4331665039062 C -1371.304931640625 -412.2893371582031 -1371.89306640625 -412.1184387207031 -1372.475830078125 -411.9350280761719 C -1372.848754882812 -411.8177795410156 -1373.091064453125 -411.5272827148438 -1373.32275390625 -411.2219543457031 C -1373.749633789062 -410.6592102050781 -1374.454467773438 -410.4835815429688 -1375.041137695312 -410.811767578125 C -1375.320678710938 -410.9680786132812 -1375.613403320312 -411.090576171875 -1375.891967773438 -411.2382202148438 C -1376.158935546875 -411.3795471191406 -1376.394409179688 -411.6104431152344 -1376.5908203125 -411.8460083007812 C -1376.839477539062 -412.1444091796875 -1377.034912109375 -412.4873046875 -1377.263916015625 -412.8268432617188 C -1377.398681640625 -412.6835327148438 -1377.52197265625 -412.5490417480469 -1377.649047851562 -412.4180908203125 C -1378.269287109375 -411.7777709960938 -1379.172973632812 -411.7304992675781 -1379.837768554688 -412.321533203125 C -1380.442260742188 -412.8591003417969 -1381.092529296875 -413.322265625 -1381.808715820312 -413.7029113769531 C -1382.472778320312 -414.0558776855469 -1382.86865234375 -414.6260070800781 -1382.952514648438 -415.3802490234375 C -1383.0048828125 -415.8519897460938 -1383.197998046875 -416.2238464355469 -1383.57958984375 -416.50634765625 C -1383.81982421875 -416.6841735839844 -1384.047241210938 -416.879150390625 -1384.280151367188 -417.0665893554688 C -1384.777587890625 -417.4664916992188 -1385.092895507812 -417.9759216308594 -1385.208740234375 -418.6061706542969 C -1385.21533203125 -418.6419677734375 -1385.235717773438 -418.6751708984375 -1385.249877929688 -418.7095336914062 L -1385.249877929688 -419.3999633789062 C -1384.844970703125 -420.3717956542969 -1384.43115234375 -421.3401184082031 -1384.038818359375 -422.3169555664062 C -1383.850708007812 -422.7851867675781 -1383.700805664062 -423.2689208984375 -1383.536865234375 -423.7467956542969 C -1383.119140625 -424.9649658203125 -1382.19873046875 -425.5419311523438 -1380.915405273438 -425.4191589355469 C -1379.06884765625 -425.2424926757812 -1377.220458984375 -425.08447265625 -1375.373046875 -424.9171142578125 C -1375.144409179688 -424.8963623046875 -1374.9130859375 -424.8829956054688 -1374.688720703125 -424.8376770019531 C -1374.274536132812 -424.7540283203125 -1373.993408203125 -424.4121704101562 -1373.976440429688 -423.990478515625 C -1373.9677734375 -423.7767639160156 -1373.974853515625 -423.5624084472656 -1373.974853515625 -423.2955932617188 C -1373.875 -423.3866271972656 -1373.806762695312 -423.4501342773438 -1373.737182617188 -423.511962890625 C -1373.238891601562 -423.9552307128906 -1372.580078125 -424.03271484375 -1372.033813476562 -423.712646484375 C -1371.513671875 -423.4078369140625 -1371.30712890625 -422.8654479980469 -1371.5146484375 -422.265869140625 C -1371.611694335938 -421.9857177734375 -1371.769653320312 -421.7270812988281 -1371.889038085938 -421.4539489746094 C -1371.98388671875 -421.2373352050781 -1372.067626953125 -421.0155334472656 -1372.145874023438 -420.7923889160156 C -1372.204956054688 -420.623779296875 -1372.171875 -420.4437866210938 -1372.01904296875 -420.3648376464844 C -1371.892700195312 -420.2995910644531 -1371.694702148438 -420.2629699707031 -1371.576293945312 -420.3179321289062 C -1371.390625 -420.404052734375 -1371.21044921875 -420.5525817871094 -1371.09130859375 -420.7198486328125 C -1370.870849609375 -421.0294494628906 -1370.675903320312 -421.3617553710938 -1370.507446289062 -421.7029418945312 C -1370.2783203125 -422.1663208007812 -1370.012817382812 -422.5721435546875 -1369.459716796875 -422.6764221191406 C -1368.658325195312 -422.8275756835938 -1367.890991210938 -422.2018737792969 -1367.854858398438 -421.3675537109375 C -1367.847900390625 -421.206787109375 -1367.856567382812 -421.0453186035156 -1367.850708007812 -420.8844604492188 C -1367.840454101562 -420.6053771972656 -1367.64990234375 -420.4117126464844 -1367.39306640625 -420.4117126464844 C -1367.392456054688 -420.4117126464844 -1367.391845703125 -420.4117126464844 -1367.39111328125 -420.4117126464844 C -1367.148071289062 -420.4126586914062 -1366.944946289062 -420.6033935546875 -1366.93603515625 -420.8677978515625 C -1366.924194335938 -421.2201538085938 -1366.933349609375 -421.5733032226562 -1366.931274414062 -421.926025390625 C -1366.926391601562 -422.8104248046875 -1366.405395507812 -423.494384765625 -1365.548461914062 -423.6943969726562 C -1365.1845703125 -423.7793273925781 -1364.929443359375 -423.962890625 -1364.743286132812 -424.28076171875 C -1364.557495117188 -424.5977783203125 -1364.343383789062 -424.8981323242188 -1364.147583007812 -425.2095031738281 C -1363.876586914062 -425.6402282714844 -1363.503051757812 -425.8877258300781 -1363.024047851562 -425.8877563476562 Z M -1381.431274414062 -419.9889831542969 C -1380.70947265625 -421.4393920898438 -1379.997192382812 -422.8709106445312 -1379.2802734375 -424.3114013671875 C -1379.317626953125 -424.3362426757812 -1379.329467773438 -424.3504943847656 -1379.342529296875 -424.3517150878906 C -1379.937866210938 -424.4053649902344 -1380.532836914062 -424.4666137695312 -1381.12890625 -424.5084838867188 C -1381.904663085938 -424.5627746582031 -1382.385009765625 -424.2321166992188 -1382.650390625 -423.4933776855469 C -1382.92724609375 -422.7225341796875 -1383.212036132812 -421.9544677734375 -1383.492309570312 -421.1848754882812 C -1383.512084960938 -421.130615234375 -1383.524047851562 -421.0736083984375 -1383.540649414062 -421.0140075683594 C -1382.832763671875 -420.6700134277344 -1382.1396484375 -420.3331909179688 -1381.431274414062 -419.9889831542969 Z M -1374.424682617188 -421.7109069824219 C -1374.484619140625 -421.7109069824219 -1374.547729492188 -421.7244873046875 -1374.61474609375 -421.7545776367188 C -1374.829711914062 -421.8512878417969 -1374.902099609375 -422.0333862304688 -1374.895629882812 -422.2618408203125 C -1374.888549804688 -422.5147399902344 -1374.89404296875 -422.76806640625 -1374.89404296875 -423.0211181640625 L -1374.89404296875 -423.9468994140625 C -1375.97216796875 -424.0446472167969 -1377.02490234375 -424.1360473632812 -1378.076293945312 -424.2397766113281 C -1378.244873046875 -424.2565307617188 -1378.318115234375 -424.1973571777344 -1378.388061523438 -424.0548400878906 C -1378.9716796875 -422.8653259277344 -1379.5625 -421.679443359375 -1380.151611328125 -420.4924926757812 C -1380.304077148438 -420.1849365234375 -1380.457397460938 -419.8776245117188 -1380.618041992188 -419.5544128417969 C -1380.092163085938 -419.2452392578125 -1379.578979492188 -418.9433898925781 -1379.047607421875 -418.630859375 C -1378.451904296875 -419.4480895996094 -1377.874755859375 -420.2409362792969 -1377.296508789062 -421.0330505371094 C -1377.040649414062 -421.3833923339844 -1376.838256835938 -421.4183349609375 -1376.483032226562 -421.1688537597656 C -1375.661376953125 -420.5915222167969 -1374.841186523438 -420.0118713378906 -1374.020141601562 -419.4337158203125 C -1373.859252929688 -419.3204040527344 -1373.696899414062 -419.2094421386719 -1373.526977539062 -419.0915832519531 C -1373.282104492188 -419.3572998046875 -1373.050537109375 -419.6086730957031 -1372.8203125 -419.8587341308594 C -1373.107543945312 -420.2549133300781 -1373.151245117188 -420.6714782714844 -1373.015625 -421.103271484375 C -1372.93359375 -421.36474609375 -1372.819091796875 -421.61669921875 -1372.708862304688 -421.8685302734375 C -1372.60791015625 -422.0997314453125 -1372.480102539062 -422.31982421875 -1372.388549804688 -422.5543212890625 C -1372.311279296875 -422.7518615722656 -1372.3896484375 -422.8804931640625 -1372.58984375 -422.9420471191406 C -1372.810668945312 -423.0098571777344 -1372.996826171875 -422.9434204101562 -1373.156005859375 -422.7852172851562 C -1373.449829101562 -422.4932556152344 -1373.744873046875 -422.2026062011719 -1374.036254882812 -421.9082336425781 C -1374.15283203125 -421.7905883789062 -1374.279296875 -421.7109069824219 -1374.424682617188 -421.7109069824219 Z M -1369.820678710938 -416.1709289550781 C -1369.721313476562 -416.1709289550781 -1369.651245117188 -416.1907043457031 -1369.607177734375 -416.3198852539062 C -1369.217407226562 -417.4642028808594 -1368.815673828125 -418.6044921875 -1368.424560546875 -419.7483215332031 C -1368.401977539062 -419.8143615722656 -1368.409423828125 -419.9221801757812 -1368.449951171875 -419.973388671875 C -1368.696166992188 -420.2841186523438 -1368.79150390625 -420.6349487304688 -1368.773681640625 -421.0248718261719 C -1368.768432617188 -421.1394348144531 -1368.76220703125 -421.2569885253906 -1368.780883789062 -421.3691101074219 C -1368.816650390625 -421.5850830078125 -1368.943359375 -421.7327270507812 -1369.165405273438 -421.7727966308594 C -1369.365844726562 -421.8091430664062 -1369.477294921875 -421.6841735839844 -1369.559936523438 -421.5243835449219 C -1369.602172851562 -421.4429016113281 -1369.6474609375 -421.362060546875 -1369.6796875 -421.2764587402344 C -1369.896728515625 -420.6972961425781 -1370.257934570312 -420.2169799804688 -1370.698364257812 -419.7925720214844 C -1370.97119140625 -419.5296630859375 -1371.300903320312 -419.3640441894531 -1371.676025390625 -419.3640441894531 C -1371.694458007812 -419.3640441894531 -1371.71337890625 -419.36474609375 -1371.731567382812 -419.3647766113281 C -1371.969116210938 -419.3647766113281 -1372.10888671875 -419.26123046875 -1372.275512695312 -419.10693359375 C -1373.125854492188 -418.319580078125 -1373.615966796875 -417.2944641113281 -1374.204345703125 -416.28173828125 C -1373.808715820312 -416.28173828125 -1373.45654296875 -416.2903442382812 -1373.105346679688 -416.2800598144531 C -1372.025390625 -416.2484741210938 -1370.945556640625 -416.2107849121094 -1369.86572265625 -416.1719055175781 C -1369.85009765625 -416.1713562011719 -1369.835083007812 -416.1709289550781 -1369.820678710938 -416.1709289550781 Z M -1375.179443359375 -416.4446105957031 C -1374.810791015625 -417.0808715820312 -1374.451293945312 -417.7011413574219 -1374.07666015625 -418.347412109375 C -1374.979248046875 -418.983154296875 -1375.858276367188 -419.6023254394531 -1376.74560546875 -420.2272033691406 C -1377.252319335938 -419.5309448242188 -1377.741577148438 -418.8586120605469 -1378.2431640625 -418.1694030761719 C -1377.213745117188 -417.5898742675781 -1376.20361328125 -417.0210876464844 -1375.179443359375 -416.4446105957031 Z M -1380.80029296875 -414.1753845214844 C -1380.353515625 -415.4120788574219 -1379.922241210938 -416.6054077148438 -1379.48388671875 -417.8192138671875 C -1380.981079101562 -418.6138000488281 -1382.453369140625 -419.3951416015625 -1383.923706054688 -420.1754760742188 C -1384.633544921875 -419.1402587890625 -1384.341064453125 -418.2055358886719 -1383.537963867188 -417.6481628417969 C -1383.293212890625 -417.478271484375 -1383.068481445312 -417.278564453125 -1382.841064453125 -417.0847473144531 C -1382.396728515625 -416.7059936523438 -1382.133056640625 -416.2267761230469 -1382.06884765625 -415.6437072753906 C -1382.029907226562 -415.2913208007812 -1381.938598632812 -414.9520568847656 -1381.652954101562 -414.7264709472656 C -1381.394165039062 -414.5222778320312 -1381.09814453125 -414.3650207519531 -1380.80029296875 -414.1753845214844 Z M -1373.8544921875 -415.3533020019531 C -1374.171997070312 -415.3533020019531 -1374.4892578125 -415.3555908203125 -1374.806396484375 -415.3649597167969 C -1375.003784179688 -415.3707275390625 -1375.217529296875 -415.4233703613281 -1375.391479492188 -415.5153198242188 C -1376.001098632812 -415.8373718261719 -1376.59619140625 -416.1863403320312 -1377.197265625 -416.5243225097656 C -1377.681884765625 -416.7969055175781 -1378.167236328125 -417.0683898925781 -1378.642211914062 -417.3346862792969 C -1378.670288085938 -417.3133544921875 -1378.6796875 -417.3101196289062 -1378.681884765625 -417.3042297363281 C -1379.11083984375 -416.1244201660156 -1379.540649414062 -414.9449462890625 -1379.962890625 -413.7627563476562 C -1379.980346679688 -413.7137756347656 -1379.9443359375 -413.6181030273438 -1379.901489257812 -413.5796508789062 C -1379.672973632812 -413.3753051757812 -1379.437866210938 -413.1778564453125 -1379.198486328125 -412.9862976074219 C -1378.913940429688 -412.7587890625 -1378.5888671875 -412.7803039550781 -1378.329223632812 -413.03955078125 C -1378.215454101562 -413.1532897949219 -1378.10986328125 -413.275390625 -1378.000366210938 -413.3935546875 C -1377.518310546875 -413.9145812988281 -1376.862182617188 -413.8683776855469 -1376.460571289062 -413.2828979492188 C -1376.252563476562 -412.9794921875 -1376.047729492188 -412.6736450195312 -1375.844482421875 -412.3670043945312 C -1375.690551757812 -412.1347961425781 -1375.483276367188 -412.0101318359375 -1375.200561523438 -411.9796752929688 C -1375.074340820312 -411.9661254882812 -1374.93017578125 -411.9017944335938 -1374.839477539062 -411.8137817382812 C -1374.497436523438 -411.4811096191406 -1374.260864257812 -411.480224609375 -1373.979248046875 -411.8761596679688 C -1373.646362304688 -412.34423828125 -1373.204345703125 -412.6535034179688 -1372.676391601562 -412.8552551269531 C -1372.619873046875 -412.8769226074219 -1372.564697265625 -412.9019775390625 -1372.491455078125 -412.9326477050781 C -1372.528198242188 -413.7341003417969 -1372.565063476562 -414.53515625 -1372.602783203125 -415.3554382324219 C -1372.7001953125 -415.3554382324219 -1372.775634765625 -415.3553466796875 -1372.8505859375 -415.3554382324219 C -1373.18505859375 -415.3557739257812 -1373.519897460938 -415.3533020019531 -1373.8544921875 -415.3533020019531 Z M -1367.032348632812 -410.7090148925781 C -1366.945190429688 -410.7090148925781 -1366.818603515625 -410.7478942871094 -1366.805297851562 -410.7928771972656 C -1366.781616210938 -410.8739318847656 -1366.820922851562 -411.0029296875 -1366.879516601562 -411.0729064941406 C -1367.026733398438 -411.2482604980469 -1367.199951171875 -411.4019470214844 -1367.362670898438 -411.5643615722656 C -1368.345825195312 -412.5454406738281 -1368.439086914062 -413.6830444335938 -1367.629272460938 -414.8096618652344 C -1367.5615234375 -414.9037780761719 -1367.4951171875 -414.9989013671875 -1367.403076171875 -415.1290283203125 C -1368.856811523438 -415.1990661621094 -1370.25390625 -415.2663269042969 -1371.678955078125 -415.3349609375 C -1371.646240234375 -414.6239013671875 -1371.614501953125 -413.9376525878906 -1371.5810546875 -413.2174377441406 C -1371.4423828125 -413.2488708496094 -1371.331420898438 -413.2744750976562 -1371.220092773438 -413.2991027832031 C -1370.319580078125 -413.4988403320312 -1369.558349609375 -413.3126525878906 -1369.094360351562 -412.39892578125 C -1368.850341796875 -411.9186706542969 -1368.495727539062 -411.510009765625 -1368.06884765625 -411.1727294921875 C -1367.770141601562 -410.9366760253906 -1367.442993164062 -410.7545471191406 -1367.059326171875 -410.71044921875 C -1367.050903320312 -410.7095031738281 -1367.041870117188 -410.7090148925781 -1367.032348632812 -410.7090148925781 Z" stroke="none" fill="#707070"/>
    </g>
    <g id="Path_47" data-name="Path 47" transform="translate(-297.604 -109.59)" fill="#8f8f8f" fill-rule="evenodd">
      <path d="M -1067.731811523438 -308.4721984863281 L -1067.741333007812 -308.472412109375 C -1067.813720703125 -308.4756164550781 -1067.858642578125 -308.509521484375 -1067.883544921875 -308.537353515625 C -1067.921020507812 -308.579345703125 -1067.939453125 -308.6369934082031 -1067.935302734375 -308.6996154785156 C -1067.927856445312 -308.808837890625 -1067.84619140625 -308.8822326660156 -1067.732055664062 -308.8822326660156 C -1067.726684570312 -308.8822326660156 -1067.721313476562 -308.8820495605469 -1067.7158203125 -308.8817138671875 C -1067.661254882812 -308.8784790039062 -1067.610961914062 -308.8536987304688 -1067.57421875 -308.81201171875 C -1067.538696289062 -308.771728515625 -1067.52099609375 -308.7212524414062 -1067.5244140625 -308.6698913574219 C -1067.531860351562 -308.5589599609375 -1067.622924804688 -308.4721984863281 -1067.731811523438 -308.4721984863281 Z" stroke="none"/>
      <path d="M -1067.732055664062 -309.1322326660156 C -1067.721801757812 -309.1322326660156 -1067.71142578125 -309.1318969726562 -1067.700927734375 -309.1312866210938 C -1067.451538085938 -309.1164245605469 -1067.258544921875 -308.8998413085938 -1067.275024414062 -308.6532287597656 C -1067.29150390625 -308.4024658203125 -1067.501831054688 -308.2119445800781 -1067.752563476562 -308.22265625 C -1068.013061523438 -308.2342529296875 -1068.202514648438 -308.45068359375 -1068.184692382812 -308.7163696289062 C -1068.16845703125 -308.9582824707031 -1067.976440429688 -309.1322326660156 -1067.732055664062 -309.1322326660156 Z" stroke="none" fill="#707070"/>
    </g>
  </g>
</svg>
