<svg xmlns="http://www.w3.org/2000/svg" width="14.225" height="18.676" viewBox="0 0 14.225 18.676">
  <path id="street-icon" d="M-619.622,165.89c.039.014.077.03.117.04a1.663,1.663,0,0,1,1.235,2.026c-.011.047-.022.093-.037.159h2.722a.567.567,0,0,1,.633.459c.3.887.593,1.773.883,2.661.041.125.1.175.229.166.175-.012.353-.007.529,0a.547.547,0,0,1,.547.545.546.546,0,0,1-.545.547c-.224.006-.449,0-.682,0l-.558,1.948q-.748,2.617-1.5,5.234a.566.566,0,0,1-.634.478h-.462c0,.158,0,.307,0,.457a1.649,1.649,0,0,1-1,1.6.235.235,0,0,0-.095.179c-.007.517,0,1.033,0,1.55a.558.558,0,0,1-.541.625.559.559,0,0,1-.553-.631c0-.522,0-1.045,0-1.58h-1.094v.194c0,.48,0,.961,0,1.441a.549.549,0,0,1-.553.576.548.548,0,0,1-.539-.571q-.005-.793,0-1.587a.2.2,0,0,0-.131-.219,1.609,1.609,0,0,1-.965-1.525c0-.163,0-.326,0-.511h-.426c-.408,0-.56-.111-.671-.5q-.911-3.176-1.821-6.353l-.233-.81c-.221,0-.434,0-.646,0a.551.551,0,0,1-.581-.548.552.552,0,0,1,.584-.545c.17,0,.341-.008.51,0,.12.008.167-.039.2-.149.291-.888.589-1.774.885-2.661a.573.573,0,0,1,.656-.476h2.673a4.827,4.827,0,0,1-.049-.683,1.641,1.641,0,0,1,1.295-1.505.818.818,0,0,0,.1-.037Zm-4.964,5.5h9.416c-.227-.682-.452-1.348-.667-2.018a.2.2,0,0,0-.232-.162q-2.634.006-5.269,0c-.79,0-1.58,0-2.37,0-.062,0-.162.045-.178.092C-624.124,169.992-624.351,170.683-624.586,171.386Zm3.151,1.112.936,6.55h1.242l.935-6.55Zm-3.187,0,1.871,6.55h1.146l-.936-6.55Zm7.406,0-.935,6.547H-617l1.87-6.547Zm-1.024,7.661h-3.276c0,.208-.014.407,0,.6a.527.527,0,0,0,.515.477q1.12.011,2.24,0a.526.526,0,0,0,.515-.477C-618.226,180.569-618.24,180.369-618.24,180.162Zm-1.075-12.611a.567.567,0,0,0-.567-.566.567.567,0,0,0-.559.555.566.566,0,0,0,.557.575A.567.567,0,0,0-619.315,167.551Z" transform="translate(626.99 -165.89)" fill="#8f8f8f" fill-rule="evenodd"/>
</svg>
