<svg xmlns="http://www.w3.org/2000/svg" width="9.993" height="23.986" viewBox="0 0 9.993 23.986">
  <path id="tire-icon" d="M-987.452-316.1c.04-.127.08-.254.12-.381a2.47,2.47,0,0,1,2.312-1.736c1.706-.014,3.412-.018,5.118,0a2.475,2.475,0,0,1,2.438,2.527c.008,2.58,0,5.16,0,7.74q0,5.493,0,10.985a2.517,2.517,0,0,1-2.72,2.721q-2.309,0-4.619,0a2.5,2.5,0,0,1-2.606-2.044.341.341,0,0,0-.045-.079Zm8.991,16.15-.066-.035-1.021,1.118-.752-.741a19.382,19.382,0,0,1,1.453-1.427c.517-.416.367-.916.379-1.411l-.1-.069-1.032,1.091-.712-.682c.563-.558,1.118-1.1,1.667-1.656a.529.529,0,0,0,.177-.273c.023-.3.008-.611.008-.917l-.078-.035-1.008,1.046-.753-.675c.564-.56,1.119-1.108,1.669-1.66a.478.478,0,0,0,.162-.248c.02-.306.008-.614.008-.921l-.073-.039-.995,1.089-.771-.708a20.249,20.249,0,0,1,1.477-1.451c.511-.414.328-.906.358-1.385l-.113-.076-1.018,1.087-.719-.675c.566-.559,1.121-1.1,1.672-1.655.071-.071.168-.158.174-.243.021-.314.008-.63.008-.946l-.088-.043-1,1.053-.745-.677c.56-.556,1.114-1.1,1.664-1.657a.476.476,0,0,0,.16-.249c.019-.306.008-.613.008-.92l-.07-.033-1.022,1.082-.743-.7,1.708-1.687c-.406-.956-1.244-1.044-2.352-.895v21.9c2.068.277,2.669-.731,2.431-2.242l-1.037,1.081-.756-.682c.566-.563,1.12-1.112,1.67-1.664a.481.481,0,0,0,.164-.247C-978.449-299.335-978.461-299.644-978.461-299.951Zm-5.515,4.688v-21.943c-1.39-.118-2.064.146-2.347.964l1.672,1.633-.7.759-1.1-1.14c0,.248.016.444,0,.637a.757.757,0,0,0,.285.706c.3.259.562.556.844.833.242.237.489.469.718.689l-.778.819-1.065-1.236a4.227,4.227,0,0,1,0,.517,1.045,1.045,0,0,0,.405,1c.5.45.961.946,1.4,1.382l-.725.807-1.075-1.191c0,.3.016.521,0,.735a.666.666,0,0,0,.246.6c.388.361.755.746,1.129,1.122.157.158.311.32.443.456l-.712.764-1.079-1.188c-.047.649-.091,1.166.446,1.586a16.16,16.16,0,0,1,1.378,1.352l-.753.757-1.092-1.189a5.639,5.639,0,0,1,0,.649.82.82,0,0,0,.314.757c.523.489,1.019,1.006,1.5,1.491l-.711.773-1.069-1.116c-.126.883-.1.966.47,1.535.177.177.351.356.53.529.274.265.552.526.8.766l-.758.823-1.081-1.2a4.556,4.556,0,0,1,0,.551.946.946,0,0,0,.36.895c.514.467.99.975,1.453,1.437l-.715.781-1.066-1.108C-986.606-296-986.1-295.029-983.977-295.264Zm1.035,0h.962v-21.941h-.962Z" transform="translate(987.452 318.231)" fill="#8f8f8f" fill-rule="evenodd"/>
</svg>
