<?xml version="1.0" encoding="utf-8"?>
<!-- Generator: Adobe Illustrator 16.0.0, SVG Export Plug-In . SVG Version: 6.00 Build 0)  -->
<!DOCTYPE svg PUBLIC "-//W3C//DTD SVG 1.1//EN" "http://www.w3.org/Graphics/SVG/1.1/DTD/svg11.dtd">
<svg version="1.1" id="Layer_1" xmlns="http://www.w3.org/2000/svg" xmlns:xlink="http://www.w3.org/1999/xlink" x="0px" y="0px"
	 width="51.5px" height="27.333px" viewBox="0 0 51.5 27.333" enable-background="new 0 0 51.5 27.333" xml:space="preserve">
<g>
	<path fill-rule="evenodd" clip-rule="evenodd" fill="#5E5E5E" d="M25.917,26.019c-6.761,0-13.521,0.005-20.28-0.003
		c-2.138-0.002-3.83-1.259-4.397-3.28c-0.136-0.482-0.162-1.008-0.163-1.514c-0.01-6.667-0.013-9.014-0.003-15.68
		c0.004-2.444,1.261-4.133,3.46-4.683c0.355-0.088,0.734-0.11,1.103-0.11c13.52-0.006,27.04,0.017,40.561-0.025
		c2.094-0.007,4.655,1.67,4.618,4.783c-0.064,5.504-0.017,6.69-0.018,12.195c0,1.301,0.031,2.604-0.017,3.902
		c-0.095,2.611-1.967,4.408-4.584,4.411C39.437,26.024,32.676,26.019,25.917,26.019z M25.933,24.715
		c6.62,0,13.239,0.003,19.858-0.002c2.196-0.002,3.678-1.352,3.682-3.401c0.015-6.734,0.009-9.149,0.002-15.885
		c-0.001-1.142-0.484-2.065-1.4-2.747C47.35,2.139,46.5,2.047,45.627,2.047C32.505,2.049,19.383,2.048,6.261,2.049
		c-0.186,0-0.372-0.006-0.557,0.006C3.78,2.172,2.408,3.47,2.4,5.329c-0.027,6.806-0.026,9.289,0.002,16.095
		c0.005,1.365,0.86,3.036,2.776,3.203c0.369,0.032,0.737,0.084,1.106,0.084C12.834,24.716,19.384,24.715,25.933,24.715z"/>
	<path fill-rule="evenodd" clip-rule="evenodd" fill="#5E5E5E" d="M21.164,18.649c0.498-1.834,0.966-3.525,1.415-5.223
		c0.113-0.429,0.41-0.42,0.75-0.419c2.694,0.005,5.387-0.026,8.08,0.021c0.753,0.014,1.172-0.173,1.272-0.951
		c0.05-0.384,0.183-0.756,0.299-1.219c-3.219,0-6.364,0-9.655,0c0.158-0.575,0.258-1.061,0.438-1.515
		c0.051-0.13,0.33-0.241,0.505-0.242c3.367-0.015,6.733-0.01,10.1-0.01c0.568,0,0.768,0.341,0.646,0.822
		c-0.347,1.367-0.712,2.73-1.129,4.079c-0.176,0.567-0.676,0.762-1.272,0.759c-2.577-0.013-5.155,0.018-7.731-0.021
		c-0.65-0.009-0.973,0.173-1.108,0.818c-0.172,0.814-0.453,1.605-0.637,2.417c-0.116,0.515-0.347,0.765-0.9,0.69
		C21.92,18.615,21.595,18.649,21.164,18.649z"/>
	<path fill-rule="evenodd" clip-rule="evenodd" fill="#5E5E5E" d="M22.324,9.089c-0.475,1.708-0.921,3.307-1.364,4.908
		c-0.339,1.226-0.695,2.448-1.003,3.683c-0.172,0.688-0.509,0.993-1.263,0.985c-3.11-0.036-6.222-0.014-9.333-0.018
		c-0.928,0-1.107-0.241-0.854-1.149c0.714-2.563,1.452-5.12,2.136-7.691c0.146-0.551,0.364-0.802,0.942-0.726
		c0.307,0.042,0.624,0.008,1.033,0.008c-0.731,2.648-1.424,5.157-2.139,7.747c0.26,0.031,0.454,0.074,0.647,0.074
		c2.206,0.005,4.411-0.009,6.617,0.013c0.475,0.004,0.685-0.141,0.812-0.619c0.556-2.103,1.202-4.183,1.724-6.293
		c0.188-0.764,0.522-1.045,1.265-0.927C21.748,9.116,21.958,9.089,22.324,9.089z"/>
	<path fill-rule="evenodd" clip-rule="evenodd" fill="#5E5E5E" d="M40.375,9.199c0.396,0.761,0.698,1.344,1.093,2.101
		c0.234-0.79,0.412-1.393,0.64-2.157c0.8,1.588,1.533,3.023,2.238,4.472c0.054,0.111-0.039,0.367-0.146,0.472
		c-1.514,1.465-3.042,2.915-4.708,4.506c0.2-0.778,0.352-1.364,0.502-1.95c-0.04-0.021-0.081-0.044-0.122-0.065
		c-0.62,0.57-1.241,1.139-1.861,1.709c-0.045-0.022-0.09-0.045-0.135-0.067C38.69,15.278,39.504,12.339,40.375,9.199z"/>
	<path fill-rule="evenodd" clip-rule="evenodd" fill="#5E5E5E" d="M34.197,18.632c0.646-2.32,1.261-4.518,1.87-6.718
		c0.204-0.734,0.423-1.466,0.584-2.209c0.109-0.502,0.355-0.699,0.862-0.645c0.316,0.035,0.64,0.007,1.073,0.007
		c-0.128,0.498-0.23,0.912-0.343,1.323c-0.669,2.451-1.367,4.896-1.996,7.356c-0.184,0.721-0.508,1.018-1.236,0.891
		C34.79,18.599,34.555,18.632,34.197,18.632z"/>
</g>
</svg>
