<svg xmlns="http://www.w3.org/2000/svg" width="24" height="16.82" viewBox="0 0 24 16.82">
    <path data-name="Path 330" d="M15.833 347.5s-1.167.833-1.333-1.333 0-9.5 0-9.5-.833-2.333 3-2.333h10s2-.167 1.667 2.333a20.677 20.677 0 0 0 2.667.667 3.262 3.262 0 0 1 2.167 1.5c.5 1.167.833 1.833.833 1.833s2.667.833 2.667 2v3.5s0 1.833-2 1.333c0-.333.333 2.833-2.333 2.833S31 347.5 31 347.5H20.667s.167 2.5-2 2.833-2.834-2.833-2.834-2.833z" style="fill:#f48634" transform="translate(-14 -334)"/>
    <g data-name="Group 5">
        <path data-name="Path 14" d="m23.186 74.5-1.634-.707-1.388-2.7A2.185 2.185 0 0 0 18.2 69.9h-2.39v-.675A2.2 2.2 0 0 0 13.61 67H2.187A2.2 2.2 0 0 0 0 69.222v10.342a1.347 1.347 0 0 0 1.329 1.366h.305c0 .054-.005.075-.005.107a2.776 2.776 0 1 0 5.551.021v-.027a.833.833 0 0 0-.005-.107h9.232v.107a2.776 2.776 0 1 0 5.551.021v-.134h.691A1.351 1.351 0 0 0 24 79.569v-3.826a1.344 1.344 0 0 0-.814-1.243zM4.41 82.757a1.7 1.7 0 1 1 1.7-1.7 1.7 1.7 0 0 1-1.7 1.7zm10.325-2.888H6.923a2.772 2.772 0 0 0-5.026 0h-.546a.278.278 0 0 1-.279-.295v-2.759h13.664zm0-10.641v6.516H1.072v-6.516a1.128 1.128 0 0 1 1.115-1.147H13.61a1.135 1.135 0 0 1 1.125 1.141zm1.072 1.747H18.2a1.131 1.131 0 0 1 1.018.605l1.072 2.074h-4.483zm3.381 11.783a1.7 1.7 0 1 1 1.7-1.7 1.7 1.7 0 0 1-1.7 1.699zm3.745-3.183a.278.278 0 0 1-.279.295H21.7a2.773 2.773 0 0 0-5.026 0h-.868v-5.145h5.251l1.7.75a.315.315 0 0 1 .171.289z" transform="translate(0 -67.004)" style="fill:#fff"/>
    </g>
</svg>
