<svg xmlns="http://www.w3.org/2000/svg" width="24" height="16.82" viewBox="0 0 24 16.82">
    <g data-name="Group 5">
        <path data-name="Path 14" d="m23.186 74.5-1.634-.707-1.388-2.7A2.185 2.185 0 0 0 18.2 69.9h-2.39v-.675A2.2 2.2 0 0 0 13.61 67H2.187A2.2 2.2 0 0 0 0 69.222v10.342a1.347 1.347 0 0 0 1.329 1.366h.305c0 .054-.005.075-.005.107a2.776 2.776 0 1 0 5.551.021v-.027a.833.833 0 0 0-.005-.107h9.232v.107a2.776 2.776 0 1 0 5.551.021v-.134h.691A1.351 1.351 0 0 0 24 79.569v-3.826a1.344 1.344 0 0 0-.814-1.243zM4.41 82.757a1.7 1.7 0 1 1 1.7-1.7 1.7 1.7 0 0 1-1.7 1.7zm10.325-2.888H6.923a2.772 2.772 0 0 0-5.026 0h-.546a.278.278 0 0 1-.279-.295v-2.759h13.664zm0-10.641v6.516H1.072v-6.516a1.128 1.128 0 0 1 1.115-1.147H13.61a1.135 1.135 0 0 1 1.125 1.141zm1.072 1.747H18.2a1.131 1.131 0 0 1 1.018.605l1.072 2.074h-4.483zm3.381 11.783a1.7 1.7 0 1 1 1.7-1.7 1.7 1.7 0 0 1-1.7 1.699zm3.745-3.183a.278.278 0 0 1-.279.295H21.7a2.773 2.773 0 0 0-5.026 0h-.868v-5.145h5.251l1.7.75a.315.315 0 0 1 .171.289z" transform="translate(0 -67.004)" style="fill:#fff"/>
    </g>
</svg>
