<svg xmlns="http://www.w3.org/2000/svg" width="17.842" height="24.048" viewBox="0 0 17.842 24.048">
  <path id="vehicles-age" d="M-831.561-134.97a7.351,7.351,0,0,1,1.153.427,3,3,0,0,1,1.4,3.485,3.051,3.051,0,0,1-3.085,2.188,2.974,2.974,0,0,1-1.256-.345l-.22-.115c0,.07-.009.114-.009.159,0,1.188,0,2.376,0,3.594.183,0,.353,0,.522,0a18.182,18.182,0,0,1,1.9.038,2.036,2.036,0,0,1,1.762,1.649,2.107,2.107,0,0,1-1,2.249c-.039.024-.08.047-.139.082.166.464.329.925.5,1.385q1.462,4.055,2.925,8.11c.21.583.123.829-.405,1.141h-.376a1.088,1.088,0,0,1-.565-.7c-1.135-3.169-2.281-6.334-3.414-9.5a.288.288,0,0,0-.332-.228c-.994.009-1.988.015-2.981,0a5.182,5.182,0,0,1-.875-.138,2.273,2.273,0,0,1-.335-.121v.286c0,2.746,0,5.493,0,8.239a2.063,2.063,0,0,1-1.3,2,4.354,4.354,0,0,1-.533.169h-.564a4.472,4.472,0,0,1-.533-.169,2.077,2.077,0,0,1-1.3-1.905,4.711,4.711,0,0,0-.044-.657c-.09.15-.178.3-.271.451a2.106,2.106,0,0,1-2.424.918,2.118,2.118,0,0,1-1.488-2.125,2.292,2.292,0,0,1,.342-1.06c1.21-2.091,2.413-4.185,3.63-6.272a.349.349,0,0,0-.033-.469c-.322-.4-.638-.813-.927-1.24a1.1,1.1,0,0,1-.188-.56q-.027-1.443,0-2.888a6.34,6.34,0,0,1,5.675-6.153,4.636,4.636,0,0,1,.772-.03,6.718,6.718,0,0,1,.767.141,2.954,2.954,0,0,1,1.451-1.662,8.43,8.43,0,0,1,1.053-.368Zm-6.247,15.212q0-3.323,0-6.646a.721.721,0,0,1,.709-.816c.426,0,.7.325.7.825,0,.8,0,1.6,0,2.4a1.175,1.175,0,0,0,1.236,1.24q1.808,0,3.617,0a.714.714,0,0,0,.783-.7.714.714,0,0,0-.788-.713q-1.28,0-2.56,0c-.628,0-.878-.251-.878-.883q0-2.924,0-5.847a.7.7,0,0,0-.788-.779,5.835,5.835,0,0,0-.838.088,4.854,4.854,0,0,0-3.955,4.242c-.092,1.026-.042,2.064-.05,3.1a.388.388,0,0,0,.091.206c.353.478.705.958,1.07,1.427a1.131,1.131,0,0,1,.247.736q-.009,4.333,0,8.666c0,.078,0,.157,0,.235a.716.716,0,0,0,.637.649.692.692,0,0,0,.73-.5,1.265,1.265,0,0,0,.037-.347Q-837.806-116.47-837.808-119.758Zm5.878-13.8a1.648,1.648,0,0,0-1.65,1.636,1.649,1.649,0,0,0,1.636,1.651,1.649,1.649,0,0,0,1.65-1.636A1.646,1.646,0,0,0-831.929-133.56Zm-8.7,14.254c-.044.036-.059.042-.066.054-.887,1.535-1.777,3.067-2.653,4.608a.833.833,0,0,0-.072.493.666.666,0,0,0,.574.544.711.711,0,0,0,.738-.39q.708-1.214,1.4-2.435a.469.469,0,0,0,.07-.217C-840.624-117.524-840.626-118.4-840.626-119.307Z" transform="translate(844.852 134.97)" fill="#8f8f8f" fill-rule="evenodd"/>
</svg>
