<svg xmlns="http://www.w3.org/2000/svg" width="24" height="19.034" viewBox="0 0 24 19.034">
  <g id="vendors" transform="translate(0.001 -99.625)">
    <path id="Path_13" data-name="Path 13" d="M23.9,105.027l-4.017-5.218a.471.471,0,0,0-.625-.11l-2.594,1.649H13.283a.466.466,0,0,0-.129.022l-2.623.755L7.81,101.38,5.165,99.7a.47.47,0,0,0-.619.1L.1,105.3a.47.47,0,0,0,.059.652l2.329,2,2.089,2.815a1.662,1.662,0,0,0,1.045,2.791,1.674,1.674,0,0,0-.019.254,1.663,1.663,0,0,0,1.663,1.663h.018c0,.011,0,.023,0,.034a1.663,1.663,0,0,0,1.663,1.663,1.7,1.7,0,0,0,.26-.02,1.663,1.663,0,0,0,2.83,1.013l.254-.254L12.4,118a1.662,1.662,0,0,0,2.819-1.221,1.66,1.66,0,0,0,1.688-1.687,1.662,1.662,0,0,0,1.688-1.689,1.662,1.662,0,0,0,1.421-2.568l1.525-3.195,2.293-1.974a.471.471,0,0,0,.066-.644ZM5.015,100.718l1.9,1.209L2.78,106.967,1.123,105.54ZM5.283,111.4l.574-.574c.017-.017.036-.034.054-.049a.72.72,0,0,1,.392-.159h.012c.021,0,.041,0,.062,0a.718.718,0,0,1,.515.226.74.74,0,0,1-.032,1.024l-.556.556A.722.722,0,0,1,5.283,111.4Zm1.476,2.929a.722.722,0,0,1,0-1.021L7.872,112.2a.73.73,0,0,1,.821-.142.719.719,0,0,1,.4.745.762.762,0,0,1-.215.435l-1.1,1.095a.722.722,0,0,1-1.021,0Zm1.68,1.7a.722.722,0,0,1,0-1.021l1.113-1.113a.73.73,0,0,1,.873-.114.718.718,0,0,1,.345.729.763.763,0,0,1-.214.424l-1.095,1.095a.722.722,0,0,1-1.021,0Zm1.914,1.479a.723.723,0,0,1,0-1.021l.574-.574c.017-.017.036-.034.054-.049h0a.719.719,0,0,1,.32-.149h.008c.02,0,.041-.007.061-.008H11.4l.051,0a.717.717,0,0,1,.515.226.651.651,0,0,1,.047.055.745.745,0,0,1-.081.972l-.554.554a.723.723,0,0,1-1.021,0Zm8.779-5.252a.722.722,0,0,1-1.021,0,.43.43,0,0,0-.032-.029l-3.026-3.058a.471.471,0,0,0-.669.662l3.059,3.091h0a.722.722,0,1,1-1.021,1.021l-2.046-2.067a.471.471,0,1,0-.669.662l2.015,2.036a.446.446,0,0,0,.033.037.722.722,0,1,1-1.021,1.021L13.618,114.5a.471.471,0,0,0-.669.662l1.086,1.1a.421.421,0,0,0,.033.037.722.722,0,0,1-1.021,1.021,1.041,1.041,0,0,0-.107-.085c-.031-.023-.039-.04-.023-.077s.039-.072.054-.11.031-.086.045-.13a1.7,1.7,0,0,0,.061-.724,1.646,1.646,0,0,0-1.4-1.417,1.679,1.679,0,0,0-.4-1.514,1.651,1.651,0,0,0-1.185-.52h-.05a1.647,1.647,0,0,0-1.63-1.7,1.692,1.692,0,0,0-.4.043,1.657,1.657,0,0,0-2.75-.985l-1.819-2.451,4.352-5.3,1.387.379-1.811,3.2a1.663,1.663,0,0,0,.627,2.267l.073.039.006,0a1.671,1.671,0,0,0,.2.084,1.663,1.663,0,0,0,1.988-.753l1.177-2.077,2.1.149,5.6,5.6a.723.723,0,0,1,0,1.021Zm.2-2.157-5.251-5.25-.031-.029a.471.471,0,0,0-.268-.108l-2.574-.183a.478.478,0,0,0-.443.237L9.438,107.1a.722.722,0,1,1-1.256-.712l1.767-3.118.716-.206.014,0,2.672-.772h3.229l4.031,5.124Zm1.9-3.424L17.5,101.934l1.9-1.21,3.483,4.524Zm0,0" transform="translate(0 0)" fill="#fff"/>
  </g>
</svg>
