<svg xmlns="http://www.w3.org/2000/svg" width="24" height="19.034" viewBox="0 0 24 19.034">
    <path data-name="Path 328" d="M22.417 271c2.167 2.928 4.167 1 4.083 1.083 2.25.583 2.25-1.25 2.25-1.083 2-.417 1.417-2 1.5-1.833 2.167.25 2.25-2.167 2.25-1.917 1.917-.25 1.083-2.417 1.083-2.417L34.75 262l2.5-2.5-3.667-4.917-2.833 1.5h-3.083l-3.5.75-3-1.167-2.333-1.083-4 5.333c-.167.012 3.667 4.345 3.667 4.345v2.988l1.667.428v1.488l1.75.428z" transform="translate(-14 -254)" style="fill:#f48634"/>
    <path data-name="Path 13" d="m23.9 105.027-4.017-5.218a.471.471 0 0 0-.625-.11l-2.594 1.649h-3.381a.466.466 0 0 0-.129.022l-2.623.755-2.721-.745-2.645-1.68a.47.47 0 0 0-.619.1L.1 105.3a.47.47 0 0 0 .059.652l2.329 2 2.089 2.815a1.662 1.662 0 0 0 1.045 2.791 1.674 1.674 0 0 0-.019.254 1.663 1.663 0 0 0 1.663 1.663h.018v.034a1.663 1.663 0 0 0 1.663 1.663 1.7 1.7 0 0 0 .26-.02 1.663 1.663 0 0 0 2.83 1.013l.254-.254.109.089a1.662 1.662 0 0 0 2.819-1.221 1.66 1.66 0 0 0 1.688-1.687 1.662 1.662 0 0 0 1.688-1.689 1.662 1.662 0 0 0 1.421-2.568l1.525-3.195 2.293-1.974a.471.471 0 0 0 .066-.644zm-18.885-4.309 1.9 1.209-4.135 5.04-1.657-1.427zm.268 10.682.574-.574a.824.824 0 0 1 .054-.049.72.72 0 0 1 .392-.159h.074a.718.718 0 0 1 .515.226.74.74 0 0 1-.032 1.024l-.556.556a.722.722 0 0 1-1.021-1.024zm1.476 2.929a.722.722 0 0 1 0-1.021l1.113-1.108a.73.73 0 0 1 .821-.142.719.719 0 0 1 .4.745.762.762 0 0 1-.215.435l-1.1 1.095a.722.722 0 0 1-1.021 0zm1.68 1.7a.722.722 0 0 1 0-1.021l1.113-1.113a.73.73 0 0 1 .873-.114.718.718 0 0 1 .345.729.763.763 0 0 1-.214.424l-1.095 1.095a.722.722 0 0 1-1.021 0zm1.914 1.479a.723.723 0 0 1 0-1.021l.574-.574a.824.824 0 0 1 .054-.049.719.719 0 0 1 .32-.149h.008c.02 0 .041-.007.061-.008H11.451a.717.717 0 0 1 .515.226.651.651 0 0 1 .047.055.745.745 0 0 1-.081.972l-.554.554a.723.723 0 0 1-1.021 0zm8.779-5.252a.722.722 0 0 1-1.021 0 .43.43 0 0 0-.032-.029l-3.026-3.058a.471.471 0 0 0-.669.662l3.059 3.091a.722.722 0 1 1-1.021 1.021l-2.046-2.067a.471.471 0 1 0-.669.662l2.015 2.036a.446.446 0 0 0 .033.037.722.722 0 1 1-1.021 1.021l-1.116-1.132a.471.471 0 0 0-.669.662l1.086 1.1a.421.421 0 0 0 .033.037.722.722 0 0 1-1.021 1.021 1.041 1.041 0 0 0-.107-.085c-.031-.023-.039-.04-.023-.077s.039-.072.054-.11.031-.086.045-.13a1.7 1.7 0 0 0 .061-.724 1.646 1.646 0 0 0-1.4-1.417 1.679 1.679 0 0 0-.4-1.514 1.651 1.651 0 0 0-1.185-.52h-.05a1.647 1.647 0 0 0-1.63-1.7 1.692 1.692 0 0 0-.4.043 1.657 1.657 0 0 0-2.75-.985l-1.819-2.451 4.352-5.3 1.387.379-1.811 3.2a1.663 1.663 0 0 0 .627 2.267l.073.039h.006a1.671 1.671 0 0 0 .2.084 1.663 1.663 0 0 0 1.988-.753l1.177-2.077 2.1.149 5.6 5.6a.723.723 0 0 1 0 1.021zm.2-2.157-5.251-5.25-.031-.029a.471.471 0 0 0-.268-.108l-2.574-.183a.478.478 0 0 0-.443.237L9.438 107.1a.722.722 0 1 1-1.256-.712l1.767-3.118.716-.206h.014l2.672-.772h3.229l4.031 5.124zm1.9-3.424-3.732-4.741 1.9-1.21 3.483 4.524zm0 0" transform="translate(.001 -99.625)" style="fill:#fff"/>
</svg>
