<svg xmlns="http://www.w3.org/2000/svg" width="12.95" height="13.683" viewBox="0 0 12.95 13.683">
  <g id="weight-icon" transform="translate(700.242 332.2)">
    <path id="Path_355" data-name="Path 355" d="M-689.518-318.517h-8.5c-.038-.01-.076-.022-.115-.028a2.469,2.469,0,0,1-2.084-2.807c.079-.528.18-1.052.272-1.578.249-1.41.492-2.822.749-4.231a2.447,2.447,0,0,1,2.4-2.049c.436-.011.873,0,1.309,0h.157c-.033-.06-.051-.095-.071-.129a1.868,1.868,0,0,1,.646-2.572,4.553,4.553,0,0,1,.767-.285h.428a.315.315,0,0,0,.061.023,1.883,1.883,0,0,1,1.465,2.607c-.048.116-.11.225-.174.355h.166c.405,0,.81,0,1.215,0a2.424,2.424,0,0,1,2.346,1.6,7.145,7.145,0,0,1,.263,1.182c.295,1.641.574,3.285.874,4.925a2.49,2.49,0,0,1-1.818,2.913C-689.275-318.565-689.4-318.544-689.518-318.517Zm-4.255-.805q1.957,0,3.914,0a2.139,2.139,0,0,0,.425-.038,1.682,1.682,0,0,0,1.3-2.027q-.5-2.777-.982-5.557a1.689,1.689,0,0,0-1.718-1.461q-2.932,0-5.864,0a1.689,1.689,0,0,0-1.717,1.462c-.3,1.752-.618,3.5-.927,5.255a2.722,2.722,0,0,0-.076.94,1.673,1.673,0,0,0,1.705,1.426C-696.4-319.321-695.086-319.323-693.773-319.323Zm1.093-10.963a1.08,1.08,0,0,0-1.072-1.1,1.065,1.065,0,0,0-1.1,1.058,1.079,1.079,0,0,0,1.061,1.112A1.1,1.1,0,0,0-692.679-330.286Z" fill="#8f8f8f" fill-rule="evenodd"/>
    <path id="Path_356" data-name="Path 356" d="M-497.267-132.262c-.07,0-.132,0-.194,0a.4.4,0,0,1-.39-.4.4.4,0,0,1,.382-.4c.218-.008.436-.008.654,0a.376.376,0,0,1,.367.329,1.649,1.649,0,0,1-.179,1.059,1.251,1.251,0,0,1-1.1.625,1.243,1.243,0,0,1-1.1-.614,1.305,1.305,0,0,1-.2-.71c0-.272,0-.543,0-.815a1.3,1.3,0,0,1,1.363-1.316,1.259,1.259,0,0,1,.935.477.4.4,0,0,1-.032.565.393.393,0,0,1-.563-.026.517.517,0,0,0-.533-.191.448.448,0,0,0-.348.4c-.011.338-.014.677,0,1.014a.457.457,0,0,0,.463.413A.456.456,0,0,0-497.267-132.262Z" transform="translate(-194.493 -191.09)" fill="#8f8f8f" fill-rule="evenodd"/>
    <path id="Path_357" data-name="Path 357" d="M-589.78-132.831l.382.4c.207.214.416.427.622.643a.41.41,0,0,1,.017.605.406.406,0,0,1-.594-.041q-.495-.506-.985-1.017c-.031-.032-.056-.069-.109-.136-.006.082-.011.119-.011.155,0,.245,0,.49,0,.734a.4.4,0,0,1-.4.414.4.4,0,0,1-.4-.409q0-1.322,0-2.644a.4.4,0,0,1,.406-.407.4.4,0,0,1,.4.4c0,.283,0,.567,0,.88.054-.051.089-.082.121-.115q.488-.5.975-1.008a.422.422,0,0,1,.4-.153.4.4,0,0,1,.209.677c-.229.249-.466.49-.7.73C-589.554-133.02-589.666-132.932-589.78-132.831Z" transform="translate(-105.338 -191.062)" fill="#8f8f8f" fill-rule="evenodd"/>
  </g>
</svg>
