<svg xmlns="http://www.w3.org/2000/svg" width="19.335" height="19.335" viewBox="0 0 19.335 19.335">
  <path id="what-app-icon" d="M47.543,697.735H47.43c-.11-.018-.219-.039-.329-.052-.584-.074-1.176-.11-1.751-.226a8.637,8.637,0,0,1-2.965-1.219.52.52,0,0,0-.492-.056c-1.056.347-2.117.682-3.176,1.021-.063.02-.127.035-.215.058.027-.089.043-.148.063-.207.332-1,.655-1.994,1-2.984a.647.647,0,0,0-.093-.652,9.262,9.262,0,0,1-1.625-5.059,1.473,1.473,0,0,0-.05-.253v-.076a2.205,2.205,0,0,0,.047-.255c.02-.282.016-.566.051-.845a9.145,9.145,0,0,1,1.221-3.654,9.477,9.477,0,0,1,8.019-4.827,1.857,1.857,0,0,0,.254-.048h.151a1.383,1.383,0,0,0,.254.048,7.843,7.843,0,0,1,2.064.288,9.55,9.55,0,0,1,6.315,5.224,8.935,8.935,0,0,1,.913,3.8,1.768,1.768,0,0,0,.047.274v.076c-.016.091-.04.182-.048.274-.032.375-.035.754-.093,1.125a9.25,9.25,0,0,1-1.71,4.179,9.462,9.462,0,0,1-7.488,4A1.769,1.769,0,0,0,47.543,697.735ZM43.934,682.8v-.01c-.144.01-.289.012-.431.033a1.7,1.7,0,0,0-1.159.891,3.238,3.238,0,0,0-.385,2.729,6.594,6.594,0,0,0,1.054,2.072,15.064,15.064,0,0,0,2.4,2.7,10.465,10.465,0,0,0,4.347,2.169,3.849,3.849,0,0,0,.986.12,3,3,0,0,0,1.277-.36,2.266,2.266,0,0,0,1.312-2.159.459.459,0,0,0-.27-.474c-.727-.345-1.449-.7-2.179-1.037a.6.6,0,0,0-.85.237c-.2.267-.394.538-.6.8a.592.592,0,0,1-.824.216,7.624,7.624,0,0,1-3.741-3.29.4.4,0,0,1,.03-.491c.082-.1.174-.2.258-.3.163-.2.33-.4.483-.6a.565.565,0,0,0,.051-.59c-.074-.173-.143-.349-.216-.523q-.374-.886-.749-1.771a.561.561,0,0,0-.584-.359C44.072,682.8,44,682.8,43.934,682.8Z" transform="translate(-37.8 -678.4)" fill="#4caf50" fill-rule="evenodd"/>
</svg>
