<svg xmlns="http://www.w3.org/2000/svg" width="13.367" height="14.711" viewBox="0 0 13.367 14.711">
  <g id="zip-code-icon" transform="translate(2136.715 260.778)">
    <path id="Path_58" data-name="Path 58" d="M-2134.233-254.1v-.248q0-2.45,0-4.9a1.33,1.33,0,0,1,.957-1.364,1.592,1.592,0,0,1,.438-.063c1.75,0,3.5-.006,5.248,0a.585.585,0,0,1,.37.157q1.811,1.79,3.6,3.6a.612.612,0,0,1,.162.389q.014,4.474.006,8.947a1.337,1.337,0,0,1-1.379,1.407q-4.009.012-8.018,0a1.336,1.336,0,0,1-1.386-1.4c0-.141,0-.282,0-.447h-.224c-.458,0-.917,0-1.375,0a.757.757,0,0,1-.769-.7,1.814,1.814,0,0,1-.009-.213c0-1.42.01-2.841-.006-4.261a.83.83,0,0,1,.93-.921C-2135.21-254.084-2134.733-254.1-2134.233-254.1Zm10.236-2.281h-.223c-.7,0-1.407,0-2.111,0a1.345,1.345,0,0,1-1.423-1.419c0-.71,0-1.421,0-2.131v-.213h-5.029a.81.81,0,0,0-.906.908q0,2.451,0,4.9c0,.068.006.136.01.214h.273q2.654,0,5.308,0a.765.765,0,0,1,.864.8q.008,2.247,0,4.494a.745.745,0,0,1-.559.766,1.581,1.581,0,0,1-.365.033q-2.635,0-5.269,0h-.262c0,.167,0,.308,0,.449a.8.8,0,0,0,.851.847q3.991,0,7.981,0a.829.829,0,0,0,.866-.865q0-4.33,0-8.659C-2123.991-256.29-2123.994-256.322-2124-256.385Zm-7.9,2.8h-3.776c-.338,0-.4.057-.4.393q0,2.111,0,4.222c0,.338.057.4.393.4h7.534c.323,0,.386-.063.386-.384q0-2.121,0-4.241c0-.323-.062-.386-.384-.386Zm4.673-6.137c0,.7-.019,1.391.007,2.078a.751.751,0,0,0,.74.709c.67.012,1.34,0,2.01,0a.023.023,0,0,0,.016-.012Z" fill="#8f8f8f" stroke="#5a5a5a" stroke-width="0.2" fill-rule="evenodd"/>
    <path id="Path_59" data-name="Path 59" d="M-2098.608-95.369h1.168v.422h-1.814a.569.569,0,0,1,.109-.528c.35-.4.681-.825,1.043-1.269h-1.126v-.428h1.786a.585.585,0,0,1-.116.524C-2097.908-96.245-2098.237-95.824-2098.608-95.369Z" transform="translate(-35.411 -155.062)" fill="#8f8f8f" stroke="#5a5a5a" stroke-width="0.2" fill-rule="evenodd"/>
    <path id="Path_60" data-name="Path 60" d="M-2025.359-94.975v-2.191a10.158,10.158,0,0,1,1.234.011.7.7,0,0,1,.6.8.762.762,0,0,1-.748.68c-.192.012-.386,0-.61,0v.7Zm.487-1.162c.2,0,.391.011.576,0a.283.283,0,0,0,.29-.28.277.277,0,0,0-.265-.3c-.195-.025-.393-.022-.6-.032Z" transform="translate(-105.508 -155.053)" fill="#8f8f8f" stroke="#5a5a5a" stroke-width="0.2" fill-rule="evenodd"/>
    <path id="Path_61" data-name="Path 61" d="M-2049.131-94.936h-.454v-2.2h.454Z" transform="translate(-82.533 -155.093)" fill="#8f8f8f" stroke="#5a5a5a" stroke-width="0.2" fill-rule="evenodd"/>
  </g>
</svg>
